<svg version="1.1" id="Layer_1" xmlns="http://www.w3.org/2000/svg" xmlns:xlink="http://www.w3.org/1999/xlink" x="0px" y="0px"
	 width="100%" viewBox="0 0 528 423" enable-background="new 0 0 528 423" xml:space="preserve">
<path fill="#000000" opacity="1.000000" stroke="none" 
	d="
M318.000000,424.000000 
	C212.000015,424.000000 106.500023,424.000000 1.000028,424.000000 
	C1.000019,283.000031 1.000019,142.000061 1.000009,1.000066 
	C176.999954,1.000044 352.999908,1.000044 528.999878,1.000022 
	C528.999939,141.999924 528.999939,282.999847 529.000000,423.999878 
	C458.833344,424.000000 388.666656,424.000000 318.000000,424.000000 
M415.499969,90.217331 
	C414.340149,90.144836 413.180298,90.008972 412.020477,90.008858 
	C311.550629,89.999100 211.080795,89.998589 110.610954,90.011955 
	C109.173752,90.012146 107.736572,90.194939 106.433838,90.283379 
	C106.433838,175.350098 106.433838,260.036560 106.433838,344.961151 
	C108.355713,344.961151 109.846031,344.961151 111.336342,344.961151 
	C210.973099,344.961151 310.609863,344.961823 410.246613,344.955109 
	C411.743774,344.955017 413.266418,345.001465 414.722961,344.732422 
	C415.174103,344.649109 415.445526,343.592590 415.927124,342.054321 
	C415.935455,259.371185 415.944305,176.688019 415.945770,94.004875 
	C415.945770,93.009697 415.850433,92.014511 415.499969,90.217331 
M384.500000,89.000000 
	C394.270813,89.000000 404.041595,89.000000 413.812408,89.000000 
	C413.807159,88.778809 413.801880,88.557617 413.796631,88.336426 
	C311.598511,88.336426 209.400375,88.336426 107.202248,88.336426 
	C107.202370,88.557617 107.202492,88.778809 107.202614,89.000000 
	C199.301743,89.000000 291.400879,89.000000 384.500000,89.000000 
M104.000473,332.465759 
	C104.000473,335.988708 104.000473,339.511627 104.000473,343.034576 
	C104.233856,343.029785 104.467247,343.024963 104.700630,343.020172 
	C104.700630,259.390167 104.700630,175.760162 104.700630,92.130173 
	C104.467247,92.130096 104.233856,92.130028 104.000473,92.129959 
	C104.000473,171.912216 104.000473,251.694489 104.000473,332.465759 
M418.000000,165.500000 
	C418.000000,224.622086 418.000000,283.744171 418.000000,342.866241 
	C418.228973,342.865387 418.457916,342.864532 418.686890,342.863678 
	C418.686890,259.287506 418.686890,175.711319 418.686890,92.135139 
	C418.457916,92.134712 418.228973,92.134285 418.000000,92.133850 
	C418.000000,116.255905 418.000000,140.377945 418.000000,165.500000 
z"/>
<path fill="#3361E1" opacity="1.000000" stroke="none" 
	d="
M415.799255,342.981598 
	C415.445526,343.592590 415.174103,344.649109 414.722961,344.732422 
	C413.266418,345.001465 411.743774,344.955017 410.246613,344.955109 
	C310.609863,344.961823 210.973099,344.961151 111.336342,344.961151 
	C109.846031,344.961151 108.355713,344.961151 106.433838,344.961151 
	C106.433838,260.036560 106.433838,175.350098 106.433838,90.283379 
	C107.736572,90.194939 109.173752,90.012146 110.610954,90.011955 
	C211.080795,89.998589 311.550629,89.999100 412.020477,90.008858 
	C413.180298,90.008972 414.340149,90.144836 415.332581,90.821320 
	C414.776855,93.476891 414.057190,95.527405 414.050690,97.580193 
	C413.972504,122.204727 413.999969,146.829590 414.000000,171.454376 
	C414.000061,226.360992 413.978668,281.267639 414.076324,336.174103 
	C414.080353,338.444275 415.199585,340.712463 415.799255,342.981598 
M321.497223,270.707428 
	C321.687164,270.455048 321.867706,270.196075 322.792694,270.046539 
	C324.968475,268.649597 327.196075,267.326385 329.309570,265.840820 
	C334.206421,262.398895 339.195160,259.063995 343.880554,255.349976 
	C352.718384,248.344315 361.325226,241.048080 370.110779,233.975342 
	C376.969635,228.453659 383.953613,223.087372 391.134735,217.453751 
	C387.742737,214.814056 384.574432,212.432678 381.500031,209.935669 
	C377.172577,206.420914 373.026398,202.673721 368.593323,199.301086 
	C364.755707,196.381470 360.454803,194.063477 356.668396,191.085648 
	C351.696960,187.175842 347.114532,182.775040 342.206421,178.780029 
	C337.553802,174.993011 332.723877,171.420776 327.915771,167.829285 
	C326.068604,166.449478 324.066193,165.277527 321.830750,163.662231 
	C321.638458,163.419281 321.425110,163.196472 320.991974,162.332413 
	C320.812073,162.172501 320.646545,161.987167 320.441681,161.871429 
	C320.393311,161.844070 320.108307,162.050095 320.107697,162.149811 
	C320.055664,170.742523 319.978882,179.335571 320.028961,187.927872 
	C320.036713,189.258270 320.631073,190.585251 321.393280,191.947433 
	C321.393280,191.947433 321.830811,191.998383 322.165375,192.615677 
	C332.089417,199.951813 342.074188,207.209961 351.809906,214.788040 
	C352.508209,215.331619 352.043610,218.974365 350.997650,219.879684 
	C346.111450,224.108734 340.784058,227.823242 335.718536,231.852615 
	C334.026398,233.198639 332.719910,235.018494 331.102356,236.471802 
	C328.414795,238.886505 325.618347,241.180038 322.271637,243.380585 
	C321.864777,243.353470 321.457947,243.326340 320.222382,243.504730 
	C320.222382,253.329605 320.222382,263.154480 320.222382,272.979340 
	C320.415710,272.973724 320.609009,272.968109 320.802338,272.962494 
	C320.914368,272.313965 321.026367,271.665405 321.497223,270.707428 
M201.934265,271.715607 
	C202.107056,272.499847 202.279846,273.284058 202.452621,274.068298 
	C202.996780,264.506287 203.003403,255.041946 202.946960,245.577988 
	C202.945892,245.397522 202.199707,245.221497 201.500061,245.051727 
	C201.500061,245.051727 201.198944,245.043411 200.838943,244.398621 
	C189.874924,235.229965 178.910889,226.061325 168.134995,217.049988 
	C179.358154,208.193451 190.263901,199.587402 201.612030,190.969482 
	C201.612030,190.969482 202.054062,190.990845 202.793350,190.543396 
	C202.793350,180.558151 202.793350,170.572891 202.793350,160.587646 
	C202.467300,160.593735 202.141266,160.599808 201.815216,160.605896 
	C201.815216,161.748642 201.815216,162.891403 201.405029,164.038315 
	C201.405029,164.038315 200.996231,164.004150 200.373352,164.115067 
	C199.052261,164.782013 197.589325,165.263428 196.433853,166.146957 
	C190.347580,170.800690 184.342987,175.561111 178.302139,180.274368 
	C172.286636,184.967926 166.194168,189.565979 160.265610,194.366653 
	C156.518951,197.400528 153.201599,200.983673 149.351898,203.866745 
	C143.312378,208.389877 136.985809,212.529724 130.077698,217.319412 
	C134.997574,221.025833 138.994904,224.073135 143.030319,227.069168 
	C149.622559,231.963486 156.360214,236.671539 162.802200,241.755127 
	C166.838287,244.940155 170.302155,248.843735 174.284637,252.105103 
	C178.385010,255.462997 182.753891,258.503052 187.095993,261.552979 
	C191.681732,264.774048 196.374542,267.842651 201.416458,270.964050 
	C201.416458,270.964050 201.812363,270.983246 201.934265,271.715607 
M243.517334,228.159882 
	C237.213226,245.207794 230.909103,262.255707 224.351471,279.989197 
	C232.202347,279.989197 239.162674,280.072998 246.116135,279.892853 
	C247.086395,279.867706 248.458710,278.750183 248.910614,277.792023 
	C257.177734,260.262878 262.385834,241.468109 271.646759,224.291656 
	C276.102997,216.026535 278.625916,206.712509 281.952026,197.846344 
	C285.660767,187.960342 289.296478,178.046875 292.945312,168.138489 
	C294.473816,163.987915 295.954437,159.819717 297.707581,154.965149 
	C289.842590,154.965149 283.195831,155.132477 276.563873,154.892029 
	C273.417450,154.777969 272.403015,156.158432 271.452148,158.881897 
	C267.866364,169.151993 264.094910,179.362381 260.150024,189.500580 
	C256.014404,200.128998 251.613602,210.654495 247.296143,221.211655 
	C246.358841,223.503647 245.283188,225.739059 243.517334,228.159882 
z"/>
<path fill="#3769F4" opacity="1.000000" stroke="none" 
	d="
M415.863190,342.517944 
	C415.199585,340.712463 414.080353,338.444275 414.076324,336.174103 
	C413.978668,281.267639 414.000061,226.360992 414.000000,171.454376 
	C413.999969,146.829590 413.972504,122.204727 414.050690,97.580193 
	C414.057190,95.527405 414.776855,93.476891 415.482361,91.222321 
	C415.850433,92.014511 415.945770,93.009697 415.945770,94.004875 
	C415.944305,176.688019 415.935455,259.371185 415.863190,342.517944 
z"/>
<path fill="#0000FF" opacity="1.000000" stroke="none" 
	d="
M384.000000,89.000000 
	C291.400879,89.000000 199.301743,89.000000 107.202614,89.000000 
	C107.202492,88.778809 107.202370,88.557617 107.202248,88.336426 
	C209.400375,88.336426 311.598511,88.336426 413.796631,88.336426 
	C413.801880,88.557617 413.807159,88.778809 413.812408,89.000000 
	C404.041595,89.000000 394.270813,89.000000 384.000000,89.000000 
z"/>
<path fill="#3366CC" opacity="1.000000" stroke="none" 
	d="
M104.000473,331.971252 
	C104.000473,251.694489 104.000473,171.912216 104.000473,92.129959 
	C104.233856,92.130028 104.467247,92.130096 104.700630,92.130173 
	C104.700630,175.760162 104.700630,259.390167 104.700630,343.020172 
	C104.467247,343.024963 104.233856,343.029785 104.000473,343.034576 
	C104.000473,339.511627 104.000473,335.988708 104.000473,331.971252 
z"/>
<path fill="#0000FF" opacity="1.000000" stroke="none" 
	d="
M418.000000,165.000000 
	C418.000000,140.377945 418.000000,116.255905 418.000000,92.133850 
	C418.228973,92.134285 418.457916,92.134712 418.686890,92.135139 
	C418.686890,175.711319 418.686890,259.287506 418.686890,342.863678 
	C418.457916,342.864532 418.228973,342.865387 418.000000,342.866241 
	C418.000000,283.744171 418.000000,224.622086 418.000000,165.000000 
z"/>
<path fill="#000000" opacity="1.000000" stroke="none" 
	d="
M243.894287,228.080200 
	C245.283188,225.739059 246.358841,223.503647 247.296143,221.211655 
	C251.613602,210.654495 256.014404,200.128998 260.150024,189.500580 
	C264.094910,179.362381 267.866364,169.151993 271.452148,158.881897 
	C272.403015,156.158432 273.417450,154.777969 276.563873,154.892029 
	C283.195831,155.132477 289.842590,154.965149 297.707581,154.965149 
	C295.954437,159.819717 294.473816,163.987915 292.945312,168.138489 
	C289.296478,178.046875 285.660767,187.960342 281.952026,197.846344 
	C278.625916,206.712509 276.102997,216.026535 271.646759,224.291656 
	C262.385834,241.468109 257.177734,260.262878 248.910614,277.792023 
	C248.458710,278.750183 247.086395,279.867706 246.116135,279.892853 
	C239.162674,280.072998 232.202347,279.989197 224.351471,279.989197 
	C230.909103,262.255707 237.213226,245.207794 243.894287,228.080200 
z"/>
<path fill="#000000" opacity="1.000000" stroke="none" 
	d="
M201.169647,190.981354 
	C190.263901,199.587402 179.358154,208.193451 168.134995,217.049988 
	C178.910889,226.061325 189.874924,235.229965 200.934418,245.179138 
	C201.026779,254.299057 201.023682,262.638458 201.020569,270.977875 
	C196.374542,267.842651 191.681732,264.774048 187.095993,261.552979 
	C182.753891,258.503052 178.385010,255.462997 174.284637,252.105103 
	C170.302155,248.843735 166.838287,244.940155 162.802200,241.755127 
	C156.360214,236.671539 149.622559,231.963486 143.030319,227.069168 
	C138.994904,224.073135 134.997574,221.025833 130.077698,217.319412 
	C136.985809,212.529724 143.312378,208.389877 149.351898,203.866745 
	C153.201599,200.983673 156.518951,197.400528 160.265610,194.366653 
	C166.194168,189.565979 172.286636,184.967926 178.302139,180.274368 
	C184.342987,175.561111 190.347580,170.800690 196.433853,166.146957 
	C197.589325,165.263428 199.052261,164.782013 200.686462,164.527832 
	C201.056259,173.620865 201.112961,182.301117 201.169647,190.981354 
z"/>
<path fill="#000000" opacity="1.000000" stroke="none" 
	d="
M322.867798,243.524597 
	C325.618347,241.180038 328.414795,238.886505 331.102356,236.471802 
	C332.719910,235.018494 334.026398,233.198639 335.718536,231.852615 
	C340.784058,227.823242 346.111450,224.108734 350.997650,219.879684 
	C352.043610,218.974365 352.508209,215.331619 351.809906,214.788040 
	C342.074188,207.209961 332.089417,199.951813 322.071503,191.842560 
	C322.029907,182.049942 322.082214,173.030411 322.134491,164.010895 
	C324.066193,165.277527 326.068604,166.449478 327.915771,167.829285 
	C332.723877,171.420776 337.553802,174.993011 342.206421,178.780029 
	C347.114532,182.775040 351.696960,187.175842 356.668396,191.085648 
	C360.454803,194.063477 364.755707,196.381470 368.593323,199.301086 
	C373.026398,202.673721 377.172577,206.420914 381.500031,209.935669 
	C384.574432,212.432678 387.742737,214.814056 391.134735,217.453751 
	C383.953613,223.087372 376.969635,228.453659 370.110779,233.975342 
	C361.325226,241.048080 352.718384,248.344315 343.880554,255.349976 
	C339.195160,259.063995 334.206421,262.398895 329.309570,265.840820 
	C327.196075,267.326385 324.968475,268.649597 322.401306,269.524414 
	C322.008301,264.868835 321.893860,260.731506 322.035858,256.603027 
	C322.185944,252.239182 322.580200,247.883713 322.867798,243.524597 
z"/>
<path fill="#000000" opacity="1.000000" stroke="none" 
	d="
M201.815216,164.034164 
	C201.815216,162.891403 201.815216,161.748642 201.815216,160.605896 
	C202.141266,160.599808 202.467300,160.593735 202.793350,160.587646 
	C202.793350,170.572891 202.793350,180.558151 202.400696,190.299301 
	C201.943771,181.381531 201.879501,172.707840 201.815216,164.034164 
z"/>
<path fill="#000000" opacity="1.000000" stroke="none" 
	d="
M201.801178,245.043381 
	C202.199707,245.221497 202.945892,245.397522 202.946960,245.577988 
	C203.003403,255.041946 202.996780,264.506287 202.452621,274.068298 
	C202.279846,273.284058 202.107056,272.499847 201.953064,270.887512 
	C201.914978,261.720734 201.858078,253.382065 201.801178,245.043381 
z"/>
<path fill="#000000" opacity="1.000000" stroke="none" 
	d="
M320.954102,191.913803 
	C320.631073,190.585251 320.036713,189.258270 320.028961,187.927872 
	C319.978882,179.335571 320.055664,170.742523 320.107697,162.149811 
	C320.108307,162.050095 320.393311,161.844070 320.441681,161.871429 
	C320.646545,161.987167 320.812073,162.172501 321.015869,163.129028 
	C321.011200,173.255035 320.982666,182.584427 320.954102,191.913803 
z"/>
<path fill="#000000" opacity="1.000000" stroke="none" 
	d="
M321.138367,271.016876 
	C321.026367,271.665405 320.914368,272.313965 320.802338,272.962494 
	C320.609009,272.968109 320.415710,272.973724 320.222382,272.979340 
	C320.222382,263.154480 320.222382,253.329605 320.663818,243.836075 
	C321.116272,253.117233 321.127319,262.067047 321.138367,271.016876 
z"/>
<path fill="#017DFE" opacity="1.000000" stroke="none" 
	d="
M321.173706,191.930618 
	C320.982666,182.584427 321.011200,173.255035 321.115234,163.459732 
	C321.425110,163.196472 321.638458,163.419281 321.982605,163.836563 
	C322.082214,173.030411 322.029907,182.049942 321.904236,191.533920 
	C321.830811,191.998383 321.393280,191.947433 321.173706,191.930618 
z"/>
<path fill="#047EFC" opacity="1.000000" stroke="none" 
	d="
M321.317810,270.862152 
	C321.127319,262.067047 321.116272,253.117233 321.078156,243.733307 
	C321.457947,243.326340 321.864777,243.353470 322.569702,243.452591 
	C322.580200,247.883713 322.185944,252.239182 322.035858,256.603027 
	C321.893860,260.731506 322.008301,264.868835 322.024414,269.466400 
	C321.867706,270.196075 321.687164,270.455048 321.317810,270.862152 
z"/>
<path fill="#3366FF" opacity="1.000000" stroke="none" 
	d="
M201.610123,164.036240 
	C201.879501,172.707840 201.943771,181.381531 202.031067,190.523026 
	C202.054062,190.990845 201.612030,190.969482 201.390839,190.975433 
	C201.112961,182.301117 201.056259,173.620865 200.997894,164.472382 
	C200.996231,164.004150 201.405029,164.038315 201.610123,164.036240 
z"/>
<path fill="#3366FF" opacity="1.000000" stroke="none" 
	d="
M201.650635,245.047546 
	C201.858078,253.382065 201.914978,261.720734 201.892120,270.521332 
	C201.812363,270.983246 201.416458,270.964050 201.218506,270.970947 
	C201.023682,262.638458 201.026779,254.299057 201.114410,245.501526 
	C201.198944,245.043411 201.500061,245.051727 201.650635,245.047546 
z"/>
</svg>