<svg
          height="5.5rem"
          width="5.5rem"
          xmlns="http://www.w3.org/2000/svg"
          id="Layer_1"
          data-name="Layer 1"
          version="1.1"
          viewBox="0 0 250 187.72287"
        >
          <path
            id="path-01"
            d="M237.10977,187.72287H12.89023c-6.6515,0-12.12648-5.002-12.89023-11.44796h250c-.76376,6.44596-6.23874,11.44796-12.89023,11.44796ZM83.5311,169.40698l4.91872-14.70503h73.1005l4.91872,14.70503h80.69642l-2.9357-3.43481-27.60267-32.29643H33.37303l-27.60267,32.29643-2.9357,3.43481h80.69642ZM213.48741,0c1.73389,0,3.13956,1.40567,3.13956,3.13956v123.66881H33.37303V3.13956c0-1.73389,1.40567-3.13956,3.1397-3.13956h176.97467ZM202.89068,13.73503H47.10905v99.3369h155.78163V13.73503ZM132.06719,78.10753c-2.35121.13805-4.71975.20987-7.06733.20987s-4.71612-.07182-7.06733-.20987c1.73361,12.25,5.33134,18.73899,7.06733,18.73899s5.33372-6.48899,7.06733-18.73899ZM139.70307,70.47151c12.24986-1.73403,18.73885-5.33288,18.73885-7.06817s-6.48885-5.33288-18.73871-7.06635c.13805,2.35093.20959,4.71919.20959,7.06635,0,2.34772-.07168,4.71668-.20973,7.06817ZM117.93239,48.70125c2.35135-.13805,4.71989-.20973,7.06747-.20973s4.71612.07168,7.06747.20973c-1.73361-12.24972-5.33134-18.73885-7.06747-18.73885s-5.33386,6.48913-7.06747,18.73885ZM139.06954,77.474c-1.1332,9.19637-3.44123,17.41786-7.01633,22.11525,14.70517-2.8506,26.28153-14.42739,29.13186-29.13255-4.69725,3.57537-12.91902,5.88397-22.11553,7.01731ZM117.94664,99.58939c-3.57509-4.69739-5.88313-12.91902-7.01633-22.11539-9.19651-1.13334-17.41842-3.44193-22.11567-7.01731,2.85032,14.70531,14.42683,26.28209,29.132,29.13269ZM132.05308,27.21897c3.57537,4.69711,5.88341,12.91888,7.01661,22.11567,9.19637,1.13306,17.41786,3.44067,22.11525,7.01563-2.85074-14.70461-14.42725-26.28084-29.13186-29.1313ZM110.93018,49.33464c1.1332-9.19665,3.44109-17.41856,7.01647-22.11567-14.70475,2.85046-26.28111,14.42669-29.13186,29.1313,4.69739-3.57495,12.91902-5.88271,22.11539-7.01563ZM116.95485,63.40334c0,2.75936.09376,5.3537.25948,7.78679,2.43281.16572,5.02659.25934,7.78553.25934s5.35272-.09362,7.78553-.25934c.16572-2.43309.25948-5.02743.25948-7.78679,0-2.75866-.09376-5.3523-.25934-7.78469-2.43281-.16558-5.02659-.2592-7.78567-.2592s-5.35286.09362-7.78567.2592c-.16558,2.43239-.25934,5.02603-.25934,7.78469ZM91.5578,63.40334c0,1.73529,6.48899,5.33414,18.73885,7.06817-.13805-2.35149-.20973-4.72045-.20973-7.06817,0-2.34716.07154-4.71542.20959-7.06635-12.24986,1.73347-18.73871,5.33106-18.73871,7.06635Z"
          ></path>
        </svg>