<svg
          height="5.5rem"
          width="5.5rem"
          xmlns="http://www.w3.org/2000/svg"
          version="1.1"
          id="Layer_1"
          x="0px"
          y="0px"
          viewBox="0 0 215.07907 239.02832"
        >
          <path
            id="Path-1"
            d="M215.00163,96.47705c-1.00391-25.84424-11.93555-50.0752-30.78125-68.22852  c-18.83887-18.14648-43.46289-28.17822-69.33497-28.24805C114.79166,0.00049,114.70084,0,114.60709,0  C87.82096,0,62.63444,10.41064,43.66374,29.33057C24.62516,48.31787,14.1403,73.58203,14.1403,100.46973  c0,3.82324,0.23877,7.77539,0.70996,11.77051L1.0988,143.93945c-1.65088,3.80664-1.43311,8.06445,0.59668,11.68164  c2.02979,3.61816,5.55029,6.02246,9.65869,6.59766c0.08887,0.0127,0.17725,0.02246,0.2666,0.03125l7.76025,0.7168v34.60352  c0,6.99512,2.73828,13.55469,7.71094,18.47266c4.96094,4.90625,11.55274,7.57324,18.5044,7.48828  c8.88916-0.09766,18.49951-0.4541,29.58203-1.92871v11.70312c0,3.16113,2.5625,5.72266,5.72314,5.72266h104.21241  c3.16113,0,5.72266-2.56152,5.72266-5.72266v-67.40332C207.42644,146.60449,215.99382,122.04102,215.00163,96.47705z   M180.85612,159.92188c-0.94336,1.05078-1.46484,2.41797-1.46484,3.83008v63.83105H86.62467v-7.83008  c2.62402-0.49805,5.32861-1.0625,8.12061-1.7002c21.36377-4.87988,25.84814-17.78711,25.84814-27.75488  c0-3.16113-2.56152-5.72266-5.72266-5.72266s-5.72266,2.56152-5.72266,5.72266c0,5.92383-1.92725,13.16406-16.95215,16.59668  c-18.89893,4.31738-33.62597,5.04688-46.72607,5.19141c-0.05518,0.00098-0.10986,0.00098-0.16553,0.00098  c-3.82861,0-7.43311-1.48145-10.16406-4.18262c-2.78125-2.75098-4.31299-6.4209-4.31299-10.33398v-39.82227  c0-2.95703-2.25244-5.42676-5.19678-5.69922l-12.77881-1.18066c-0.67676-0.12695-1.02441-0.58105-1.17383-0.84766  c-0.15625-0.27734-0.37354-0.8457-0.07812-1.52637l14.07227-32.43848l0.2627-0.57666c0.44629-0.979,0.60742-2.06396,0.46533-3.13037  c-0.54004-4.04639-0.81348-8.04346-0.81348-11.87891c0-23.82422,9.29053-46.21045,26.15967-63.03467  c16.81103-16.76562,39.125-25.98877,62.86181-25.98877c0.08105,0,0.16504,0,0.24609,0.00049  c47.08985,0.12646,86.88477,38.47021,88.70997,85.47412C204.46843,120.23535,196.40398,142.60938,180.85612,159.92188z   M153.50652,58.82764c-11.4043-10.71826-26.31641-16.08105-42.00684-15.11084C83.361,45.46484,60.81511,68.00244,59.05534,96.14014  c-0.99658,15.92334,4.8252,31.56396,15.97168,42.91064c4.64404,4.72656,7.30713,11.4873,7.30713,18.5498v1.10938  c0,3.16113,2.5625,5.72266,5.72314,5.72266h54.03223c3.16113,0,5.72266-2.56152,5.72266-5.72266v-1.10938  c0-6.98145,2.84766-13.83008,8.0166-19.28516c9.91504-10.46484,15.375-24.16602,15.375-38.5791  C171.20378,84.30811,164.75359,69.39746,153.50652,58.82764z M147.52019,130.44238  c-6.07129,6.40723-9.83984,14.27832-10.86719,22.54492H93.5192c-0.96045-8.40039-4.54297-16.07129-10.32715-21.95801  c-9.00342-9.16504-13.51855-21.30176-12.71289-34.17432c1.40039-22.39014,19.34033-40.32324,41.72949-41.71436  c12.5-0.77783,24.37989,3.49512,33.45997,12.02783c9.08594,8.53906,14.08984,20.10498,14.08984,32.56787  C159.75847,111.20801,155.41179,122.11328,147.52019,130.44238z M143.52898,174.61328c0,3.16113-2.56152,5.72266-5.72266,5.72266  H92.34049c-3.16064,0-5.72314-2.56152-5.72314-5.72266s2.5625-5.72266,5.72314-5.72266h45.46583  C140.96745,168.89062,143.52898,171.45215,143.52898,174.61328z M110.57291,33.65088v-10.9043c0-2.48535,2.01465-4.5,4.5-4.5  s4.5,2.01465,4.5,4.5v10.9043c0,2.48535-2.01465,4.5-4.5,4.5S110.57291,36.13623,110.57291,33.65088z M196.51726,99.68994  c0,2.48535-2.01465,4.5-4.5,4.5h-10.9043c-2.48535,0-4.5-2.01465-4.5-4.5s2.01465-4.5,4.5-4.5h10.9043  C194.50261,95.18994,196.51726,97.20459,196.51726,99.68994z M53.53386,99.68994c0,2.48535-2.01465,4.5-4.5,4.5h-10.9043  c-2.48535,0-4.5-2.01465-4.5-4.5s2.01465-4.5,4.5-4.5h10.9043C51.51921,95.18994,53.53386,97.20459,53.53386,99.68994z   M172.66277,42.10107c1.75781,1.75732,1.75781,4.60645,0,6.36377l-7.71094,7.71045  c-0.87793,0.87842-2.03027,1.31787-3.18164,1.31787s-2.30371-0.43945-3.18164-1.31836c-1.75781-1.75732-1.75781-4.60645,0-6.36377  l7.71094-7.71045C168.05534,40.34375,170.90691,40.34326,172.66277,42.10107z M71.55827,143.20508  c1.75781,1.75684,1.75781,4.60645,0.00049,6.36328l-7.71045,7.71094c-0.87891,0.87891-2.03027,1.31836-3.18213,1.31836  s-2.30322-0.43945-3.18164-1.31836c-1.75781-1.75684-1.75781-4.60645-0.00049-6.36328l7.71045-7.71094  C66.95231,141.44727,69.80143,141.44727,71.55827,143.20508z M172.66277,150.91602c1.75781,1.75684,1.75781,4.60645,0,6.36328  c-0.87793,0.87891-2.03027,1.31836-3.18164,1.31836s-2.30371-0.43945-3.18164-1.31836l-7.71094-7.71094  c-1.75781-1.75684-1.75781-4.60645,0-6.36328c1.75586-1.75781,4.60742-1.75781,6.36328,0L172.66277,150.91602z M57.48405,48.46484  c-1.75732-1.75732-1.75732-4.60693,0-6.36426c1.75781-1.75684,4.60645-1.75684,6.36426,0l7.71045,7.71045  c1.75732,1.75732,1.75732,4.60693,0,6.36426c-0.87891,0.87842-2.03027,1.31787-3.18213,1.31787s-2.30322-0.43945-3.18213-1.31787  L57.48405,48.46484z M147.9821,99.25488c0-2.75879,1.18945-5.4043,3.2627-7.2583c0.85059-0.76123,1.19629-1.93994,0.89062-3.04004  c-0.83594-3.00488-2.04297-5.90869-3.58691-8.63086c-0.5625-0.99072-1.64062-1.56836-2.77441-1.51514  c-2.76758,0.15674-5.48145-0.87744-7.43066-2.82568c-1.94824-1.94824-2.97754-4.65674-2.82617-7.43115  c0.0625-1.13672-0.52344-2.21094-1.51367-2.77295c-2.71875-1.54297-5.62305-2.75-8.63087-3.5874  c-1.10156-0.30615-2.27832,0.03857-3.04004,0.88965c-1.85547,2.07373-4.50098,3.26318-7.25879,3.26318  c-2.75879,0-5.4043-1.18945-7.25928-3.2627c-0.76074-0.85059-1.94043-1.19678-3.04004-0.89014  c-3.00732,0.83643-5.91113,2.04346-8.63086,3.5874c-0.99023,0.56201-1.57715,1.63623-1.51465,2.77344  c0.15234,2.77393-0.87744,5.48193-2.82617,7.43066c-1.94727,1.94824-4.65234,2.97852-7.43066,2.82568  c-1.1377-0.05811-2.21191,0.5249-2.77393,1.51514c-1.54346,2.72021-2.75,5.62402-3.58643,8.63037  c-0.30615,1.1001,0.03906,2.27881,0.89014,3.04004c2.07324,1.85449,3.26221,4.50049,3.26221,7.25879  c0,2.75879-1.18896,5.4043-3.2627,7.2583c-0.85107,0.76172-1.19629,1.94043-0.89014,3.04102  c0.83789,3.00977,2.04492,5.91357,3.5874,8.63037c0.56201,0.99023,1.63574,1.57666,2.77344,1.51465  c2.77539-0.15674,5.48242,0.87793,7.43066,2.82617c1.94873,1.94824,2.97852,4.65723,2.82617,7.42969  c-0.0625,1.1377,0.52441,2.21191,1.51416,2.77344c2.71777,1.54297,5.62158,2.75,8.63086,3.58789  c0.26611,0.07422,0.53662,0.11035,0.80469,0.11035c0.84131,0,1.65869-0.35449,2.23633-1c1.85449-2.07324,4.5-3.2627,7.25879-3.2627  c2.75781,0,5.40332,1.18945,7.25879,3.2627c0.76172,0.84961,1.93848,1.19531,3.03906,0.88965  c3.00684-0.83691,5.91016-2.04297,8.63087-3.58691c0.99023-0.5625,1.57715-1.63672,1.51465-2.77344  c-0.15137-2.77441,0.87793-5.4834,2.82617-7.43066c1.94922-1.94922,4.66504-2.979,7.43066-2.82617  c1.13184,0.06543,2.21191-0.52393,2.77441-1.51514c1.54395-2.72217,2.75098-5.62598,3.58691-8.63086  c0.30566-1.1001-0.04004-2.27881-0.89062-3.04004C149.17155,104.65918,147.9821,102.01367,147.9821,99.25488z M145.85417,109.57568  c-0.47754,1.41846-1.05371,2.80566-1.72461,4.14746c-3.76758,0.26465-7.3418,1.87256-10.02832,4.55908  s-4.29492,6.26074-4.55957,10.02832c-1.3418,0.6709-2.72852,1.24707-4.14845,1.72461  c-2.85156-2.47949-6.51758-3.87109-10.31934-3.87109c-3.80273,0-7.46924,1.3916-10.3208,3.87207  c-1.42041-0.47852-2.80713-1.05469-4.14795-1.72559c-0.26465-3.7666-1.87256-7.34082-4.55957-10.02783  c-2.68701-2.6875-6.26123-4.29541-10.02881-4.55957c-0.66992-1.34033-1.24658-2.72754-1.72461-4.14795  c2.48047-2.85156,3.87207-6.51758,3.87207-10.32031c0-3.80225-1.39209-7.46875-3.87158-10.32031  c0.47754-1.41943,1.0542-2.80615,1.72461-4.14795c3.76758-0.26465,7.34229-1.87256,10.02832-4.55957  c2.68701-2.68652,4.29492-6.26123,4.55957-10.02832c1.34131-0.67041,2.72803-1.24707,4.14795-1.72461  c2.85205,2.47998,6.51807,3.87207,10.3208,3.87207c3.80176,0,7.46777-1.39209,10.31934-3.87207  c1.4209,0.47754,2.80762,1.0542,4.14845,1.72461c0.26465,3.76758,1.87305,7.3418,4.55957,10.02832  c2.68652,2.68701,6.26074,4.29541,10.02832,4.55957c0.6709,1.3418,1.24707,2.729,1.72461,4.14746  c-2.47949,2.85205-3.87207,6.51807-3.87207,10.3208S143.37468,106.72363,145.85417,109.57568z M115.07291,79.78271  c-10.73682,0-19.47217,8.73535-19.47217,19.47266c0,10.73682,8.73535,19.47168,19.47217,19.47168  c10.7373,0,19.47266-8.73486,19.47266-19.47168C134.54558,88.51807,125.81022,79.78271,115.07291,79.78271z M115.07291,112.72705  c-7.42871,0-13.47217-6.04346-13.47217-13.47168c0-7.42871,6.04346-13.47266,13.47217-13.47266s13.47266,6.04395,13.47266,13.47266  C128.54558,106.68359,122.50163,112.72705,115.07291,112.72705z"
          ></path>
        </svg>