<svg data-v-f03d3c87="" xmlns="http://www.w3.org/2000/svg" viewBox="0 0 16 16" class="c-icon c-icon--md" role="presentation"><!----><!----><!----><!----><!----><!----><!----><!----><!----><!----><!----><!----><!----><!----><!----><!----><!----><!----><!----><!----><!----><!----><!----><!----><!----><!----><!----><!----><!----><!----><!----><path data-v-f03d3c87="" fill-rule="evenodd" clip-rule="evenodd" d="M3.5995 5.2546a1.5042 1.5042 0 0 1-.607-.1163A1.5295 1.5295 0 0 1 2.48 4.787a1.6324 1.6324 0 0 1-.354-.5306A1.6596 1.6596 0 0 1 2 3.6273a1.6635 1.6635 0 0 1 .1257-.6275 1.6365 1.6365 0 0 1 .3524-.53 1.5994 1.5994 0 0 1 .525-.3513 1.574 1.574 0 0 1 .6168-.1184 1.4882 1.4882 0 0 1 .6102.125c.1927.0843.3662.2085.5094.3648.1504.1464.2692.3234.3485.5195.0794.1962.1176.407.1122.6192a1.6598 1.6598 0 0 1-.1259.6289 1.6328 1.6328 0 0 1-.354.5306 1.5194 1.5194 0 0 1-.4942.3438 1.4943 1.4943 0 0 1-.5858.1227h-.0408ZM4.4 13.9999H2.8004a.608.608 0 0 1-.4202-.1835.633.633 0 0 1-.1798-.4287V6.2714a.6059.6059 0 0 1 .0391-.2321.5968.5968 0 0 1 .1244-.1985.583.583 0 0 1 .19-.1337.5732.5732 0 0 1 .226-.048H4.4a.6073.6073 0 0 1 .4205.1832.632.632 0 0 1 .1795.429v7.1384a.6288.6288 0 0 1-.186.4157.6044.6044 0 0 1-.414.1745Zm7.1997 0h2.0003a.4256.4256 0 0 0 .2743-.1269.442.442 0 0 0 .1253-.2796V8.3456a2.8818 2.8818 0 0 0-.1975-1.1067 2.8373 2.8373 0 0 0-.6041-.9408 2.772 2.772 0 0 0-.9156-.6265A2.7254 2.7254 0 0 0 11.2 5.4584h-.42a2.6585 2.6585 0 0 0-1.0926.2323 2.7067 2.7067 0 0 0-.9077.6627v-.2852a.4423.4423 0 0 0-.1252-.2796.4258.4258 0 0 0-.2744-.127H6.3798a.4062.4062 0 0 0-.2706.1122.422.422 0 0 0-.129.2674v7.5914a.4036.4036 0 0 0 .1284.2645.3878.3878 0 0 0 .2712.1028h2.1995a.3893.3893 0 0 0 .2716-.1027.4049.4049 0 0 0 .1292-.2646V9.2443c0-.671.48-1.2 1.0991-1.2a1.1582 1.1582 0 0 1 .454.0876c.1441.0595.2753.1475.386.259.2004.1824.2808.4665.2808.8338v4.3687a.4408.4408 0 0 0 .1249.2799.425.425 0 0 0 .2747.1266Z"></path><!----><!----><!----><!----><!----><!----><!----><!----><!----><!----><!----><!----><!----><!----><!----><!----><!----><!----><!----><!----><!----><!----><!----><!----><!----><!----><!----><!----><!----><!----><!----></svg>