<svg
          height="5.5rem"
          width="5.5rem"
          xmlns="http://www.w3.org/2000/svg"
          id="technology"
          version="1.1"
          viewBox="0 0 250 205.14323"
        >
          <path
            id="path-02"
            d="M105.75427,89.02894c-.01733-.01729-.79274.60361-.81007.60361-.67527-.10364-.6097-.7763-1.3023-.7763-7.61823,0-13.79925,6.18404-13.79925,13.76714,0,7.6005,6.02621,13.35571,13.64444,13.35571.6926,0,.93555-.24791,1.61082-.35155.01733,0,.63903.60757.65636.59028,6.61388-1.01909,11.68699-6.71941,11.68699-13.59444s-5.07311-12.57524-11.68699-13.59444ZM105.75427,112.7113c-.01733.01729-.21475.63761-.23208.63761-.25975.05177-.67391,1.01818-.93367,1.03547-.13844.01719-.76922.25363-.90776.25363-.29431.03458-2.24178.16646-2.53609.16646-5.69629,0-9.54369-6.66816-9.54369-12.3513s6.38349-11.25266,12.07978-11.25266c.67527,0,1.28096.87157,1.90424.9925.03466,0,.08269.06386.11736.06386.01733,0,.03712.25392.05191.27868,4.69204.96733,8.22418,5.13026,8.22418,10.08782s-3.53213,9.1206-8.22418,10.08792ZM138.72019,120.74365c-1.99116,0-3.61868,1.62363-3.61868,3.61016,0,.70828.20776,1.36459.57139,1.93465-2.649,3.55839-5.80017,6.61588-9.34963,9.06873l-5.85205-9.81148c2.45857-1.79643,4.64015-3.97294,6.44078-6.51224l-2.8222-1.98642c-3.6879,5.18213-9.12454,8.74052-15.3229,10.03605l.70983,3.3684c2.87419-.58735,5.57518-1.62374,8.08563-3.0402l5.8176,9.7769c-3.1685,1.81372-6.59665,3.16113-10.21533,4.04211-.65794-.70828-1.59286-1.15742-2.649-1.15742-1.99116,0-3.61868,1.62374-3.61868,3.61026s1.62753,3.61026,3.61868,3.61026c1.67941,0,3.08185-1.15742,3.49737-2.71199,9.97291-2.43566,18.64727-8.25691,24.70719-16.61735,1.99116,0,3.61858-1.62374,3.61858-3.61026s-1.62742-3.61016-3.61858-3.61016ZM218.27828,77.23103c-.6926-.65641-1.66219-1.0192-2.57978-.98462-1.36788.05177-2.52789.86369-3.09928,2.00371h-22.23119l-10.87328,9.48328h-18.09321c-2.83942-11.07244-8.79546-20.9185-17.2274-28.72628l6.71776-8.6023-1.24656-1.07096c-12.24105-10.51977-27.75448-16.51371-43.89108-16.99743-.6926-.01719-1.40243-.03448-2.11237-.03448v3.45475c.70994,0,1.40243.01729,2.11237.05177,14.7515.44913,28.94905,5.75219,40.37628,15.08007l-4.53627,5.82125c-7.722-6.35673-16.86387-10.62341-26.64625-12.50629-.25975-1.74456-1.74874-3.09197-3.56669-3.09197-1.99116,0-3.61868,1.62374-3.61868,3.61026,0,1.98642,1.62753,3.61016,3.61868,3.61016.8657,0,1.66208-.32821,2.30269-.8464,9.99024,1.79643,19.32254,6.27038,27.00999,12.9899,8.89934,7.79048,15.01125,17.94747,17.67758,29.3654l.31164,1.3473h22.12741l10.85595-9.48328h21.05384c.62328,1.05367,1.76607,1.76196,3.08195,1.76196h.12111c1.99116-.06916,3.54947-1.72738,3.49747-3.7139-.03466-.96733-.43285-1.8656-1.14268-2.5219ZM241.87735,51.54485c-.70994-.65631-1.67952-1.01909-2.59711-.98451-1.40243.05177-2.59711.91545-3.15117,2.10735h-28.93182l-11.01171,12.71346h-8.65703l-11.41001,10.07063h-7.11605c-2.89142-6.4086-6.73519-12.3162-11.42723-17.60197.19043-.43184.29431-.91545.29431-1.39917v-.12093c-.05199-1.98642-1.73141-3.59297-3.72256-3.48933-.96958.01729-1.86984.43184-2.52778,1.12284-.65794.70828-1.00424,1.62374-.96958,2.59106.01733.96733.43285,1.84831,1.12535,2.52201.67527.62183,1.55831.96733,2.4759.96733h.12121c.15587,0,.31164-.03458.46751-.05187,4.76136,5.32035,8.62236,11.33158,11.44456,17.86112l.45018,1.05367h10.68274l11.42734-10.07063h37.91771c.15587.24186.32897.46643.53673.65641.67527.63912,1.54098.98462,2.45867.98462h.12121c1.99105-.06906,3.56669-1.72738,3.5147-3.7138v-.01729c-.06922-1.98652-1.76607-3.55839-3.73979-3.48933-.95236.03458-1.85262.43184-2.51056,1.14002-.29431.29373-.50218.63923-.65794.98462h-25.72866l8.03364-9.25871h27.58138c.64061,1.00191,1.76596,1.65832,3.02996,1.65832h.10388c1.99105-.06916,3.56669-1.72738,3.5147-3.7139-.03466-.96733-.43285-1.8656-1.14268-2.52201ZM138.72019,77.2828c-5.67906-7.84225-13.79936-13.52539-23.06233-16.18551-.32897-1.65832-1.78329-2.93656-3.54936-2.93656-1.99116,0-3.61868,1.62374-3.61868,3.61026,0,1.98642,1.62753,3.61016,3.61868,3.61016.95225,0,1.83529-.37997,2.4759-1.0018,4.76136,1.36459,9.19376,3.57558,13.08942,6.52943l-6.66587,9.18965c-1.40243-1.07096-2.89152-2.021-4.48439-2.83292,0-.12093.03466-.22457.03466-.3455,0-1.98642-1.62753-3.61016-3.61868-3.61016-1.99105,0-3.61858,1.62374-3.61858,3.61016,0,1.98652,1.62753,3.61026,3.61858,3.61026.57139,0,1.10812-.15551,1.57564-.37997,8.6397,4.16293,14.16288,12.85158,14.16288,22.47308,0,.91556-.06932,1.84831-.1732,2.76387-1.07346.63912-1.78329,1.77914-1.78329,3.10926,0,1.98652,1.61019,3.59297,3.60135,3.59297,2.00838,0,3.61858-1.60645,3.61858-3.59297,0-1.39917-.79648-2.59106-1.93917-3.1956.08655-.88098.13854-1.77925.13854-2.67752,0-7.77319-3.1685-15.0109-8.50126-20.26209l6.71786-9.24142c1.90461,1.72738,3.65324,3.64474,5.22888,5.7349-.39819.56996-.62328,1.26095-.62328,2.021,0,1.98642,1.62753,3.61016,3.61858,3.61016,1.99116,0,3.61868-1.62374,3.61868-3.61016,0-1.95194-1.54098-3.52392-3.48014-3.59297ZM167.14983,124.40568c-.96958.06906-1.83529.51819-2.4759,1.24366-.62328.72547-.93492,1.65832-.8657,2.62565.05199.74276.3463,1.41646.77915,1.96923-9.08988,20.05481-27.18309,34.20203-48.70444,38.15768l-1.29855-7.255c5.22888-.96733,10.28455-2.66012,15.06325-4.97485.5194.29373,1.10812.46643,1.73141.46643.08655,0,.1731,0,.27698-.01729.95225-.06906,1.83529-.5009,2.45857-1.24366.64072-.72557.95236-1.65832.88303-2.60836-.15577-1.98652-1.85262-3.48933-3.87833-3.33382-1.97383.13811-3.44548,1.83101-3.3416,3.80025-4.89991,2.33192-10.09412,3.95565-15.47877,4.78476l-1.74874.27644,2.52789,14.06076,1.66219-.25904c23.46052-3.69661,43.25047-18.82844,53.05018-40.507.9177-.10364,1.74874-.51819,2.37202-1.22648.62339-.72547.93503-1.65821.8657-2.62554-.15577-1.98652-1.86984-3.47204-3.87833-3.33382ZM159.82602,121.69368c-.72716-.63912-1.66219-.95004-2.63177-.88098-1.99105.1554-3.48014,1.88278-3.3416,3.86931.05199.65641.27708,1.26095.64061,1.77925-2.09493,4.45655-4.79603,8.6023-7.98175,12.36797-.45018-.15551-.93492-.22457-1.41977-.1727-.96958.06906-1.83529.5009-2.4759,1.24366-.62328.72547-.93492,1.65832-.8657,2.60836.06922.96733.5194,1.84831,1.24656,2.47014.65794.57006,1.48909.88098,2.35479.88098.08655,0,.1731,0,.27698-.01729,1.88728-.13822,3.35893-1.72738,3.35893-3.59297,0-.08635-.01733-.1727-.01733-.25904-.01733-.20728-.05189-.39737-.10388-.58735,3.49747-4.07658,6.42355-8.55053,8.70902-13.38717h.15577c1.99116-.13822,3.48014-1.88278,3.3416-3.85202v-.01729c-.06922-.95004-.5194-1.83101-1.24656-2.45284ZM145.95745,165.96634c-1.97383.1554-3.44548,1.84831-3.3416,3.80014-8.18951,4.75028-17.03708,7.91141-26.36927,9.41422-.70994-.93275-1.86995-1.5201-3.15117-1.41646-1.99116.13822-3.48014,1.88289-3.3416,3.86941.13844,1.88278,1.73141,3.33382,3.60125,3.33382h.27708c1.45432-.12093,2.63166-1.07096,3.11651-2.34931,9.79971-1.58916,19.09735-4.92298,27.70249-9.91512.53673.31092,1.14268.48372,1.76607.48372.08655,0,.1731-.01729.27698-.01729,1.97383-.13822,3.48014-1.88289,3.3416-3.86931-.15577-1.98652-1.9045-3.47204-3.87833-3.33382ZM174.54297,59.74989c-.70994-.65631-1.66219-1.01909-2.57978-.96733-5.6444-8.75771-12.82977-16.21998-21.33093-22.24851.03466-.19009.05189-.36279.05189-.57006-.03456-.95004-.43285-1.84831-1.14268-2.50472-.70994-.65641-1.61019-1.0192-2.59711-.98462-1.99116.06906-3.54936,1.72738-3.49747,3.7139.03466.96733.43285,1.86549,1.14279,2.5219.67517.63912,1.54087.98462,2.4759.98462h.10388c.5194-.01729,1.00424-.1554,1.4371-.36268,8.1203,5.75209,14.95926,12.86887,20.36124,21.19484-.3462.57006-.53673,1.24377-.5194,1.96923.05199,1.95194,1.66219,3.48933,3.61868,3.48933h.10388c1.99105-.05187,3.56669-1.72738,3.5147-3.7139-.03456-.96733-.43285-1.8656-1.14268-2.52201ZM136.34817,26.51518c-.90036.01729-1.69674.39737-2.32013.95014-5.67895-2.28015-11.61766-3.92118-17.67758-4.87121-.3463-1.67561-1.86995-2.93656-3.63601-2.8675-.96958.03458-1.86984.43184-2.52778,1.14013-.65794.70818-1.00424,1.62374-.98691,2.59106.06922,1.95194,1.67941,3.48923,3.61858,3.48923h.12121c.9177-.03448,1.76607-.41455,2.38935-1.01909,6.02526.89816,11.94674,2.5219,17.59114,4.81934.12111.76005.48474,1.45104,1.05613,2.00382.6925.62183,1.5582.96733,2.4759.96733h.12121c1.9565-.05187,3.5147-1.67561,3.5147-3.61026v-.10364c-.06922-1.98652-1.76596-3.57568-3.73979-3.48933ZM248.85486,109.25655c-.6925-.65641-1.67941-1.0192-2.57978-.96733-.96958.01729-1.86995.43184-2.52789,1.12273-.32897.36279-.58862.77734-.76182,1.20918h-70.41623l-6.40622-6.99585h51.5613c.58862,1.19189,1.83529,2.021,3.25505,2.021h.10388c.96958-.03448,1.86995-.43184,2.52778-1.14002.65794-.69099,1.00424-1.60645.96958-2.57377-.05189-1.98652-1.74863-3.55839-3.72246-3.48933-1.26389.03458-2.35469.72547-2.96074,1.72738h-25.90176l6.02526-6.54672h33.39877c.64061,1.01909,1.76607,1.71009,3.04729,1.71009h.12121c1.99116-.06906,3.56669-1.72738,3.49747-3.73119-.01733-.95004-.43285-1.8482-1.12546-2.50461-.70983-.6737-1.67941-1.0192-2.59711-.98462-.96958.03448-1.85262.43184-2.51056,1.14002-.25965.27644-.46741.58735-.62328.91556h-34.73199l-9.21109,10.00147h-40.56681c-.03466-.60454-.03466-1.19189-.10388-1.79643-.27698-2.95385-.65794-5.28577-1.19467-7.37593l-.39819-1.57187-5.05578.93275c-.72716-.81192-1.78329-1.29553-2.96064-1.20918-1.99116.13822-3.48014,1.88289-3.3416,3.86931.13844,1.88289,1.73141,3.33382,3.60125,3.33382h.27708c1.5582-.12082,2.78754-1.20908,3.20306-2.62554l1.67952-.31092c.31164,1.53728.55406,3.24748.74449,5.28577.45018,4.52572.03456,8.49866-1.33322,13.28353l-.46751,1.62374,5.95604,1.83101c.46751,1.48552,1.85262,2.53919,3.44559,2.53919.08655,0,.1731-.01729.27698-.01729.95225-.06906,1.83529-.51819,2.45857-1.24366.64061-.72547.95225-1.65832.88303-2.62565-.06922-.95004-.5194-1.83101-1.24656-2.45284-.72727-.63912-1.67952-.95004-2.63177-.88098-1.00424.08635-1.88728.57006-2.49323,1.27824l-2.40668-.74276c.65794-2.66012,1.00424-5.16484,1.12546-7.66956h14.73428l9.55729,10.45061h23.70294l10.95983,10.74434h12.91632c.15577.24186.3462.48361.55406.69089.67517.63912,1.5582.98462,2.4759.98462h.12121c.96958-.03448,1.85251-.44913,2.52778-1.14002.65794-.70828,1.00424-1.62374.96958-2.59106-.05189-1.98652-1.74874-3.55839-3.72246-3.48933-1.40243.03458-2.59711.89827-3.15117,2.09016h-11.27147l-7.44502-7.28958h43.85642c.67527.86369,1.69685,1.41646,2.85686,1.41646h.12121c.95225-.03458,1.85262-.43184,2.51056-1.14002.67517-.69099,1.02147-1.60645.98691-2.57377-.03466-.96733-.43285-1.8656-1.14279-2.52201ZM239.8343,132.47249c-.6926-.65641-1.62753-.96733-2.57988-.96733-.96958.01729-1.86984.43184-2.52778,1.12273-.25975.29373-.46751.60464-.62339.95014h-30.68045l-9.95558-11.34887h-14.54385l-.3462,1.26095c-3.34171,11.91894-9.59205,22.95679-18.09321,32.0601-.43285-.13822-.8657-.18999-1.33322-.1554-.96958.06906-1.85262.5009-2.4759,1.24366-.62328.72547-.93492,1.65832-.8657,2.60836.13854,1.90007,1.73141,3.35111,3.60135,3.35111.08655,0,.1731,0,.27698-.01729.95225-.06906,1.83529-.5009,2.45857-1.22648.64072-.74276.95236-1.6755.88303-2.62554-.03456-.24186-.06922-.48372-.13844-.70828,8.6397-9.18965,15.08047-20.31396,18.64716-32.33643h10.3711l9.93836,11.34887h32.46385c.1731.25904.3462.5009.57129.70818.67527.62183,1.55831.96733,2.4759.96733h.12121c1.9565-.05177,3.49747-1.65832,3.49747-3.59297v-.12082c-.03466-.96743-.43285-1.84831-1.14268-2.52201ZM117.5278,8.53324l-.50218,3.42017c13.1933,1.91736,25.53823,6.5813,36.72315,13.85359l1.88728-2.88469c-11.60044-7.54863-24.43021-12.38536-38.10825-14.38907ZM169.01978,33.44198l-2.37202,2.50472c6.05992,5.70032,11.30602,12.19527,15.61731,19.27747l2.96064-1.77914c-4.46706-7.35864-9.92092-14.09545-16.20593-20.00305ZM187.32075,140.45296c-6.19846,13.6635-15.80774,25.72066-27.78903,34.89302l2.11226,2.74647c12.41415-9.51786,22.38706-22.04134,28.82794-36.20574l-3.15117-1.43375ZM142.54663,185.65837c-11.58311,5.42399-23.9627,8.29139-36.79236,8.56782-.70994.03458-1.40243.03458-2.11237.03458v3.45475c.70994,0,1.41977,0,2.11237-.03458,13.3664-.27644,26.2134-3.26477,38.24668-8.87874l-1.45432-3.14384Z"
          ></path>
          <path
            id="path-01"
            d="M103.6419,92.31099c.67527,0,1.35055.06906,1.97383.18999.05506.01286.09934.02351.13854.03458V0h-10.94249v22.49047c-5.33276.51819-10.49231,1.55458-15.46144,3.05738l-8.6398-20.74581-14.76883,6.13227,8.6397,20.7457c-4.57094,2.45295-8.88212,5.35493-12.88166,8.6197l-15.92895-15.90917-11.30602,11.297,15.94618,15.89188c-3.3416,4.04211-6.28501,8.41231-8.77813,13.07625l-20.81153-8.56782-6.09458,14.75186,20.7942,8.56772c-1.47165,4.8885-2.49323,9.967-2.9953,15.18371H0v15.96094h22.5256c.5194,5.30306,1.5582,10.4679,3.06452,15.42546l-20.75953,8.61959,6.12924,14.73457,20.77686-8.61959c2.4759,4.56019,5.36731,8.86134,8.65703,12.85168l-15.92895,15.89178,11.30602,11.27982,15.92895-15.89188c4.06876,3.33382,8.44927,6.27038,13.10675,8.74052l-8.58781,20.7631,14.8036,6.08029,8.57037-20.7457c4.89991,1.46823,9.99024,2.48743,15.21912,2.98833v22.47318h10.94249v-92.43192c.00021.00179-.02642.01118-.05199.01729-.25975.05177-.5194.10364-.77915.12093-.12121.01719-.25965.03448-.39819.03448-.29431.05187-.58872.05187-.88303.05187-5.69629,0-10.33644-4.62936-10.33644-10.31249s4.64015-10.31239,10.33644-10.31239ZM45.2243,102.57161c0-10.08792,2.59711-19.55391,7.18537-27.79353l26.14418,18.37931c-1.14279,2.91927-1.76607,6.09769-1.76607,9.41422,0,3.33382.64061,6.51224,1.76607,9.43141l-26.14418,18.37931c-4.58827-8.22233-7.18537-17.7229-7.18537-27.81072ZM96.45652,127.75679l-.1731,31.90459c-14.56107-1.62374-27.47739-8.68865-36.68848-19.10478l26.14428-18.37931c3.04718,2.62565,6.6832,4.57759,10.7173,5.5795ZM85.73923,82.96583l-26.16162-18.36191c9.3323-10.53706,22.47371-17.65384,37.27721-19.17394l-.15587,31.9047c-4.12075.98451-7.86054,2.95375-10.95972,5.63116Z"
          ></path>
        </svg>