<svg xmlns="http://www.w3.org/2000/svg" viewBox="0 0 199.9 200">
          <g id="decoration-30">
            <path d="M100,200h0a.42.42,0,0,1-.42-.42.43.43,0,0,1,.53-.4.44.44,0,0,1,.54.4.41.41,0,0,1-.41.42h0l-.11,0Zm-6.65-.22h-.11a.42.42,0,1,1,.53-.41A.42.42,0,0,1,93.3,199.78Zm13.52,0a.42.42,0,0,1-.4-.32.42.42,0,0,1,.3-.51.44.44,0,0,1,.53.41.41.41,0,0,1-.38.41Zm-20.14-.65h-.11a.42.42,0,0,1-.31-.51.43.43,0,0,1,.46-.31.42.42,0,0,1,.38.42A.41.41,0,0,1,86.68,199.12Zm26.76,0a.4.4,0,0,1-.4-.31.42.42,0,0,1,.3-.51.44.44,0,0,1,.53.41.42.42,0,0,1-.38.41ZM80.12,198H80a.43.43,0,0,1-.34-.41.44.44,0,0,1,.56-.4.42.42,0,0,1-.13.82ZM120,198a.42.42,0,0,1-.42-.42.43.43,0,0,1,.34-.41.42.42,0,0,1,.22.81Zm-46.47-1.51a.41.41,0,0,1-.3-.5.42.42,0,0,1,.51-.31Zm52.94,0a.43.43,0,0,1-.41-.32.41.41,0,0,1,.31-.5.41.41,0,0,1,.5.28.41.41,0,0,1-.26.52h-.14Zm-59.29-1.92a.42.42,0,0,1-.3-.51.41.41,0,0,1,.5-.3Zm65.64-.06a.42.42,0,0,1-.1-.83.42.42,0,0,1,.5.29.4.4,0,0,1-.26.51h0Zm-71.75-2.32a.31.31,0,0,1-.13,0l-.11,0a.42.42,0,0,1-.11-.58.42.42,0,0,1,.75.37A.43.43,0,0,1,61.07,192.13ZM139,192a.41.41,0,0,1-.34-.18.42.42,0,0,1,.11-.58l.11-.05a.42.42,0,0,1,.3.78A.57.57,0,0,1,139,192Zm-84-2.72a.46.46,0,0,1-.2,0,.41.41,0,0,1-.2-.5.42.42,0,0,1,.53-.27l.1.05a.42.42,0,0,1-.23.77Zm90-.09a.42.42,0,0,1-.4-.28.41.41,0,0,1,.2-.5.42.42,0,0,1,.43.71l-.1.05A.32.32,0,0,1,145,189.23Zm-95.85-3.12a.35.35,0,0,1-.2-.05.42.42,0,0,1,.33-.76l.1,0a.41.41,0,0,1-.23.76ZM150.86,186a.42.42,0,0,1-.4-.28.41.41,0,0,1,.2-.5.42.42,0,0,1,.43.71l-.1.05A.32.32,0,0,1,150.86,186ZM43.62,182.53a.5.5,0,0,1-.27-.07l-.07-.06a.42.42,0,0,1,.59-.59.38.38,0,0,1,.09.55A.4.4,0,0,1,43.62,182.53Zm112.83-.1a.42.42,0,0,1-.29-.12.4.4,0,0,1,0-.59s0-.05.07-.06a.41.41,0,0,1,.58.12.42.42,0,0,1-.1.56A.43.43,0,0,1,156.45,182.43ZM38.26,178.58a.47.47,0,0,1-.26-.08.18.18,0,0,1-.07-.05.42.42,0,0,1,.59-.59.38.38,0,0,1,.08.55A.4.4,0,0,1,38.26,178.58Zm123.54-.11a.42.42,0,0,1-.3-.71l.07-.06a.42.42,0,0,1,.48.68A.38.38,0,0,1,161.8,178.47Zm-128.65-4.2a.39.39,0,0,1-.23-.07.49.49,0,0,1-.13-.12.43.43,0,0,1,.12-.58.44.44,0,0,1,.51,0,.43.43,0,0,1,.08.55A.42.42,0,0,1,33.15,174.27Zm133.72-.11a.39.39,0,0,1-.23-.07.4.4,0,0,1-.12-.57.5.5,0,0,1,.12-.13.43.43,0,0,1,.58.12.41.41,0,0,1-.07.54A.38.38,0,0,1,166.87,174.16ZM28.36,169.65a.39.39,0,0,1-.29-.13h0a.42.42,0,0,1,.59-.59.41.41,0,0,1,0,.59A.43.43,0,0,1,28.36,169.65Zm143.28-.12a.42.42,0,0,1-.29-.12.41.41,0,0,1,0-.59.41.41,0,1,1,.59.58h0A.42.42,0,0,1,171.64,169.53ZM23.9,164.71a.42.42,0,0,1-.35-.65.43.43,0,0,1,.58-.12l.12.12a.42.42,0,0,1-.12.58A.39.39,0,0,1,23.9,164.71Zm152.2-.12a.43.43,0,0,1-.35-.19.41.41,0,0,1,0-.51.42.42,0,0,1,.66.51.46.46,0,0,1-.12.12A.39.39,0,0,1,176.1,164.59ZM19.78,159.5a.42.42,0,0,1-.34-.17.42.42,0,0,1,.63-.55s0,0,.05.07a.42.42,0,0,1-.11.58A.51.51,0,0,1,19.78,159.5Zm160.44-.14a.4.4,0,0,1-.29-.12.4.4,0,0,1,0-.59.38.38,0,0,1,.55-.09.45.45,0,0,1,.09.61l0,.07A.44.44,0,0,1,180.22,159.36ZM16,154a.42.42,0,0,1-.35-.19.37.37,0,0,1-.05-.11.41.41,0,0,1,.76-.32.42.42,0,0,1-.13.55A.48.48,0,0,1,16,154Zm168-.15-.13,0a.42.42,0,0,1-.26-.53.54.54,0,0,1,0-.11.42.42,0,0,1,.58-.11.41.41,0,0,1,.13.55A.4.4,0,0,1,184,153.87ZM12.61,148.3a.41.41,0,0,1-.35-.19.47.47,0,0,1,0-.1.42.42,0,1,1,.63.22A.39.39,0,0,1,12.61,148.3Zm174.76-.16-.13,0a.41.41,0,0,1-.26-.53.37.37,0,0,1,.05-.11.42.42,0,0,1,.58-.11.4.4,0,0,1,.13.54A.41.41,0,0,1,187.37,148.14ZM9.61,142.37a.41.41,0,0,1-.39-.25.43.43,0,0,1,.15-.52.41.41,0,0,1,.58.12l.05.1a.41.41,0,0,1-.26.53Zm180.76-.18a.39.39,0,0,1-.23-.07.43.43,0,0,1-.15-.52.42.42,0,0,1,.78.3.47.47,0,0,1-.05.1A.4.4,0,0,1,190.37,142.19ZM7,136.26a.42.42,0,0,1-.38-.25.42.42,0,0,1,.14-.53.43.43,0,0,1,.58.12.37.37,0,0,1,.05.11.4.4,0,0,1-.26.52A.31.31,0,0,1,7,136.26Zm186-.21a.39.39,0,0,1-.18,0,.42.42,0,0,1-.19-.56.4.4,0,0,1,.52-.24.43.43,0,0,1,.25.55.11.11,0,0,1,0,.06A.42.42,0,0,1,193,136.05ZM4.82,130a.42.42,0,0,1-.39-.28.06.06,0,0,1,0,0,.42.42,0,0,1,.3-.51.42.42,0,0,1,.51.31.42.42,0,0,1-.29.5Zm190.32-.21-.1,0a.41.41,0,0,1-.31-.5l.81.2A.41.41,0,0,1,195.14,129.76Zm.4-.3ZM3.07,123.56a.43.43,0,0,1-.4-.29.68.68,0,0,1,0-.14.41.41,0,0,1,.41-.42.43.43,0,0,1,.42.34.42.42,0,0,1-.28.48Zm193.81-.23a.41.41,0,0,1-.42-.41.32.32,0,0,1,0-.14.41.41,0,0,1,.8.21A.4.4,0,0,1,196.88,123.33ZM1.75,117a.43.43,0,0,1-.4-.29.68.68,0,0,1,0-.14.41.41,0,0,1,.82-.08.4.4,0,0,1-.27.48Zm196.44-.23a.42.42,0,0,1-.42-.42.78.78,0,0,1,0-.14.43.43,0,0,1,.53-.26.42.42,0,0,1,.28.48A.43.43,0,0,1,198.19,116.81ZM.86,110.44a.42.42,0,0,1-.1-.83.42.42,0,0,1,.51.3.45.45,0,0,1,0,.11A.42.42,0,0,1,.86,110.44Zm198.19-.23H199a.42.42,0,0,1-.31-.45.42.42,0,0,1,.42-.38h0a.42.42,0,0,1,0,.84ZM.42,103.8a.41.41,0,0,1-.42-.41H0A.42.42,0,0,1,.42,103a.42.42,0,0,1,0,.84Zm199.06-.22a.42.42,0,0,1,0-.84.41.41,0,0,1,.42.41h0A.42.42,0,0,1,199.48,103.58ZM.42,97.15A.42.42,0,0,1,0,96.73H0a.41.41,0,0,1,.42-.41.41.41,0,0,1,.41.41A.42.42,0,0,1,.42,97.15Zm199.05-.23a.42.42,0,0,1-.42-.42.42.42,0,0,1,.84,0h0A.42.42,0,0,1,199.47,96.92ZM.85,90.51h0a.42.42,0,0,1-.42-.42.52.52,0,0,1,0-.11.42.42,0,0,1,.5-.3.42.42,0,0,1,.32.45A.42.42,0,0,1,.85,90.51ZM199,90.28a.4.4,0,0,1-.4-.31.42.42,0,1,1,.5.3ZM1.72,83.92l-.13,0a.4.4,0,0,1-.27-.47.41.41,0,0,1,.82.07.59.59,0,0,1,0,.14A.42.42,0,0,1,1.72,83.92Zm196.41-.23a.42.42,0,1,1,.4-.56.78.78,0,0,1,0,.14A.42.42,0,0,1,198.13,83.69ZM3,77.39a.3.3,0,0,1-.13,0,.42.42,0,0,1-.28-.48A.43.43,0,0,1,3,76.55a.42.42,0,0,1,.42.42.68.68,0,0,1,0,.14A.43.43,0,0,1,3,77.39Zm193.76-.22a.42.42,0,0,1-.41-.34.42.42,0,0,1,.81-.21.59.59,0,0,1,0,.14A.41.41,0,0,1,196.8,77.17ZM195,70.76a.43.43,0,0,1-.41-.32.42.42,0,0,1,.29-.5.4.4,0,0,1,.51.26.06.06,0,0,1,0,0,.42.42,0,0,1-.3.51ZM5.2,70.65l-.81-.2a.41.41,0,0,1,.5-.31A.43.43,0,0,1,5.2,70.65ZM7,64.7a.36.36,0,0,1-.14,0,.44.44,0,0,1-.26-.55l0-.06a.42.42,0,0,1,.56-.19.42.42,0,0,1,.19.56A.39.39,0,0,1,7,64.7Zm185.88-.22a.4.4,0,0,1-.12-.79.38.38,0,0,1,.5.21.43.43,0,0,1-.38.58ZM9.57,58.55a.28.28,0,0,1-.13,0A.42.42,0,0,1,9.17,58a.37.37,0,0,1,.05-.11.43.43,0,0,1,.58-.12.41.41,0,0,1,.15.53A.43.43,0,0,1,9.57,58.55Zm180.67-.19a.44.44,0,0,1-.35-.18.37.37,0,0,1,0-.11.43.43,0,0,1,.27-.53.43.43,0,0,1,.51.23.4.4,0,0,1-.15.52A.39.39,0,0,1,190.24,58.36ZM12.57,52.6a.39.39,0,0,1-.23-.07.41.41,0,0,1-.13-.55.42.42,0,0,1,.76.33l-.05.11A.41.41,0,0,1,12.57,52.6Zm174.66-.16a.45.45,0,0,1-.37-.22.42.42,0,0,1,.72-.44.37.37,0,0,1,0,.11.43.43,0,0,1-.27.53ZM16,46.87a.39.39,0,0,1-.23-.07.43.43,0,0,1-.14-.55.44.44,0,0,1,.5-.2.43.43,0,0,1,.27.53.37.37,0,0,1-.05.11A.42.42,0,0,1,16,46.87Zm167.86-.14a.42.42,0,0,1-.37-.23.42.42,0,0,1,.71-.43l.06.11a.42.42,0,0,1-.27.52A.31.31,0,0,1,183.83,46.73ZM19.73,41.42a.41.41,0,0,1-.25-.08.44.44,0,0,1-.09-.6l.06-.07a.41.41,0,0,1,.59,0,.42.42,0,0,1,0,.59A.37.37,0,0,1,19.73,41.42Zm160.33-.17a.42.42,0,0,1-.3-.12l-.06-.07a.42.42,0,1,1,.65.07A.42.42,0,0,1,180.06,41.25ZM23.86,36.16a.39.39,0,0,1-.23-.07.42.42,0,0,1-.11-.58.46.46,0,0,1,.12-.12.41.41,0,0,1,.58.12.42.42,0,0,1,0,.51A.43.43,0,0,1,23.86,36.16ZM175.92,36a.48.48,0,0,1-.23-.07.5.5,0,0,1-.12-.13.41.41,0,0,1,.12-.57.4.4,0,0,1,.54.07.41.41,0,0,1,0,.51A.42.42,0,0,1,175.92,36ZM28.33,31.22a.44.44,0,0,1-.3-.12.42.42,0,0,1,0-.59h0a.41.41,0,0,1,.59,0,.42.42,0,0,1-.3.71Zm143.12-.11a.42.42,0,0,1-.29-.12.43.43,0,0,1,0-.6.41.41,0,0,1,.58,0h0a.42.42,0,0,1-.3.71ZM33.11,26.6a.42.42,0,0,1-.35-.19.43.43,0,0,1,.07-.55.43.43,0,0,1,.52,0,.4.4,0,0,1,.11.57.5.5,0,0,1-.12.13A.48.48,0,0,1,33.11,26.6Zm133.56-.11a.39.39,0,0,1-.28-.11.43.43,0,0,1-.08-.55.42.42,0,0,1,.58-.11.34.34,0,0,1,.12.12.42.42,0,0,1-.11.58A.48.48,0,0,1,166.67,26.49ZM38.18,22.3a.42.42,0,0,1-.34-.19.42.42,0,0,1,.64-.53.41.41,0,0,1,0,.59.22.22,0,0,1-.07.06A.48.48,0,0,1,38.18,22.3Zm123.4-.11a.4.4,0,0,1-.29-.12.37.37,0,0,1-.09-.55.45.45,0,0,1,.61-.1l.07.06a.42.42,0,0,1,0,.59A.44.44,0,0,1,161.58,22.19Zm-118-3.85a.41.41,0,0,1-.34-.18.42.42,0,0,1,.09-.57.43.43,0,0,1,.55,0,.4.4,0,0,1,0,.59.18.18,0,0,1-.07.05A.39.39,0,0,1,43.53,18.34Zm112.69-.09a.37.37,0,0,1-.29-.13.37.37,0,0,1-.09-.55.45.45,0,0,1,.61-.09l.07.05a.42.42,0,0,1,0,.59A.41.41,0,0,1,156.22,18.25ZM49.13,14.76A.42.42,0,0,1,48.9,14l.11-.05a.41.41,0,0,1,.52.26.41.41,0,0,1-.2.5A.36.36,0,0,1,49.13,14.76Zm101.48-.09a.28.28,0,0,1-.13,0l-.11-.05a.43.43,0,0,1-.12-.58.42.42,0,0,1,.55-.13.41.41,0,0,1,.2.5A.42.42,0,0,1,150.61,14.67ZM55,11.55a.41.41,0,0,1-.35-.18.42.42,0,0,1,.11-.58l.11,0a.41.41,0,0,1,.53.26.42.42,0,0,1-.2.5A.37.37,0,0,1,55,11.55Zm89.81-.08-.13,0-.11-.06a.43.43,0,0,1-.12-.58.42.42,0,0,1,.55-.13.42.42,0,0,1-.19.79ZM61,8.75a.42.42,0,0,1-.17-.8.41.41,0,0,1,.52.14.41.41,0,0,1-.11.58l-.11.06Zm77.74-.08a.53.53,0,0,1-.17,0,.42.42,0,0,1,.3-.78l.11.05a.42.42,0,0,1-.24.77ZM67.18,6.35a.42.42,0,0,1-.4-.3A.41.41,0,0,1,67,5.54h0a.42.42,0,0,1,.51.3.43.43,0,0,1-.3.51Zm65.32-.07-.1,0,.21-.81a.42.42,0,0,1-.11.83Zm-59-1.91a.42.42,0,0,1-.14-.81h0a.41.41,0,0,1,.5.31.41.41,0,0,1-.3.5Zm52.61,0-.1,0,.2-.81a.42.42,0,0,1-.1.83ZM80,2.83a.43.43,0,0,1-.4-.28A.42.42,0,0,1,79.87,2a.43.43,0,0,1,.56.39.41.41,0,0,1-.35.41Zm39.67,0a.35.35,0,0,1-.14,0,.42.42,0,1,1,.56-.39A.42.42,0,0,1,119.67,2.79ZM86.56,1.73a.42.42,0,0,1,0-.84.42.42,0,0,1,.45.32.41.41,0,0,1-.3.5Zm26.55,0h0a.42.42,0,0,1-.38-.41.44.44,0,0,1,.53-.41.42.42,0,0,1,.3.51A.41.41,0,0,1,113.11,1.7ZM93.18,1.06a.42.42,0,0,1-.42-.42.42.42,0,0,1,.38-.41.41.41,0,0,1,.45.31.42.42,0,0,1-.3.51Zm13.31,0h0a.42.42,0,0,1-.38-.41.44.44,0,0,1,.53-.41.42.42,0,0,1,.3.51A.4.4,0,0,1,106.49,1ZM99.84.83a.42.42,0,1,1,0-.83h0a.42.42,0,0,1,.42.42A.41.41,0,0,1,99.84.83ZM99.42,192a.52.52,0,0,1,.53-.51h.22a.5.5,0,0,1,.52.51h0a.53.53,0,0,1-.52.53h0l-.11,0h0l-.11,0h0A.53.53,0,0,1,99.42,192Zm-6.15.29h0a.53.53,0,0,1-.48-.56h0a.52.52,0,0,1,.56-.48h0a.51.51,0,0,1,.48.55h0a.53.53,0,0,1-.53.49h0Zm13-.5a.53.53,0,0,1,.49-.56h0a.54.54,0,0,1,.56.48h0a.53.53,0,0,1-.49.56h0A.53.53,0,0,1,106.28,191.8Zm-19.64-.21a.52.52,0,0,1-.45-.6h0a.52.52,0,0,1,.59-.44h0a.52.52,0,0,1,.44.6h0a.52.52,0,0,1-.51.44h-.07Zm26.25-.48a.52.52,0,0,1,.44-.59h0a.52.52,0,0,1,.59.44h0a.52.52,0,0,1-.43.59h-.08A.52.52,0,0,1,112.89,191.11Zm-32.83-.72a.51.51,0,0,1-.4-.61h0a.52.52,0,0,1,.62-.4h0a.5.5,0,0,1,.4.61h0a.52.52,0,0,1-.5.41h-.12Zm39.37-.44a.52.52,0,0,1,.4-.62h0a.52.52,0,0,1,.62.4h0a.51.51,0,0,1-.4.61h0l-.11,0h0A.52.52,0,0,1,119.43,190Zm-45.84-1.22h0a.52.52,0,0,1-.35-.64h0a.53.53,0,0,1,.65-.35h0a.51.51,0,0,1,.35.64h0a.52.52,0,0,1-.5.38h0Zm52.27-.41a.54.54,0,0,1,.35-.66h0a.52.52,0,0,1,.65.36h0a.52.52,0,0,1-.35.65h-.15A.53.53,0,0,1,125.86,188.32Zm-58.6-1.72h0a.51.51,0,0,1-.3-.67h0a.51.51,0,0,1,.67-.31h0a.52.52,0,0,1,.3.68h0a.51.51,0,0,1-.48.33h0A.58.58,0,0,1,67.26,186.6Zm64.9-.38a.53.53,0,0,1,.31-.68h0a.53.53,0,0,1,.67.3h0a.52.52,0,0,1-.3.68h0a.38.38,0,0,1-.18,0h0A.54.54,0,0,1,132.16,186.22ZM61.1,184h0a.52.52,0,0,1-.26-.69h0a.51.51,0,0,1,.69-.25h0a.51.51,0,0,1,.26.69h0a.55.55,0,0,1-.48.3h0A.5.5,0,0,1,61.1,184Zm77.2-.34a.52.52,0,0,1,.25-.7h0a.53.53,0,0,1,.69.26h0a.52.52,0,0,1-.25.69h0a.59.59,0,0,1-.22.05h0A.5.5,0,0,1,138.3,183.67ZM55.14,181h0a.52.52,0,0,1-.2-.71h0a.52.52,0,0,1,.71-.2h0a.53.53,0,0,1,.21.71h0a.54.54,0,0,1-.46.27h0A.52.52,0,0,1,55.14,181Zm89.09-.29a.52.52,0,0,1,.2-.72h0a.52.52,0,0,1,.7.21h0a.51.51,0,0,1-.2.71h0a.54.54,0,0,1-.25.06h0A.51.51,0,0,1,144.23,180.69Zm-94.82-3.16a.53.53,0,0,1-.16-.72h0a.52.52,0,0,1,.73-.15h0a.51.51,0,0,1,.15.71h0a.52.52,0,0,1-.43.25h0A.58.58,0,0,1,49.41,177.53Zm100.51-.26a.51.51,0,0,1,.15-.71h0a.51.51,0,0,1,.72.15h0a.51.51,0,0,1-.15.71h0a.51.51,0,0,1-.28.09h0A.5.5,0,0,1,149.92,177.27ZM44,173.68a.54.54,0,0,1-.1-.74h0a.53.53,0,0,1,.73-.1h0a.52.52,0,0,1,.1.73h0a.53.53,0,0,1-.42.2h0A.5.5,0,0,1,44,173.68Zm111.41-.21a.53.53,0,0,1,.1-.74h0a.53.53,0,0,1,.73.1h0a.54.54,0,0,1-.1.74h0a.65.65,0,0,1-.31.11h0A.54.54,0,0,1,155.36,173.47Zm-116.58-4a.51.51,0,0,1,0-.74h0a.51.51,0,0,1,.73,0h0a.52.52,0,0,1,.05.73h0a.53.53,0,0,1-.39.18h0A.51.51,0,0,1,38.78,169.44Zm121.73-.16a.52.52,0,0,1,.05-.74h0a.52.52,0,0,1,.73,0h0a.53.53,0,0,1,0,.74h0a.51.51,0,0,1-.35.13h0A.56.56,0,0,1,160.51,169.28ZM33.93,164.85h0a.53.53,0,0,1,0-.75h0a.52.52,0,0,1,.73,0h0a.53.53,0,0,1,0,.74h0a.53.53,0,0,1-.37.15h0A.53.53,0,0,1,33.93,164.85Zm131.42-.13a.52.52,0,0,1,0-.73h0a.52.52,0,0,1,.74,0h0a.51.51,0,0,1,0,.73h0a.48.48,0,0,1-.36.16h0A.51.51,0,0,1,165.35,164.72Zm.73,0h0Zm-136.66-4.8h0a.52.52,0,0,1,.06-.73h0a.51.51,0,0,1,.73.06h0a.51.51,0,0,1-.05.73h0a.5.5,0,0,1-.34.13h0A.51.51,0,0,1,29.42,159.91Zm140.43-.07a.53.53,0,0,1-.06-.74h0a.5.5,0,0,1,.73,0h0a.51.51,0,0,1,.07.73h0a.51.51,0,0,1-.39.18h0A.54.54,0,0,1,169.85,159.84ZM25.28,154.67a.53.53,0,0,1,.11-.72h0a.54.54,0,0,1,.74.11h0a.55.55,0,0,1-.12.74h0a.5.5,0,0,1-.31.1h0A.52.52,0,0,1,25.28,154.67Zm148.72,0a.52.52,0,0,1-.12-.73h0a.51.51,0,0,1,.72-.11h0a.52.52,0,0,1,.12.73h0a.52.52,0,0,1-.42.22h0A.47.47,0,0,1,174,154.64ZM21.53,149.15h0a.53.53,0,0,1,.16-.72h0a.52.52,0,0,1,.72.17h0a.51.51,0,0,1-.16.71h0a.49.49,0,0,1-.28.09h0A.51.51,0,0,1,21.53,149.15Zm156.21,0a.52.52,0,0,1-.16-.71h0a.53.53,0,0,1,.72-.17h0a.52.52,0,0,1,.16.72h0a.54.54,0,0,1-.45.25h0A.54.54,0,0,1,177.74,149.15ZM18.19,143.38a.52.52,0,0,1,.21-.71h0a.53.53,0,0,1,.71.22h0a.52.52,0,0,1-.22.7h0a.53.53,0,0,1-.24.06h0A.51.51,0,0,1,18.19,143.38Zm162.91,0a.53.53,0,0,1-.22-.71h0a.52.52,0,0,1,.7-.22h0a.53.53,0,0,1,.22.71h0a.52.52,0,0,1-.46.28h0A.65.65,0,0,1,181.1,143.42Zm-165.83-6a.51.51,0,0,1,.26-.68h0a.52.52,0,0,1,.69.26h0a.53.53,0,0,1-.27.69h0a.5.5,0,0,1-.21.05h0A.51.51,0,0,1,15.27,137.37Zm168.75.07a.52.52,0,0,1-.27-.68h0a.54.54,0,0,1,.7-.27h0a.53.53,0,0,1,.26.69h0a.5.5,0,0,1-.48.31h0A.41.41,0,0,1,184,137.44ZM12.79,131.18a.53.53,0,0,1,.31-.67h0a.51.51,0,0,1,.67.32h0a.52.52,0,0,1-.31.66h0a.48.48,0,0,1-.18,0h0A.53.53,0,0,1,12.79,131.18Zm173.72.1a.54.54,0,0,1-.32-.67h0a.54.54,0,0,1,.67-.32h0a.51.51,0,0,1,.31.67h0a.5.5,0,0,1-.49.35h0A.51.51,0,0,1,186.51,131.28ZM10.78,124.81a.5.5,0,0,1,.36-.64h0a.52.52,0,0,1,.64.36h0a.55.55,0,0,1-.36.65h-.14A.5.5,0,0,1,10.78,124.81Zm177.76.14a.5.5,0,0,1-.36-.63h0a.51.51,0,0,1,.64-.37h0a.52.52,0,0,1,.36.64h0a.53.53,0,0,1-.5.39h0ZM9.22,118.31a.53.53,0,0,1,.41-.61h0a.51.51,0,0,1,.61.41h0a.51.51,0,0,1-.41.61h-.1A.52.52,0,0,1,9.22,118.31Zm180.88.19a.52.52,0,0,1-.4-.62h0a.52.52,0,0,1,.6-.42h0a.52.52,0,0,1,.41.62h0a.51.51,0,0,1-.51.42h-.1ZM8.15,111.72a.51.51,0,0,1,.45-.58h0a.52.52,0,0,1,.58.45h0a.51.51,0,0,1-.45.58H8.66A.52.52,0,0,1,8.15,111.72Zm183,.23a.53.53,0,0,1-.46-.59h0a.53.53,0,0,1,.58-.45h0a.51.51,0,0,1,.45.59h0a.51.51,0,0,1-.51.45h-.06ZM7.55,105.07h0a.52.52,0,0,1,.49-.55H8a.53.53,0,0,1,.55.49h0a.52.52,0,0,1-.49.55h0A.52.52,0,0,1,7.55,105.07Zm184.27.27a.53.53,0,0,1-.51-.55h0a.54.54,0,0,1,.56-.5h0a.53.53,0,0,1,.49.55h0a.53.53,0,0,1-.52.5h0ZM7.94,98.92a.53.53,0,0,1-.52-.54h0a.51.51,0,0,1,.53-.5H8a.51.51,0,0,1,.51.53h0a.51.51,0,0,1-.52.51Zm183.48-.74h0a.52.52,0,0,1,.51-.53h0a.53.53,0,0,1,.54.51h0a.53.53,0,0,1-.51.53h0A.53.53,0,0,1,191.42,98.18ZM8.25,92.28a.52.52,0,0,1-.48-.56h0a.52.52,0,0,1,.57-.47h0a.51.51,0,0,1,.47.57h0a.51.51,0,0,1-.52.47h0Zm182.81-.69a.53.53,0,0,1,.47-.57h0a.53.53,0,0,1,.57.47h0a.53.53,0,0,1-.48.57h0A.52.52,0,0,1,191.06,91.59ZM9,85.69a.51.51,0,0,1-.42-.6h0a.51.51,0,0,1,.59-.43h0a.52.52,0,0,1,.43.6h0a.52.52,0,0,1-.51.44H9ZM190.22,85a.53.53,0,0,1,.44-.6h0a.52.52,0,0,1,.6.43h0a.51.51,0,0,1-.44.59h-.08A.53.53,0,0,1,190.22,85ZM10.29,79.17a.52.52,0,0,1-.38-.62h0a.52.52,0,0,1,.62-.4h0a.53.53,0,0,1,.4.63h0a.53.53,0,0,1-.51.4h-.13Zm178.63-.61h0a.51.51,0,0,1,.39-.62h0a.52.52,0,0,1,.63.38h0a.53.53,0,0,1-.38.63h-.13A.51.51,0,0,1,188.92,78.56ZM12,72.76a.52.52,0,0,1-.34-.66h0a.54.54,0,0,1,.66-.34h0a.54.54,0,0,1,.34.66h0a.54.54,0,0,1-.5.36h0Zm175.11-.56h0a.53.53,0,0,1,.34-.65h0a.51.51,0,0,1,.65.33h0a.51.51,0,0,1-.33.66h0l-.16,0h0A.52.52,0,0,1,187.14,72.2ZM14.22,66.48a.53.53,0,0,1-.29-.68h0a.53.53,0,0,1,.69-.29h0a.52.52,0,0,1,.28.67h0a.52.52,0,0,1-.48.34h0A.79.79,0,0,1,14.22,66.48ZM184.91,66a.51.51,0,0,1,.29-.67h0a.52.52,0,0,1,.68.29h0a.53.53,0,0,1-.29.68h0a.72.72,0,0,1-.19,0h0A.53.53,0,0,1,184.91,66Zm-168-5.6a.52.52,0,0,1-.24-.7h0a.53.53,0,0,1,.7-.24h0a.51.51,0,0,1,.24.69h0a.51.51,0,0,1-.47.3h0A.46.46,0,0,1,16.87,60.38ZM182.23,60h0a.53.53,0,0,1,.25-.7h0a.53.53,0,0,1,.7.24h0a.54.54,0,0,1-.24.7h0a.68.68,0,0,1-.23,0h0A.55.55,0,0,1,182.23,60ZM20,54.49a.53.53,0,0,1-.19-.72h0a.51.51,0,0,1,.7-.18h0a.52.52,0,0,1,.2.71h0a.53.53,0,0,1-.45.26h0A.53.53,0,0,1,20,54.49Zm159.17-.36a.52.52,0,0,1,.19-.71h0a.51.51,0,0,1,.71.19h0a.51.51,0,0,1-.18.71h0a.54.54,0,0,1-.27.07h0A.52.52,0,0,1,179.13,54.13ZM23.45,48.84a.53.53,0,0,1-.14-.73h0A.53.53,0,0,1,24,48h0a.53.53,0,0,1,.13.73h0a.5.5,0,0,1-.42.22h0A.54.54,0,0,1,23.45,48.84Zm152.16-.29h0a.54.54,0,0,1,.14-.73h0a.51.51,0,0,1,.72.14h0a.52.52,0,0,1-.13.72h0a.46.46,0,0,1-.3.09h0A.55.55,0,0,1,175.61,48.55ZM27.34,43.46a.53.53,0,0,1-.08-.74h0a.53.53,0,0,1,.73-.09h0a.53.53,0,0,1,.09.74h0a.53.53,0,0,1-.41.2h0A.59.59,0,0,1,27.34,43.46Zm144.36-.24a.51.51,0,0,1,.08-.72h0a.52.52,0,0,1,.74.08h0a.54.54,0,0,1-.08.74h0a.56.56,0,0,1-.33.1h0A.5.5,0,0,1,171.7,43.22ZM31.62,38.37a.53.53,0,0,1,0-.74h0a.53.53,0,0,1,.75,0h0a.53.53,0,0,1,0,.73h0a.52.52,0,0,1-.38.17h0A.51.51,0,0,1,31.62,38.37Zm135.8-.17h0a.53.53,0,0,1,0-.74h0a.54.54,0,0,1,.75,0h0a.51.51,0,0,1,0,.73h0a.52.52,0,0,1-.35.14h0A.48.48,0,0,1,167.42,38.2ZM36.25,33.6a.52.52,0,0,1,0-.74h0a.52.52,0,0,1,.73,0h0a.53.53,0,0,1,0,.75h0a.54.54,0,0,1-.36.14h0A.49.49,0,0,1,36.25,33.6Zm126.53-.11a.51.51,0,0,1,0-.73h0a.53.53,0,0,1,.74,0h0a.54.54,0,0,1,0,.75h0a.55.55,0,0,1-.38.15h0A.5.5,0,0,1,162.78,33.49ZM41.2,29.18a.52.52,0,0,1,.07-.74h0a.53.53,0,0,1,.74.07h0a.51.51,0,0,1-.08.73h0a.47.47,0,0,1-.33.12h0A.52.52,0,0,1,41.2,29.18Zm116.62,0h0a.51.51,0,0,1-.07-.73h0a.51.51,0,0,1,.73-.07h0a.51.51,0,0,1,.08.73h0a.5.5,0,0,1-.41.19h0A.59.59,0,0,1,157.82,29.14Zm-111.36-4a.51.51,0,0,1,.12-.72h0a.53.53,0,0,1,.73.12h0a.53.53,0,0,1-.13.74h0a.62.62,0,0,1-.3.09h0A.51.51,0,0,1,46.46,25.11Zm106.09,0h0a.52.52,0,0,1-.13-.73h0a.53.53,0,0,1,.73-.12h0a.51.51,0,0,1,.13.72h0a.56.56,0,0,1-.44.22h0A.58.58,0,0,1,152.55,25.14ZM52,21.45a.52.52,0,0,1,.18-.72h0a.51.51,0,0,1,.71.17h0a.51.51,0,0,1-.17.71h0a.56.56,0,0,1-.27.08h0A.52.52,0,0,1,52,21.45Zm95,.08h0a.53.53,0,0,1-.17-.72h0a.51.51,0,0,1,.71-.17h0a.52.52,0,0,1,.18.72h0a.53.53,0,0,1-.45.26h0A.53.53,0,0,1,147,21.53ZM57.77,18.19a.53.53,0,0,1,.24-.7h0a.52.52,0,0,1,.7.23h0a.54.54,0,0,1-.23.7h0a.5.5,0,0,1-.24.06h0A.53.53,0,0,1,57.77,18.19Zm83.47.14h0a.52.52,0,0,1-.23-.7h0a.52.52,0,0,1,.69-.23h0a.53.53,0,0,1,.24.7h0a.51.51,0,0,1-.47.29h0A.49.49,0,0,1,141.24,18.33Zm-77.47-3a.53.53,0,0,1,.29-.68h0a.51.51,0,0,1,.68.27h0a.53.53,0,0,1-.28.69h0a.71.71,0,0,1-.2,0h0A.56.56,0,0,1,63.77,15.36Zm71.47.2a.52.52,0,0,1-.29-.68h0a.53.53,0,0,1,.69-.28h0a.52.52,0,0,1,.28.68h0a.52.52,0,0,1-.48.32h0A.45.45,0,0,1,135.24,15.56ZM70,13a.52.52,0,0,1,.32-.66h0a.52.52,0,0,1,.66.32h0a.52.52,0,0,1-.32.66h0a.47.47,0,0,1-.17,0h0A.52.52,0,0,1,70,13Zm59.08.25h0a.53.53,0,0,1-.33-.66h0a.52.52,0,0,1,.66-.33h0a.53.53,0,0,1,.33.66h0a.53.53,0,0,1-.5.36h0A.45.45,0,0,1,129.05,13.23ZM76.33,11a.51.51,0,0,1,.37-.63h0a.52.52,0,0,1,.63.37h0a.53.53,0,0,1-.37.64h-.13A.51.51,0,0,1,76.33,11Zm46.39.32a.53.53,0,0,1-.39-.64h0a.54.54,0,0,1,.65-.37h0a.53.53,0,0,1,.37.63h0a.52.52,0,0,1-.51.39h-.12ZM82.8,9.58A.53.53,0,0,1,83.22,9h0a.52.52,0,0,1,.61.42h0a.53.53,0,0,1-.42.61h-.1A.52.52,0,0,1,82.8,9.58Zm33.46.38a.52.52,0,0,1-.42-.61h0a.52.52,0,0,1,.61-.42h0a.52.52,0,0,1,.42.61h0a.52.52,0,0,1-.51.42h-.1ZM89.36,8.59A.52.52,0,0,1,89.83,8h0a.53.53,0,0,1,.58.46h0a.54.54,0,0,1-.47.58h0A.54.54,0,0,1,89.36,8.59ZM109.72,9h0a.52.52,0,0,1-.46-.58h0a.51.51,0,0,1,.57-.45h0a.51.51,0,0,1,.47.56h0a.54.54,0,0,1-.52.48h-.06ZM96,8.07a.51.51,0,0,1,.5-.54h0A.53.53,0,0,1,97,8h0a.54.54,0,0,1-.51.54h0A.53.53,0,0,1,96,8.07Zm7.15.49a.52.52,0,0,1-.51-.54h0a.53.53,0,0,1,.54-.5h0a.52.52,0,0,1,.5.54h0a.52.52,0,0,1-.52.5h0Zm-3.09,176.5H100a.63.63,0,0,1-.63-.62h0a.62.62,0,0,1,.63-.62h.21a.62.62,0,0,1,.62.62h0a.63.63,0,0,1-.62.63h-.11Zm-6.78-.25h0a.63.63,0,0,1-.58-.68h0a.62.62,0,0,1,.67-.57h0a.63.63,0,0,1,.58.67h0a.63.63,0,0,1-.62.58h-.06Zm12.89-.58a.61.61,0,0,1,.56-.68h0a.62.62,0,0,1,.68.58h0a.62.62,0,0,1-.58.67h0A.62.62,0,0,1,106.16,184.23ZM86.64,184h0a.63.63,0,0,1-.52-.72h0a.63.63,0,0,1,.72-.52h0a.63.63,0,0,1,.52.72h0a.63.63,0,0,1-.62.53h-.1Zm26.1-.56a.62.62,0,0,1,.52-.71h0a.63.63,0,0,1,.72.52h0a.63.63,0,0,1-.52.72h-.1A.63.63,0,0,1,112.74,183.48Zm-32.65-.74h0a.64.64,0,0,1-.47-.75h0a.64.64,0,0,1,.76-.46h0a.61.61,0,0,1,.46.75h0a.62.62,0,0,1-.61.48h0A.36.36,0,0,1,80.09,182.74Zm39.16-.51a.63.63,0,0,1,.46-.75h0a.63.63,0,0,1,.76.46h0a.62.62,0,0,1-.47.75h-.14A.63.63,0,0,1,119.25,182.23Zm-45.58-1.29a.64.64,0,0,1-.41-.8h0a.64.64,0,0,1,.79-.4h0a.63.63,0,0,1,.4.79h0a.61.61,0,0,1-.59.43h0Zm52-.47a.63.63,0,0,1,.4-.79h0a.63.63,0,0,1,.79.4h0a.62.62,0,0,1-.4.79h0a.44.44,0,0,1-.19,0h0A.62.62,0,0,1,125.64,180.47Zm-58.25-1.84h0a.62.62,0,0,1-.33-.82h0a.6.6,0,0,1,.81-.34h0a.62.62,0,0,1,.34.81h0a.62.62,0,0,1-.58.39h0A1,1,0,0,1,67.39,178.63Zm64.47-.42a.63.63,0,0,1,.35-.82h0a.63.63,0,0,1,.81.33h0a.61.61,0,0,1-.34.82h0a.48.48,0,0,1-.23.05h0A.63.63,0,0,1,131.86,178.21Zm-70.54-2.39h0a.63.63,0,0,1-.27-.84h0a.63.63,0,0,1,.85-.28h0a.64.64,0,0,1,.26.85h0a.61.61,0,0,1-.55.34h0A.59.59,0,0,1,61.32,175.82Zm76.57-.36a.63.63,0,0,1,.28-.84h0a.63.63,0,0,1,.84.27h0a.64.64,0,0,1-.27.85h0a.72.72,0,0,1-.29.06h0A.63.63,0,0,1,137.89,175.46ZM55.5,172.55h0a.62.62,0,0,1-.21-.86h0a.64.64,0,0,1,.86-.21h0a.63.63,0,0,1,.21.87h0a.64.64,0,0,1-.54.29h0A.54.54,0,0,1,55.5,172.55Zm88.19-.3a.63.63,0,0,1,.2-.86h0a.64.64,0,0,1,.87.2h0a.65.65,0,0,1-.21.87h0a.65.65,0,0,1-.32.09h0A.65.65,0,0,1,143.69,172.25ZM50,168.84a.63.63,0,0,1-.15-.88h0a.63.63,0,0,1,.88-.13h0a.61.61,0,0,1,.14.86h0a.6.6,0,0,1-.51.26h0A.57.57,0,0,1,50,168.84Zm99.27-.25a.6.6,0,0,1,.14-.86h0a.61.61,0,0,1,.87.13h0a.62.62,0,0,1-.14.87h0a.62.62,0,0,1-.36.12h0A.62.62,0,0,1,149.22,168.59ZM44.7,164.7a.63.63,0,0,1-.07-.89h0a.63.63,0,0,1,.88-.07h0a.63.63,0,0,1,.07.89h0a.64.64,0,0,1-.48.22h0A.62.62,0,0,1,44.7,164.7Zm109.74-.18a.63.63,0,0,1,.07-.88h0a.61.61,0,0,1,.87.06h0a.63.63,0,0,1-.06.88h0a.59.59,0,0,1-.41.16h0A.66.66,0,0,1,154.44,164.52ZM39.8,160.16a.61.61,0,0,1,0-.88h0a.61.61,0,0,1,.88,0h0a.63.63,0,0,1,0,.88h0a.63.63,0,0,1-.44.19h0A.61.61,0,0,1,39.8,160.16ZM159.33,160a.64.64,0,0,1,0-.89h0a.64.64,0,0,1,.89,0h0a.63.63,0,0,1,0,.89h0a.64.64,0,0,1-.45.18h0A.66.66,0,0,1,159.33,160ZM35.26,155.26h0a.62.62,0,0,1,.07-.88h0a.62.62,0,0,1,.89.07h0a.62.62,0,0,1-.08.87h0a.58.58,0,0,1-.4.16h0A.61.61,0,0,1,35.26,155.26Zm128.6-.06a.63.63,0,0,1-.07-.89h0a.62.62,0,0,1,.88-.06h0a.62.62,0,0,1,.08.88h0a.66.66,0,0,1-.48.22h0A.63.63,0,0,1,163.86,155.2ZM31.12,150a.61.61,0,0,1,.14-.86h0a.61.61,0,0,1,.87.13h0a.62.62,0,0,1-.13.88h0a.64.64,0,0,1-.37.11h0A.59.59,0,0,1,31.12,150ZM168,150a.62.62,0,0,1-.14-.87h0a.63.63,0,0,1,.88-.14h0a.62.62,0,0,1,.13.87h0a.61.61,0,0,1-.5.26h0A.57.57,0,0,1,168,150ZM27.41,144.47a.63.63,0,0,1,.2-.86h0a.63.63,0,0,1,.86.2h0a.62.62,0,0,1-.2.86h0a.57.57,0,0,1-.33.09h0A.62.62,0,0,1,27.41,144.47Zm144.31.05a.63.63,0,0,1-.21-.86h0a.64.64,0,0,1,.87-.21h0a.63.63,0,0,1,.2.86h0a.61.61,0,0,1-.54.3h0A.62.62,0,0,1,171.72,144.52ZM24.14,138.65a.64.64,0,0,1,.27-.85h0a.64.64,0,0,1,.85.28h0a.63.63,0,0,1-.28.84h0a.58.58,0,0,1-.28.07h0A.64.64,0,0,1,24.14,138.65Zm150.86.11a.63.63,0,0,1-.28-.85h0a.63.63,0,0,1,.85-.26h0a.61.61,0,0,1,.27.83h0a.63.63,0,0,1-.56.34h0A.57.57,0,0,1,175,138.76ZM21.34,132.59a.63.63,0,0,1,.34-.82h0a.62.62,0,0,1,.81.34h0a.61.61,0,0,1-.34.82h0a.64.64,0,0,1-.23,0h0A.64.64,0,0,1,21.34,132.59Zm156.47.16a.63.63,0,0,1-.34-.82h0a.63.63,0,0,1,.82-.35h0a.63.63,0,0,1,.34.82h0a.64.64,0,0,1-.58.39h0A.69.69,0,0,1,177.81,132.75ZM19,126.34h0a.63.63,0,0,1,.4-.8h0a.63.63,0,0,1,.79.4h0a.64.64,0,0,1-.41.8h0l-.19,0h0A.63.63,0,0,1,19,126.34Zm161.12.2a.62.62,0,0,1-.41-.79h0a.63.63,0,0,1,.78-.41h0a.63.63,0,0,1,.41.8h0a.62.62,0,0,1-.6.43h0A.57.57,0,0,1,180.15,126.54ZM17.21,119.91a.64.64,0,0,1,.47-.76h0a.63.63,0,0,1,.75.47h0a.63.63,0,0,1-.46.75h0l-.15,0h0A.65.65,0,0,1,17.21,119.91Zm164.76.26a.64.64,0,0,1-.46-.76h0a.63.63,0,0,1,.76-.46h0a.62.62,0,0,1,.46.75h0a.64.64,0,0,1-.61.48H182Zm-166-6.81h0a.62.62,0,0,1,.51-.72h0a.62.62,0,0,1,.72.52h0a.64.64,0,0,1-.52.72h-.09A.62.62,0,0,1,15.92,113.36Zm167.37.31a.61.61,0,0,1-.51-.71h0a.62.62,0,0,1,.71-.53h0a.64.64,0,0,1,.52.72h0a.62.62,0,0,1-.62.52h-.1Zm-168.16-7a.64.64,0,0,1,.58-.67h0a.64.64,0,0,1,.68.58h0a.64.64,0,0,1-.58.67h-.05A.63.63,0,0,1,15.13,106.72Zm169,.37a.62.62,0,0,1-.57-.67h0a.6.6,0,0,1,.67-.57h0a.6.6,0,0,1,.57.66h0a.62.62,0,0,1-.62.58h-.05Zm-169.23-7h0a.62.62,0,0,1,.63-.62h0a.63.63,0,0,1,.63.62h0a.63.63,0,0,1-.63.63h0A.63.63,0,0,1,14.87,100.05Zm168.9-.21a.63.63,0,0,1,.63-.62h0a.62.62,0,0,1,.62.62h0a.63.63,0,0,1-.62.63h0A.63.63,0,0,1,183.77,99.84ZM15.7,94.05a.63.63,0,0,1-.58-.67h0a.64.64,0,0,1,.68-.58h0a.64.64,0,0,1,.58.68h0a.63.63,0,0,1-.63.57H15.7Zm167.8-.78a.64.64,0,0,1,.58-.68h0a.64.64,0,0,1,.67.58h0a.62.62,0,0,1-.57.67h-.05A.63.63,0,0,1,183.5,93.27ZM16.42,87.46a.62.62,0,0,1-.52-.71h0a.63.63,0,0,1,.71-.53h0a.64.64,0,0,1,.53.72h0a.63.63,0,0,1-.62.53h-.1Zm166.31-.73a.61.61,0,0,1,.51-.71h0a.62.62,0,0,1,.72.52h0a.62.62,0,0,1-.52.72h-.1A.62.62,0,0,1,182.73,86.73ZM17.65,81a.63.63,0,0,1-.46-.75h0a.63.63,0,0,1,.76-.47h0a.61.61,0,0,1,.45.75h0a.62.62,0,0,1-.6.48h0A.39.39,0,0,1,17.65,81Zm163.79-.67h0a.63.63,0,0,1,.46-.75h0a.62.62,0,0,1,.75.46h0a.64.64,0,0,1-.47.76h0l-.15,0h0A.64.64,0,0,1,181.44,80.28Zm-162-5.72a.62.62,0,0,1-.4-.8h0a.62.62,0,0,1,.78-.4h0a.62.62,0,0,1,.4.79h0a.62.62,0,0,1-.59.43h0ZM179.65,74h0a.62.62,0,0,1,.4-.79h0a.63.63,0,0,1,.78.4h0a.63.63,0,0,1-.4.8h0a1.08,1.08,0,0,1-.19,0h0A.61.61,0,0,1,179.65,74Zm-158-5.64a.64.64,0,0,1-.34-.82h0a.63.63,0,0,1,.82-.34h0a.63.63,0,0,1,.34.82h0a.62.62,0,0,1-.57.38h0A.53.53,0,0,1,21.64,68.31Zm155.72-.52a.63.63,0,0,1,.33-.82h0a.63.63,0,0,1,.82.34h0a.62.62,0,0,1-.33.82h0a.74.74,0,0,1-.24.05h0A.63.63,0,0,1,177.36,67.79Zm-153-5.53a.62.62,0,0,1-.27-.84h0a.63.63,0,0,1,.84-.27h0a.63.63,0,0,1,.28.84h0a.64.64,0,0,1-.56.34h0A.59.59,0,0,1,24.37,62.26Zm150.22-.43a.64.64,0,0,1,.27-.85h0a.64.64,0,0,1,.85.27h0a.62.62,0,0,1-.28.84h0a.55.55,0,0,1-.28.07h0A.64.64,0,0,1,174.59,61.83Zm-147-5.38a.61.61,0,0,1-.21-.86h0a.64.64,0,0,1,.86-.21h0a.64.64,0,0,1,.21.86h0a.62.62,0,0,1-.54.3h0A.54.54,0,0,1,27.58,56.45Zm143.79-.36a.62.62,0,0,1,.2-.86h0a.62.62,0,0,1,.86.21h0a.63.63,0,0,1-.2.86h0a.66.66,0,0,1-.33.09h0A.58.58,0,0,1,171.37,56.09ZM31.22,50.91a.61.61,0,0,1-.14-.87h0A.64.64,0,0,1,32,49.9h0a.64.64,0,0,1,.13.88h0a.63.63,0,0,1-.51.25h0A.62.62,0,0,1,31.22,50.91Zm136.47-.27h0a.63.63,0,0,1,.15-.88h0a.63.63,0,0,1,.87.13h0a.62.62,0,0,1-.13.88h0a.63.63,0,0,1-.37.12h0A.66.66,0,0,1,167.69,50.64Zm-132.4-5a.63.63,0,0,1-.08-.89h0a.64.64,0,0,1,.89-.07h0a.63.63,0,0,1,.07.88h0a.63.63,0,0,1-.48.23h0A.62.62,0,0,1,35.29,45.68Zm128.32-.2h0a.64.64,0,0,1,.07-.89h0a.64.64,0,0,1,.89.07h0a.63.63,0,0,1-.07.88h0a.65.65,0,0,1-.41.15h0A.64.64,0,0,1,163.61,45.48ZM39.75,40.77a.61.61,0,0,1,0-.88h0a.61.61,0,0,1,.88,0h0a.61.61,0,0,1,0,.88h0a.57.57,0,0,1-.44.18h0A.58.58,0,0,1,39.75,40.77Zm119.39-.12a.64.64,0,0,1,0-.89h0a.63.63,0,0,1,.88,0h0a.61.61,0,0,1,0,.88h0a.59.59,0,0,1-.44.19h0A.62.62,0,0,1,159.14,40.65ZM44.58,36.23a.63.63,0,0,1,.07-.89h0a.63.63,0,0,1,.88.07h0a.63.63,0,0,1-.07.89h0a.63.63,0,0,1-.41.15h0A.63.63,0,0,1,44.58,36.23Zm109.72,0h0a.64.64,0,0,1-.07-.89h0a.63.63,0,0,1,.89-.06h0a.6.6,0,0,1,.07.87h0a.61.61,0,0,1-.47.23h0A.65.65,0,0,1,154.3,36.19ZM49.75,32.08a.62.62,0,0,1,.14-.88h0a.63.63,0,0,1,.87.15h0a.61.61,0,0,1-.14.86h0a.58.58,0,0,1-.37.13h0A.61.61,0,0,1,49.75,32.08Zm99.38,0a.64.64,0,0,1-.14-.88h0a.62.62,0,0,1,.88-.13h0A.63.63,0,0,1,150,32h0a.62.62,0,0,1-.51.26h0A.62.62,0,0,1,149.13,32.12Zm-93.9-3.77a.63.63,0,0,1,.2-.87h0a.64.64,0,0,1,.86.21h0a.63.63,0,0,1-.2.86h0a.57.57,0,0,1-.33.09h0A.62.62,0,0,1,55.23,28.35Zm88.43.11a.61.61,0,0,1-.21-.86h0a.63.63,0,0,1,.86-.21h0a.64.64,0,0,1,.21.86h0a.62.62,0,0,1-.54.3h0A.54.54,0,0,1,143.66,28.46ZM61,25.05a.62.62,0,0,1,.27-.84h0a.62.62,0,0,1,.84.27h0a.63.63,0,0,1-.27.84h0a.58.58,0,0,1-.28.07h0A.62.62,0,0,1,61,25.05Zm76.93.2a.63.63,0,0,1-.27-.85h0a.61.61,0,0,1,.83-.27h0a.62.62,0,0,1,.28.84h0a.62.62,0,0,1-.56.34h0A.71.71,0,0,1,137.91,25.25ZM67,22.23a.63.63,0,0,1,.35-.81h0a.61.61,0,0,1,.81.33h0a.62.62,0,0,1-.33.82h0a.74.74,0,0,1-.24.05h0A.64.64,0,0,1,67,22.23Zm65,.26h0a.63.63,0,0,1-.33-.82h0a.63.63,0,0,1,.82-.33h0a.63.63,0,0,1,.33.82h0a.63.63,0,0,1-.58.39h0A.5.5,0,0,1,131.93,22.49Zm-58.77-2.6a.64.64,0,0,1,.41-.8h0a.63.63,0,0,1,.78.41h0a.62.62,0,0,1-.4.79h0l-.19,0h0A.63.63,0,0,1,73.16,19.89Zm52.59.33a.61.61,0,0,1-.4-.78h0a.61.61,0,0,1,.78-.41h0a.62.62,0,0,1,.4.79h0a.62.62,0,0,1-.59.44h0A.41.41,0,0,1,125.75,20.22ZM79.52,18a.63.63,0,0,1,.47-.75h0a.61.61,0,0,1,.75.46h0a.6.6,0,0,1-.46.75h0a.39.39,0,0,1-.15,0h0A.64.64,0,0,1,79.52,18Zm39.89.42h0a.64.64,0,0,1-.47-.76h0a.65.65,0,0,1,.75-.47h0a.62.62,0,0,1,.47.76h0a.62.62,0,0,1-.61.49h0ZM86,16.69a.62.62,0,0,1,.52-.72h0a.63.63,0,0,1,.71.53h0a.61.61,0,0,1-.51.71h-.1A.63.63,0,0,1,86,16.69Zm26.93.49a.62.62,0,0,1-.52-.71h0a.62.62,0,0,1,.71-.53h0a.64.64,0,0,1,.53.72h0a.62.62,0,0,1-.62.52H113ZM92.59,15.86a.62.62,0,0,1,.58-.67h0a.62.62,0,0,1,.67.57h0a.62.62,0,0,1-.57.68h0A.64.64,0,0,1,92.59,15.86Zm13.83.56h0a.62.62,0,0,1-.58-.66h0a.64.64,0,0,1,.68-.59h0a.64.64,0,0,1,.57.68h0a.62.62,0,0,1-.62.57h0Zm-7.21-.86a.64.64,0,0,1,.63-.64h0a.63.63,0,0,1,.63.63h0a.62.62,0,0,1-.63.62h0A.62.62,0,0,1,99.21,15.56Zm0,161.32a.74.74,0,0,1,.74-.73h.17a.74.74,0,0,1,.74.73h0a.73.73,0,0,1-.73.73H100A.74.74,0,0,1,99.21,176.88Zm-5.93.45a.74.74,0,0,1-.67-.79h0a.74.74,0,0,1,.79-.67h0a.71.71,0,0,1,.66.79h0a.72.72,0,0,1-.72.67h-.06Zm12.73-.68a.74.74,0,0,1,.66-.8h0a.74.74,0,0,1,.79.67h0a.75.75,0,0,1-.66.8h-.07A.73.73,0,0,1,106,176.65Zm-19.35-.17a.73.73,0,0,1-.6-.84h0a.73.73,0,0,1,.84-.6h0a.73.73,0,0,1,.6.84h0a.73.73,0,0,1-.72.61h-.12Zm25.91-.63a.74.74,0,0,1,.59-.85h0a.74.74,0,0,1,.85.6h0a.74.74,0,0,1-.59.85h-.13A.74.74,0,0,1,112.57,175.85Zm-32.44-.79a.72.72,0,0,1-.51-.89h0a.73.73,0,0,1,.88-.53h0a.75.75,0,0,1,.53.9h0a.75.75,0,0,1-.71.54h0A.62.62,0,0,1,80.13,175.06Zm38.91-.57a.73.73,0,0,1,.52-.89h0a.72.72,0,0,1,.89.52h0a.73.73,0,0,1-.51.89h0l-.19,0h0A.74.74,0,0,1,119,174.49Zm-45.28-1.41h0a.72.72,0,0,1-.44-.93h0a.71.71,0,0,1,.93-.44h0a.73.73,0,0,1,.44.93h0a.74.74,0,0,1-.69.48h0A.67.67,0,0,1,73.76,173.08Zm51.61-.5a.73.73,0,0,1,.44-.93h0a.74.74,0,0,1,.94.43h0a.74.74,0,0,1-.44.94h0a.77.77,0,0,1-.25,0h0A.74.74,0,0,1,125.37,172.58Zm-57.8-2a.73.73,0,0,1-.36-1h0a.73.73,0,0,1,1-.36h0a.72.72,0,0,1,.36,1h0a.73.73,0,0,1-.67.42h0A.66.66,0,0,1,67.57,170.55Zm63.94-.42a.74.74,0,0,1,.35-1h0a.75.75,0,0,1,1,.36h0a.73.73,0,0,1-.36,1h0a.7.7,0,0,1-.31.07h0A.72.72,0,0,1,131.51,170.13Zm-69.88-2.62a.74.74,0,0,1-.28-1h0a.74.74,0,0,1,1-.27h0a.72.72,0,0,1,.27,1h0a.71.71,0,0,1-.63.37h0A.67.67,0,0,1,61.63,167.51Zm75.78-.36a.73.73,0,0,1,.28-1h0a.73.73,0,0,1,1,.26h0a.74.74,0,0,1-.26,1h0a.74.74,0,0,1-.37.1h0A.76.76,0,0,1,137.41,167.15ZM56,164h0a.74.74,0,0,1-.19-1h0a.73.73,0,0,1,1-.18h0a.72.72,0,0,1,.19,1h0a.74.74,0,0,1-.61.32h0A.79.79,0,0,1,56,164Zm87.07-.28a.74.74,0,0,1,.19-1h0a.72.72,0,0,1,1,.19h0a.73.73,0,0,1-.18,1h0a.79.79,0,0,1-.42.12h0A.71.71,0,0,1,143,163.68Zm-92.4-3.74h0a.74.74,0,0,1-.1-1h0a.71.71,0,0,1,1-.1h0a.72.72,0,0,1,.1,1h0a.73.73,0,0,1-.55.27h0A.75.75,0,0,1,50.64,159.94Zm97.72-.2a.73.73,0,0,1,.09-1h0a.72.72,0,0,1,1,.09h0a.73.73,0,0,1-.09,1h0a.67.67,0,0,1-.46.17h0A.73.73,0,0,1,148.36,159.74ZM45.67,155.47a.72.72,0,0,1,0-1h0a.72.72,0,0,1,1,0h0a.74.74,0,0,1,0,1h0a.74.74,0,0,1-.53.22h0A.73.73,0,0,1,45.67,155.47Zm107.64-.12a.73.73,0,0,1,0-1h0a.74.74,0,0,1,1,0h0a.74.74,0,0,1,0,1h0a.73.73,0,0,1-.51.21h0A.7.7,0,0,1,153.31,155.35Zm-112.2-4.74h0a.72.72,0,0,1,.07-1h0a.72.72,0,0,1,1,.08h0a.71.71,0,0,1-.08,1h0a.71.71,0,0,1-.47.18h0A.73.73,0,0,1,41.11,150.61Zm116.76,0a.74.74,0,0,1-.08-1h0a.72.72,0,0,1,1-.07h0a.73.73,0,0,1,.08,1h0a.72.72,0,0,1-.55.26h0A.74.74,0,0,1,157.87,150.57ZM37,145.37a.73.73,0,0,1,.16-1h0a.72.72,0,0,1,1,.16h0a.73.73,0,0,1-.16,1h0a.76.76,0,0,1-.43.14h0A.71.71,0,0,1,37,145.37Zm125,0a.73.73,0,0,1-.16-1h0a.72.72,0,0,1,1-.17h0a.74.74,0,0,1,.17,1h0a.72.72,0,0,1-.59.3h0A.77.77,0,0,1,162,145.4ZM33.29,139.79a.74.74,0,0,1,.25-1h0a.74.74,0,0,1,1,.25h0a.72.72,0,0,1-.25,1h0a.66.66,0,0,1-.37.11h0A.77.77,0,0,1,33.29,139.79Zm132.39.11a.73.73,0,0,1-.26-1h0a.73.73,0,0,1,1-.25h0a.73.73,0,0,1,.26,1h0a.77.77,0,0,1-.64.36h0A.74.74,0,0,1,165.68,139.9Zm-135.56-6h0a.73.73,0,0,1,.34-1h0a.71.71,0,0,1,1,.33h0a.73.73,0,0,1-.33,1h0a.78.78,0,0,1-.33.07h0A.73.73,0,0,1,30.12,133.92Zm138.75.19a.74.74,0,0,1-.34-1h0a.71.71,0,0,1,1-.34h0a.73.73,0,0,1,.34,1h0a.74.74,0,0,1-.66.41h0A.7.7,0,0,1,168.87,134.11ZM27.46,127.8a.74.74,0,0,1,.43-1h0a.74.74,0,0,1,.94.43h0a.74.74,0,0,1-.43.94h0a.73.73,0,0,1-.25,0h0A.74.74,0,0,1,27.46,127.8Zm144.09.25a.73.73,0,0,1-.42-.94h0a.74.74,0,0,1,.95-.42h0a.72.72,0,0,1,.42.94h0a.72.72,0,0,1-.68.47h0A.6.6,0,0,1,171.55,128.05ZM25.34,121.47h0a.75.75,0,0,1,.5-.91h0a.73.73,0,0,1,.9.5h0a.75.75,0,0,1-.5.91h0a.76.76,0,0,1-.21,0h0A.73.73,0,0,1,25.34,121.47Zm148.36.33a.75.75,0,0,1-.51-.91h0a.73.73,0,0,1,.91-.5h0a.72.72,0,0,1,.5.9h0a.74.74,0,0,1-.7.53h0ZM23.78,115h0a.72.72,0,0,1,.58-.86h0a.74.74,0,0,1,.86.57h0a.74.74,0,0,1-.58.86h0l-.14,0h0A.74.74,0,0,1,23.78,115Zm151.52.4a.74.74,0,0,1-.59-.85h0a.74.74,0,0,1,.86-.59h0a.74.74,0,0,1,.58.86h0a.74.74,0,0,1-.72.59h-.13Zm-152.52-7h0a.72.72,0,0,1,.64-.8h0a.73.73,0,0,1,.8.65h0a.72.72,0,0,1-.64.81H23.5A.73.73,0,0,1,22.78,108.37Zm153.54.48a.74.74,0,0,1-.65-.81h0a.73.73,0,0,1,.81-.64h0a.71.71,0,0,1,.65.8h0a.73.73,0,0,1-.72.65h-.09Zm-154-7.14a.73.73,0,0,1,.72-.74h0a.72.72,0,0,1,.74.71h0a.73.73,0,0,1-.71.75h0A.74.74,0,0,1,22.35,101.71Zm154.45.54a.73.73,0,0,1-.72-.74h0a.74.74,0,0,1,.75-.72h0a.73.73,0,0,1,.71.75h0a.72.72,0,0,1-.72.72h0ZM23.17,95.81a.72.72,0,0,1-.68-.77h0a.73.73,0,0,1,.77-.68h0a.74.74,0,0,1,.69.77h0a.73.73,0,0,1-.73.67h0ZM175.93,95a.74.74,0,0,1,.69-.77h0a.72.72,0,0,1,.77.68h0a.74.74,0,0,1-.68.78h-.05A.74.74,0,0,1,175.93,95ZM23.81,89.24a.74.74,0,0,1-.61-.84h0a.73.73,0,0,1,.83-.62h0a.75.75,0,0,1,.61.84h0a.72.72,0,0,1-.73.62h-.1Zm151.41-.8a.74.74,0,0,1,.62-.83h0a.73.73,0,0,1,.83.62h0a.72.72,0,0,1-.61.82H176A.74.74,0,0,1,175.22,88.44ZM25,82.73a.72.72,0,0,1-.54-.88h0a.73.73,0,0,1,.88-.54h0a.73.73,0,0,1,.54.88h0a.73.73,0,0,1-.71.56h0ZM174,82a.74.74,0,0,1,.54-.89h0a.74.74,0,0,1,.88.55h0a.72.72,0,0,1-.53.87h0a.57.57,0,0,1-.18,0h0A.75.75,0,0,1,174,82ZM26.77,76.36a.73.73,0,0,1-.46-.93h0a.73.73,0,0,1,.92-.47h0a.74.74,0,0,1,.46.93h0a.73.73,0,0,1-.7.5h0Zm145.37-.64a.74.74,0,0,1,.47-.92h0a.73.73,0,0,1,.92.46h0a.72.72,0,0,1-.46.92h0a.62.62,0,0,1-.23,0h0A.75.75,0,0,1,172.14,75.72ZM29.07,70.15a.73.73,0,0,1-.38-1h0a.74.74,0,0,1,1-.38h0a.73.73,0,0,1,.37,1h0a.73.73,0,0,1-.67.44h0A.72.72,0,0,1,29.07,70.15Zm140.72-.54h0a.73.73,0,0,1,.37-1h0a.74.74,0,0,1,1,.38h0a.73.73,0,0,1-.37,1h0a.77.77,0,0,1-.29.07h0A.74.74,0,0,1,169.79,69.61ZM31.9,64.17a.73.73,0,0,1-.29-1h0a.72.72,0,0,1,1-.29h0a.72.72,0,0,1,.29,1h0a.74.74,0,0,1-.64.39h0A.76.76,0,0,1,31.9,64.17Zm135-.44a.73.73,0,0,1,.3-1h0a.72.72,0,0,1,1,.29h0a.72.72,0,0,1-.29,1h0a.7.7,0,0,1-.35.09h0A.73.73,0,0,1,166.92,63.73ZM35.24,58.46a.73.73,0,0,1-.21-1h0a.72.72,0,0,1,1-.21h0a.72.72,0,0,1,.21,1h0a.75.75,0,0,1-.61.33h0A.72.72,0,0,1,35.24,58.46Zm128.32-.35h0a.72.72,0,0,1,.2-1h0a.73.73,0,0,1,1,.21h0a.73.73,0,0,1-.2,1h0a.7.7,0,0,1-.41.12h0A.73.73,0,0,1,163.56,58.11Zm-124.51-5a.74.74,0,0,1-.11-1h0a.71.71,0,0,1,1-.13h0a.73.73,0,0,1,.13,1h0a.74.74,0,0,1-.58.28h0A.78.78,0,0,1,39.05,53.06Zm120.67-.25h0a.73.73,0,0,1,.11-1h0a.74.74,0,0,1,1,.12h0a.72.72,0,0,1-.12,1h0a.69.69,0,0,1-.45.16h0A.71.71,0,0,1,159.72,52.81ZM43.32,48a.75.75,0,0,1,0-1h0a.73.73,0,0,1,1,0h0a.73.73,0,0,1,0,1h0a.75.75,0,0,1-.53.23h0A.78.78,0,0,1,43.32,48Zm112.11-.15a.75.75,0,0,1,0-1h0a.73.73,0,0,1,1,0h0a.71.71,0,0,1,0,1h0a.71.71,0,0,1-.5.2h0A.76.76,0,0,1,155.43,47.85ZM48,43.32a.73.73,0,0,1,0-1h0a.74.74,0,0,1,1,.05h0a.74.74,0,0,1-.06,1h0a.72.72,0,0,1-.49.19h0A.7.7,0,0,1,48,43.32Zm102.74,0a.73.73,0,0,1-.05-1h0a.73.73,0,0,1,1-.06h0a.73.73,0,0,1,.06,1h0a.72.72,0,0,1-.54.25h0A.78.78,0,0,1,150.74,43.27ZM53.06,39.06a.73.73,0,0,1,.14-1h0a.74.74,0,0,1,1,.14h0a.74.74,0,0,1-.14,1h0a.78.78,0,0,1-.45.15h0A.72.72,0,0,1,53.06,39.06Zm92.63,0a.73.73,0,0,1-.15-1h0a.74.74,0,0,1,1-.14h0a.72.72,0,0,1,.14,1h0a.72.72,0,0,1-.58.28h0A.69.69,0,0,1,145.69,39.11ZM58.47,35.25a.73.73,0,0,1,.22-1h0a.72.72,0,0,1,1,.23h0a.74.74,0,0,1-.22,1h0a.83.83,0,0,1-.4.11h0A.7.7,0,0,1,58.47,35.25Zm81.81.15h0a.74.74,0,0,1-.23-1h0a.73.73,0,0,1,1-.23h0a.74.74,0,0,1,.23,1h0a.74.74,0,0,1-.62.34h0A.79.79,0,0,1,140.28,35.4Zm-76.1-3.48a.72.72,0,0,1,.31-1h0a.73.73,0,0,1,1,.32h0a.73.73,0,0,1-.32,1h0a.78.78,0,0,1-.33.07h0A.72.72,0,0,1,64.18,31.92Zm70.41.24h0a.72.72,0,0,1-.32-1h0a.73.73,0,0,1,1-.32h0a.74.74,0,0,1,.32,1h0a.73.73,0,0,1-.65.39h0A.73.73,0,0,1,134.59,32.16ZM70.16,29.1a.73.73,0,0,1,.39-1h0a.72.72,0,0,1,1,.39h0a.72.72,0,0,1-.39.95h0a.55.55,0,0,1-.28.06h0A.7.7,0,0,1,70.16,29.1Zm58.47.34a.73.73,0,0,1-.4-1h0a.72.72,0,0,1,1-.4h0a.74.74,0,0,1,.4,1h0a.75.75,0,0,1-.68.45h0A.86.86,0,0,1,128.63,29.44ZM76.36,26.8a.72.72,0,0,1,.48-.91h0a.72.72,0,0,1,.91.47h0a.73.73,0,0,1-.48.92h0a.54.54,0,0,1-.22,0h0A.71.71,0,0,1,76.36,26.8Zm46.09.43h0a.74.74,0,0,1-.49-.92h0a.73.73,0,0,1,.91-.48h0a.74.74,0,0,1,.49.92h0a.74.74,0,0,1-.7.51h0A.83.83,0,0,1,122.45,27.23ZM82.73,25.05a.73.73,0,0,1,.56-.87h0a.74.74,0,0,1,.88.56h0a.73.73,0,0,1-.56.86h0a.44.44,0,0,1-.16,0h0A.73.73,0,0,1,82.73,25.05Zm33.38.52h0a.71.71,0,0,1-.55-.86h0a.72.72,0,0,1,.86-.56h0A.72.72,0,0,1,117,25h0a.73.73,0,0,1-.71.58h0ZM89.24,23.85a.73.73,0,0,1,.63-.82h0a.75.75,0,0,1,.82.64h0a.74.74,0,0,1-.63.82H90A.73.73,0,0,1,89.24,23.85Zm20.42.61h0a.73.73,0,0,1-.63-.82h0a.73.73,0,0,1,.82-.63h0a.74.74,0,0,1,.63.82h0a.75.75,0,0,1-.72.64h-.1ZM95.82,23.23a.72.72,0,0,1,.7-.76h0a.72.72,0,0,1,.76.69h0a.74.74,0,0,1-.7.76h0A.73.73,0,0,1,95.82,23.23Zm6.62-.08a.72.72,0,0,1,.75-.7h0a.74.74,0,0,1,.71.76h0a.73.73,0,0,1-.76.69h0A.74.74,0,0,1,102.44,23.15ZM99.11,169.31a.84.84,0,0,1,.84-.83h.16a.83.83,0,0,1,.83.83h0a.84.84,0,0,1-.83.84H100A.85.85,0,0,1,99.11,169.31Zm1,.84Zm-6.73-.31a.83.83,0,0,1-.75-.9h0a.84.84,0,0,1,.91-.76h0a.84.84,0,0,1,.75.91h0a.83.83,0,0,1-.83.75h-.08Zm12.38-.76a.83.83,0,0,1,.75-.91h0a.85.85,0,0,1,.92.75h0a.84.84,0,0,1-.75.91h-.09A.84.84,0,0,1,105.76,169.08Zm-18.89-.15h0a.86.86,0,0,1-.67-1h0a.85.85,0,0,1,1-.67h0a.84.84,0,0,1,.67,1h0a.83.83,0,0,1-.82.67h-.16Zm25.33-.7a.84.84,0,0,1,.67-1h0a.83.83,0,0,1,1,.67h0a.83.83,0,0,1-.66,1h0l-.15,0h0A.85.85,0,0,1,112.2,168.23Zm-31.72-.82h0a.82.82,0,0,1-.57-1h0a.82.82,0,0,1,1-.56h0a.83.83,0,0,1,.57,1h0a.83.83,0,0,1-.81.6h0A.83.83,0,0,1,80.48,167.41Zm38.06-.61a.84.84,0,0,1,.56-1h0a.84.84,0,0,1,1,.57h0a.84.84,0,0,1-.57,1h0l-.23,0h0A.83.83,0,0,1,118.54,166.8Zm-44.29-1.51a.83.83,0,0,1-.47-1.08h0a.83.83,0,0,1,1.08-.47h0a.83.83,0,0,1,.47,1.08h0a.84.84,0,0,1-.77.53h0A.81.81,0,0,1,74.25,165.29Zm50.45-.53a.84.84,0,0,1,.48-1.08h0a.84.84,0,0,1,1.08.46h0a.84.84,0,0,1-.47,1.09h0a.8.8,0,0,1-.3.06h0A.85.85,0,0,1,124.7,164.76Zm-56.45-2.17h0a.85.85,0,0,1-.37-1.13h0a.85.85,0,0,1,1.13-.36h0a.84.84,0,0,1,.37,1.12h0a.84.84,0,0,1-.75.45h0A.73.73,0,0,1,68.25,162.59Zm62.41-.43A.83.83,0,0,1,131,161h0a.84.84,0,0,1,1.13.36h0a.85.85,0,0,1-.37,1.13h0a1,1,0,0,1-.38.09h0A.83.83,0,0,1,130.66,162.16Zm-68.13-2.81a.85.85,0,0,1-.26-1.16h0a.84.84,0,0,1,1.15-.25h0a.82.82,0,0,1,.26,1.15h0a.82.82,0,0,1-.7.39h0A.81.81,0,0,1,62.53,159.35Zm73.81-.35a.82.82,0,0,1,.26-1.14h0a.85.85,0,0,1,1.15.26h0a.83.83,0,0,1-.26,1.15h0a.79.79,0,0,1-.44.14h0A.85.85,0,0,1,136.34,159Zm-79.19-3.42h0a.83.83,0,0,1-.16-1.17h0a.85.85,0,0,1,1.18-.15h0a.86.86,0,0,1,.15,1.17h0a.85.85,0,0,1-.66.33h0A.79.79,0,0,1,57.15,155.58Zm84.55-.24a.85.85,0,0,1,.15-1.18h0a.85.85,0,0,1,1.17.15h0a.85.85,0,0,1-.15,1.18h0a.82.82,0,0,1-.51.17h0A.83.83,0,0,1,141.7,155.34Zm-89.57-4a.84.84,0,0,1,0-1.18h0a.83.83,0,0,1,1.18,0h0a.82.82,0,0,1,0,1.17h0a.82.82,0,0,1-.61.27h0A.83.83,0,0,1,52.13,151.33Zm94.57-.15a.82.82,0,0,1,0-1.18h0a.83.83,0,0,1,1.17,0h0a.83.83,0,0,1,0,1.18h0a.82.82,0,0,1-.57.22h0A.79.79,0,0,1,146.7,151.18Zm-99.17-4.55a.85.85,0,0,1,.07-1.18h0a.83.83,0,0,1,1.18.07h0a.82.82,0,0,1-.07,1.17h0a.82.82,0,0,1-.55.21h0A.86.86,0,0,1,47.53,146.63Zm103.75,0a.84.84,0,0,1-.07-1.18h0a.84.84,0,0,1,1.18-.07h0a.84.84,0,0,1,.07,1.18h0a.85.85,0,0,1-.62.28h0A.85.85,0,0,1,151.28,146.58ZM43.4,141.52h0a.83.83,0,0,1,.18-1.17h0a.84.84,0,0,1,1.17.17h0a.84.84,0,0,1-.19,1.17h0a.79.79,0,0,1-.49.17h0A.82.82,0,0,1,43.4,141.52Zm112,0a.84.84,0,0,1-.18-1.17h0a.84.84,0,0,1,1.17-.18h0a.84.84,0,0,1,.18,1.17h0a.84.84,0,0,1-.68.35h0A.83.83,0,0,1,155.42,141.57ZM39.75,136A.83.83,0,0,1,40,134.9h0a.84.84,0,0,1,1.15.28h0a.84.84,0,0,1-.29,1.15h0a.88.88,0,0,1-.43.12h0A.86.86,0,0,1,39.75,136Zm119.32.16a.84.84,0,0,1-.28-1.15h0a.83.83,0,0,1,1.14-.28h0a.83.83,0,0,1,.29,1.14h0a.84.84,0,0,1-.72.41h0A.88.88,0,0,1,159.07,136.2ZM36.64,130.25h0a.83.83,0,0,1,.39-1.11h0a.83.83,0,0,1,1.11.39h0a.82.82,0,0,1-.39,1.11h0a.77.77,0,0,1-.36.09h0A.83.83,0,0,1,36.64,130.25Zm125.57.26a.85.85,0,0,1-.4-1.12h0a.84.84,0,0,1,1.12-.39h0a.83.83,0,0,1,.39,1.11h0a.83.83,0,0,1-.76.47h0A.91.91,0,0,1,162.21,130.51ZM34.09,124.2h0a.84.84,0,0,1,.49-1.08h0a.84.84,0,0,1,1.07.5h0a.83.83,0,0,1-.49,1.07h0a.79.79,0,0,1-.3,0h0A.82.82,0,0,1,34.09,124.2Zm130.7.34a.83.83,0,0,1-.49-1.07h0a.83.83,0,0,1,1.07-.5h0a.85.85,0,0,1,.5,1.08h0a.85.85,0,0,1-.79.54h0A1,1,0,0,1,164.79,124.54ZM32.11,117.92a.84.84,0,0,1,.59-1h0a.86.86,0,0,1,1,.6h0a.83.83,0,0,1-.6,1h0a.76.76,0,0,1-.21,0h0A.83.83,0,0,1,32.11,117.92Zm134.7.45a.83.83,0,0,1-.6-1h0a.84.84,0,0,1,1-.6h0a.83.83,0,0,1,.59,1h0a.81.81,0,0,1-.8.62h0ZM30.73,111.5h0a.84.84,0,0,1,.69-1h0a.84.84,0,0,1,1,.68h0a.84.84,0,0,1-.7,1h0l-.13,0h0A.85.85,0,0,1,30.73,111.5Zm137.5.53a.83.83,0,0,1-.69-1h0a.82.82,0,0,1,1-.69h0a.82.82,0,0,1,.68,1h0a.84.84,0,0,1-.82.7h-.13ZM30,105a.83.83,0,0,1,.78-.89h0a.81.81,0,0,1,.88.77h0a.84.84,0,0,1-.76.9h-.06A.85.85,0,0,1,30,105Zm139.08.61a.83.83,0,0,1-.78-.89h0a.82.82,0,0,1,.89-.77h0a.83.83,0,0,1,.77.89h0a.83.83,0,0,1-.83.78h0ZM30.63,99.25a.85.85,0,0,1-.82-.86h0a.84.84,0,0,1,.86-.81h0a.83.83,0,0,1,.81.85h0a.83.83,0,0,1-.83.82h0Zm137.77-1h0a.84.84,0,0,1,.81-.86h0a.83.83,0,0,1,.86.81h0a.84.84,0,0,1-.81.86h0A.84.84,0,0,1,168.4,98.28ZM31,92.76a.84.84,0,0,1-.74-.92h0a.83.83,0,0,1,.93-.73h0a.83.83,0,0,1,.74.92h0a.83.83,0,0,1-.83.74H31Zm137-.89h0a.83.83,0,0,1,.73-.92h0a.83.83,0,0,1,.93.73h0a.86.86,0,0,1-.73.94h-.11A.82.82,0,0,1,168,91.87ZM32,86.34a.83.83,0,0,1-.65-1h0a.84.84,0,0,1,1-.66h0a.85.85,0,0,1,.64,1h0a.83.83,0,0,1-.81.66h0A.47.47,0,0,1,32,86.34Zm134.91-.79a.86.86,0,0,1,.65-1h0a.84.84,0,0,1,1,.65h0a.84.84,0,0,1-.64,1h0l-.18,0h0A.85.85,0,0,1,166.89,85.55ZM33.54,80A.83.83,0,0,1,33,79h0a.82.82,0,0,1,1-.54h0a.82.82,0,0,1,.54,1h0a.82.82,0,0,1-.79.58h0A1.15,1.15,0,0,1,33.54,80Zm131.72-.7a.82.82,0,0,1,.54-1h0a.8.8,0,0,1,1,.54h0a.83.83,0,0,1-.54,1h0a1.07,1.07,0,0,1-.25,0h0A.82.82,0,0,1,165.26,79.34ZM35.71,73.9a.82.82,0,0,1-.45-1.08h0a.83.83,0,0,1,1.09-.45h0a.84.84,0,0,1,.45,1.09h0A.83.83,0,0,1,36,74h0A.7.7,0,0,1,35.71,73.9ZM163,73.32a.81.81,0,0,1,.44-1.09h0a.81.81,0,0,1,1.09.44h0a.81.81,0,0,1-.44,1.09h0a.77.77,0,0,1-.32.07h0A.82.82,0,0,1,163,73.32ZM38.44,68a.84.84,0,0,1-.35-1.13h0a.84.84,0,0,1,1.13-.34h0a.83.83,0,0,1,.34,1.13h0a.83.83,0,0,1-.73.44h0A.76.76,0,0,1,38.44,68Zm121.82-.47a.83.83,0,0,1,.33-1.13h0a.83.83,0,0,1,1.14.33h0a.86.86,0,0,1-.35,1.14h0a.76.76,0,0,1-.39.1h0A.82.82,0,0,1,160.26,67.54ZM41.71,62.39a.83.83,0,0,1-.24-1.15h0A.84.84,0,0,1,42.63,61h0a.84.84,0,0,1,.23,1.16h0a.85.85,0,0,1-.69.38h0A.79.79,0,0,1,41.71,62.39ZM157,62a.83.83,0,0,1,.23-1.16h0a.85.85,0,0,1,1.16.23h0a.83.83,0,0,1-.24,1.16h0a.85.85,0,0,1-.45.14h0A.83.83,0,0,1,157,62ZM45.48,57.11a.84.84,0,0,1-.12-1.17h0a.84.84,0,0,1,1.17-.13h0A.84.84,0,0,1,46.66,57h0a.86.86,0,0,1-.65.31h0A.82.82,0,0,1,45.48,57.11Zm107.66-.24a.84.84,0,0,1,.12-1.18h0a.84.84,0,0,1,1.17.13h0a.85.85,0,0,1-.11,1.18h0a.89.89,0,0,1-.53.18h0A.86.86,0,0,1,153.14,56.87ZM49.75,52.2a.82.82,0,0,1,0-1.18h0a.82.82,0,0,1,1.17,0h0a.83.83,0,0,1,0,1.18h0a.87.87,0,0,1-.6.25h0A.78.78,0,0,1,49.75,52.2Zm99.12-.12a.83.83,0,0,1,0-1.18h0a.85.85,0,0,1,1.18,0h0a.85.85,0,0,1,0,1.19h0a.89.89,0,0,1-.58.23h0A.82.82,0,0,1,148.87,52.08Zm1.19-1.17Zm-95.62-3.2a.82.82,0,0,1,.09-1.17h0a.81.81,0,0,1,1.16.09h0a.84.84,0,0,1-.09,1.18h0a.86.86,0,0,1-.54.2h0A.81.81,0,0,1,54.44,47.71Zm89.73,0h0a.83.83,0,0,1-.1-1.17h0a.82.82,0,0,1,1.17-.1h0a.83.83,0,0,1,.1,1.17h0a.81.81,0,0,1-.64.3h0A.85.85,0,0,1,144.17,47.71Zm-84.64-4a.83.83,0,0,1,.21-1.16h0a.84.84,0,0,1,1.16.21h0a.83.83,0,0,1-.21,1.16h0a.88.88,0,0,1-.49.15h0A.81.81,0,0,1,59.53,43.67Zm79.55.12a.83.83,0,0,1-.21-1.16h0a.84.84,0,0,1,1.16-.21h0a.84.84,0,0,1,.21,1.16h0a.82.82,0,0,1-.69.36h0A.77.77,0,0,1,139.08,43.79ZM65,40.14A.82.82,0,0,1,65.29,39h0a.84.84,0,0,1,1.14.31h0a.85.85,0,0,1-.32,1.14h0a.8.8,0,0,1-.41.1h0A.83.83,0,0,1,65,40.14Zm68.66.24h0a.86.86,0,0,1-.32-1.15h0a.84.84,0,0,1,1.14-.31h0a.83.83,0,0,1,.31,1.14h0a.82.82,0,0,1-.72.42h0A1.07,1.07,0,0,1,133.64,40.38ZM70.73,37.12A.85.85,0,0,1,71.14,36h0a.84.84,0,0,1,1.11.43h0a.84.84,0,0,1-.41,1.1h0a.93.93,0,0,1-.35.08h0A.84.84,0,0,1,70.73,37.12Zm57.19.35a.84.84,0,0,1-.42-1.1h0a.83.83,0,0,1,1.1-.42h0a.84.84,0,0,1,.43,1.11h0a.85.85,0,0,1-.77.49h0A.84.84,0,0,1,127.92,37.47ZM76.74,34.66a.84.84,0,0,1,.52-1.06h0a.83.83,0,0,1,1.06.52h0a.83.83,0,0,1-.51,1.06h0a1,1,0,0,1-.28,0h0A.83.83,0,0,1,76.74,34.66Zm45.21.47a.83.83,0,0,1-.53-1.06h0a.83.83,0,0,1,1.06-.52h0a.83.83,0,0,1,.52,1.06h0a.84.84,0,0,1-.78.56h0A.77.77,0,0,1,122,35.13ZM83,32.77a.85.85,0,0,1,.63-1h0a.83.83,0,0,1,1,.62h0a.82.82,0,0,1-.62,1h0a.58.58,0,0,1-.19,0h0A.87.87,0,0,1,83,32.77Zm32.82.59h0a.85.85,0,0,1-.63-1h0a.85.85,0,0,1,1-.63h0a.84.84,0,0,1,.62,1h0a.82.82,0,0,1-.81.64h0A.71.71,0,0,1,115.77,33.36ZM89.32,31.49a.84.84,0,0,1,.71-.94h0a.83.83,0,0,1,1,.71h0a.85.85,0,0,1-.71.94h-.12A.84.84,0,0,1,89.32,31.49Zm20.15.68h0a.81.81,0,0,1-.71-.93h0a.84.84,0,0,1,.94-.72h0a.84.84,0,0,1,.71.94h0a.82.82,0,0,1-.82.72h-.12ZM95.78,30.8a.85.85,0,0,1,.8-.87h0a.83.83,0,0,1,.87.79h0a.83.83,0,0,1-.79.88h0A.85.85,0,0,1,95.78,30.8Zm7.3.79a.84.84,0,0,1-.8-.87h0a.84.84,0,0,1,.87-.8h0a.84.84,0,0,1,.8.88h0a.83.83,0,0,1-.83.79h0ZM99,161.75a.94.94,0,0,1,1-.94h.13a.93.93,0,0,1,.94.93h0a.93.93,0,0,1-.93.94H100A.94.94,0,0,1,99,161.75Zm-5.6.59a.93.93,0,0,1-.84-1h0a.93.93,0,0,1,1-.84h0a.94.94,0,0,1,.84,1h0a.94.94,0,0,1-.93.84h-.1Zm12.2-.84a.94.94,0,0,1,.83-1h0a.94.94,0,0,1,1,.84h0a.93.93,0,0,1-.84,1h-.1A.94.94,0,0,1,105.6,161.5Zm-18.68-.17a1,1,0,0,1-.73-1.12h0a.94.94,0,0,1,1.11-.72h0a1,1,0,0,1,.73,1.12h0a.93.93,0,0,1-.92.74h0Zm25.08-.75a.93.93,0,0,1,.72-1.12h0a1,1,0,0,1,1.12.73h0a1,1,0,0,1-.73,1.11h0a.65.65,0,0,1-.19,0h0A.93.93,0,0,1,112,160.58Zm-31.42-.94h0a.94.94,0,0,1-.6-1.19h0a.93.93,0,0,1,1.18-.6h0a.94.94,0,0,1,.6,1.18h0a.93.93,0,0,1-.89.65h0A1.45,1.45,0,0,1,80.58,159.64Zm37.68-.65a.93.93,0,0,1,.6-1.18h0a.94.94,0,0,1,1.19.6h0a1,1,0,0,1-.61,1.19h0a1.35,1.35,0,0,1-.29,0h0A.94.94,0,0,1,118.26,159Zm-43.81-1.71A.94.94,0,0,1,74,156h0a1,1,0,0,1,1.25-.48h0a1,1,0,0,1,.47,1.25h0a.94.94,0,0,1-.86.56h0A1.1,1.1,0,0,1,74.45,157.28Zm49.88-.52a1,1,0,0,1,.46-1.25h0A1,1,0,0,1,126,156h0a1,1,0,0,1-.48,1.25h0a1,1,0,0,1-.38.08h0A.93.93,0,0,1,124.33,156.76ZM68.61,154.3h0a.94.94,0,0,1-.34-1.28h0a.92.92,0,0,1,1.28-.34h0a.93.93,0,0,1,.34,1.27h0a1,1,0,0,1-.81.48h0A.9.9,0,0,1,68.61,154.3Zm61.51-.4a.94.94,0,0,1,.34-1.29h0a.94.94,0,0,1,1.28.34h0a.93.93,0,0,1-.34,1.28h0a.9.9,0,0,1-.47.13h0A.91.91,0,0,1,130.12,153.9Zm-67-3.18a.94.94,0,0,1-.21-1.31h0a.93.93,0,0,1,1.31-.2h0a.92.92,0,0,1,.21,1.3h0a.93.93,0,0,1-.76.39h0A.93.93,0,0,1,63.11,150.72Zm72.47-.28a.92.92,0,0,1,.21-1.31h0a.93.93,0,0,1,1.31.2h0a1,1,0,0,1-.21,1.32h0a.94.94,0,0,1-.55.17h0A.93.93,0,0,1,135.58,150.44ZM58,146.59a.93.93,0,0,1-.07-1.32h0a.94.94,0,0,1,1.33-.07h0a.93.93,0,0,1,.07,1.32h0a1,1,0,0,1-.71.31h0A1,1,0,0,1,58,146.59Zm82.64-.15a.93.93,0,0,1,.07-1.32h0a.94.94,0,0,1,1.33.06h0a1,1,0,0,1-.07,1.33h0a1,1,0,0,1-.63.24h0A1,1,0,0,1,140.65,146.44ZM53.38,142a.94.94,0,0,1,.06-1.33h0a.93.93,0,0,1,1.32.08h0a.94.94,0,0,1-.07,1.33h0a.9.9,0,0,1-.62.23h0A.89.89,0,0,1,53.38,142Zm91.9,0a1,1,0,0,1-.07-1.33h0a1,1,0,0,1,1.33-.07h0a1,1,0,0,1,.07,1.33h0a.93.93,0,0,1-.7.31h0A1,1,0,0,1,145.28,141.93Zm-96-5.07a1,1,0,0,1,.2-1.31h0a.93.93,0,0,1,1.31.2h0a.94.94,0,0,1-.2,1.32h0a.94.94,0,0,1-.55.17h0A.93.93,0,0,1,49.24,136.86Zm100.18.1a.94.94,0,0,1-.21-1.31h0a1,1,0,0,1,1.32-.21h0a.94.94,0,0,1,.2,1.31h0a.93.93,0,0,1-.76.39h0A.85.85,0,0,1,149.42,137Zm-103.76-5.6a.93.93,0,0,1,.35-1.28h0a.93.93,0,0,1,1.27.35h0a.92.92,0,0,1-.34,1.27h0a.88.88,0,0,1-.47.13h0A.94.94,0,0,1,45.66,131.36Zm107.35.23a.94.94,0,0,1-.34-1.28h0A.94.94,0,0,1,154,130h0a.94.94,0,0,1,.34,1.28h0a1,1,0,0,1-.81.47h0A.91.91,0,0,1,153,131.59ZM42.68,125.52h0a1,1,0,0,1,.47-1.25h0a.93.93,0,0,1,1.24.48h0a.94.94,0,0,1-.47,1.24h0a1.08,1.08,0,0,1-.38.08h0A.94.94,0,0,1,42.68,125.52Zm113.35.36a.93.93,0,0,1-.47-1.24h0a.93.93,0,0,1,1.23-.48h0a.94.94,0,0,1,.48,1.24h0a.94.94,0,0,1-.86.56h0A1.08,1.08,0,0,1,156,125.88ZM40.32,119.4h0a1,1,0,0,1,.6-1.19h0a1,1,0,0,1,1.19.61h0a.94.94,0,0,1-.6,1.18h0a1,1,0,0,1-.29,0h0A1,1,0,0,1,40.32,119.4Zm118.11.48a1,1,0,0,1-.6-1.19h0a.93.93,0,0,1,1.18-.6h0a.94.94,0,0,1,.61,1.18h0a1,1,0,0,1-.9.65h0A1,1,0,0,1,158.43,119.88Zm-119.8-6.81a1,1,0,0,1,.72-1.12h0a.92.92,0,0,1,1.11.72h0a.93.93,0,0,1-.72,1.11h0l-.19,0h0A.93.93,0,0,1,38.63,113.07Zm121.55.59a.94.94,0,0,1-.72-1.12h0a.94.94,0,0,1,1.11-.73h0a.93.93,0,0,1,.72,1.11h0a1,1,0,0,1-.93.75h-.19ZM37.6,106.58h0a.94.94,0,0,1,.84-1h0a.94.94,0,0,1,1,.84h0a.94.94,0,0,1-.83,1h-.1A.94.94,0,0,1,37.6,106.58Zm123.68.7a.94.94,0,0,1-.85-1h0a1,1,0,0,1,1-.85h0a.94.94,0,0,1,.83,1h0a.94.94,0,0,1-.93.84h-.09ZM37.26,100a.94.94,0,0,1,.94-1h0a.94.94,0,0,1,.94.94h0a.94.94,0,0,1-.94.94h0A.94.94,0,0,1,37.26,100Zm123.49-.14a.94.94,0,0,1,.94-.94h0a.93.93,0,0,1,.94.94h0a.94.94,0,0,1-.94.94h0A1,1,0,0,1,160.75,99.9ZM39.14,100Zm-.7-5.52a.94.94,0,0,1-.85-1h0a.94.94,0,0,1,1-.83h0a.92.92,0,0,1,.83,1h0a.94.94,0,0,1-.92.84h-.1Zm122-1a.93.93,0,0,1,.83-1h0a1,1,0,0,1,1,.83h0a1,1,0,0,1-.84,1h-.1A.94.94,0,0,1,160.42,93.54ZM39.34,88.12A1,1,0,0,1,38.61,87h0a.94.94,0,0,1,1.11-.72h0a.93.93,0,0,1,.73,1.11h0a.94.94,0,0,1-.92.74h-.19Zm120.08-.86h0a.94.94,0,0,1,.72-1.11h0a.93.93,0,0,1,1.11.72h0a.92.92,0,0,1-.72,1.11h0l-.2,0h0A.93.93,0,0,1,159.42,87.26ZM40.91,81.85a.94.94,0,0,1-.61-1.18h0a.94.94,0,0,1,1.18-.61h0a.92.92,0,0,1,.6,1.18h0a.92.92,0,0,1-.89.65h0A1.35,1.35,0,0,1,40.91,81.85Zm116.85-.73a.94.94,0,0,1,.6-1.19h0a.94.94,0,0,1,1.19.6h0a.94.94,0,0,1-.6,1.19h0a1,1,0,0,1-.29,0h0A1,1,0,0,1,157.76,81.12ZM43.13,75.77a.92.92,0,0,1-.48-1.23h0a.94.94,0,0,1,1.24-.47h0a.93.93,0,0,1,.47,1.24h0a.92.92,0,0,1-.85.56h0A.85.85,0,0,1,43.13,75.77Zm112.35-.59a.93.93,0,0,1,.47-1.24h0a.94.94,0,0,1,1.24.47h0a1,1,0,0,1-.47,1.24h0a.9.9,0,0,1-.38.08h0A.94.94,0,0,1,155.48,75.18ZM46,70a.93.93,0,0,1-.34-1.28h0a.94.94,0,0,1,1.29-.34h0a.94.94,0,0,1,.34,1.28h0a1,1,0,0,1-.82.47h0A.9.9,0,0,1,46,70Zm106.6-.46a.92.92,0,0,1,.34-1.27h0a.94.94,0,0,1,1.29.33h0a.94.94,0,0,1-.34,1.29h0a.89.89,0,0,1-.47.12h0A.93.93,0,0,1,152.57,69.51Zm-103.16-5a.94.94,0,0,1-.21-1.31h0A.94.94,0,0,1,50.51,63h0a.93.93,0,0,1,.21,1.31h0a.92.92,0,0,1-.76.39h0A1,1,0,0,1,49.41,64.5Zm99.69-.31h0a.93.93,0,0,1,.2-1.31h0a.93.93,0,0,1,1.31.2h0a.94.94,0,0,1-.2,1.32h0a1,1,0,0,1-.55.17h0A.93.93,0,0,1,149.1,64.19ZM53.4,59.42a1,1,0,0,1-.07-1.33h0A.94.94,0,0,1,54.66,58h0a.94.94,0,0,1,.07,1.32h0a1,1,0,0,1-.7.31h0A1,1,0,0,1,53.4,59.42Zm91.68-.17a1,1,0,0,1,.07-1.33h0a1,1,0,0,1,1.33.07h0a1,1,0,0,1-.07,1.33h0a1,1,0,0,1-.63.24h0A.94.94,0,0,1,145.08,59.25ZM57.9,54.77A.93.93,0,0,1,58,53.45h0a.93.93,0,0,1,1.32.06h0a1,1,0,0,1-.06,1.33h0a1,1,0,0,1-.64.24h0A.91.91,0,0,1,57.9,54.77Zm82.68,0a1,1,0,0,1-.08-1.33h0a1,1,0,0,1,1.33-.07h0a.93.93,0,0,1,.07,1.32h0a.94.94,0,0,1-.7.32h0A.91.91,0,0,1,140.58,54.76ZM62.85,50.63a.94.94,0,0,1,.21-1.31h0a.93.93,0,0,1,1.31.2h0a.94.94,0,0,1-.2,1.31h0a1,1,0,0,1-.55.18h0A.93.93,0,0,1,62.85,50.63Zm72.78.12a.92.92,0,0,1-.21-1.31h0a.94.94,0,0,1,1.31-.21h0a.94.94,0,0,1,.21,1.31h0a.94.94,0,0,1-.76.4h0A.88.88,0,0,1,135.63,50.75ZM68.22,47a.93.93,0,0,1,.33-1.28h0a.93.93,0,0,1,1.28.34h0a.94.94,0,0,1-.34,1.29h0a1,1,0,0,1-.47.12h0A.91.91,0,0,1,68.22,47Zm62.07.28h0a1,1,0,0,1-.35-1.28h0a1,1,0,0,1,1.29-.35h0a1,1,0,0,1,.34,1.29h0a.93.93,0,0,1-.82.46h0A1,1,0,0,1,130.29,47.29ZM73.92,44a.94.94,0,0,1,.47-1.24h0a.93.93,0,0,1,1.24.48h0a.94.94,0,0,1-.47,1.24h0a.9.9,0,0,1-.38.08h0A.94.94,0,0,1,73.92,44Zm50.7.42a.93.93,0,0,1-.48-1.24h0a.94.94,0,0,1,1.24-.47h0a.93.93,0,0,1,.48,1.23h0a.94.94,0,0,1-.86.56h0A.84.84,0,0,1,124.62,44.4Zm-44.7-2.83a.92.92,0,0,1,.59-1.18h0a.91.91,0,0,1,1.18.6h0a.92.92,0,0,1-.6,1.18h0a.92.92,0,0,1-.29,0h0A.92.92,0,0,1,79.92,41.57Zm38.75.56h0a.94.94,0,0,1-.61-1.18h0a.94.94,0,0,1,1.18-.61h0a.93.93,0,0,1,.6,1.18h0a.92.92,0,0,1-.89.65h0A1,1,0,0,1,118.67,42.13ZM86.13,39.8a.94.94,0,0,1,.72-1.12h0a.94.94,0,0,1,1.11.73h0a.93.93,0,0,1-.72,1.11h0a.65.65,0,0,1-.2,0h0A.93.93,0,0,1,86.13,39.8Zm26.4.69a.93.93,0,0,1-.73-1.11h0a.93.93,0,0,1,1.11-.72h0a.94.94,0,0,1,.73,1.11h0a1,1,0,0,1-.92.74h0Zm-20-1.8a.94.94,0,0,1,.84-1h0a.94.94,0,0,1,1,.84h0a.94.94,0,0,1-.84,1h-.1A.93.93,0,0,1,92.49,38.69Zm13.74.82h0a.92.92,0,0,1-.83-1h0a.93.93,0,0,1,1-.83h0a.94.94,0,0,1,.85,1h0a.94.94,0,0,1-.94.85h-.1Zm-7.29-1.25a.94.94,0,0,1,.93-.95h0a.94.94,0,0,1,.94.94h0a.93.93,0,0,1-.94.94h0A.93.93,0,0,1,98.94,38.26Zm1.09,117H100a1,1,0,0,1-1-1h0a1,1,0,0,1,1-1h.16a1,1,0,0,1,1,1h0a1,1,0,0,1-1,1.05H100Zm-6.61-.37a1.05,1.05,0,0,1-.92-1.16h0a1.05,1.05,0,0,1,1.16-.91h0a1,1,0,0,1,.92,1.16h0a1.06,1.06,0,0,1-1,.92h-.12Zm12-.93a1.07,1.07,0,0,1,.92-1.17h0a1.06,1.06,0,0,1,1.16.92h0a1,1,0,0,1-.91,1.16h-.12A1.06,1.06,0,0,1,105.47,153.91ZM87,153.69h0a1.07,1.07,0,0,1-.77-1.27h0a1,1,0,0,1,1.26-.77h0a1.05,1.05,0,0,1,.77,1.26h0a1.05,1.05,0,0,1-1,.8h0A1,1,0,0,1,87,153.69Zm24.84-.8a1,1,0,0,1,.76-1.26h0a1,1,0,0,1,1.26.76h0a1,1,0,0,1-.76,1.26h0l-.25,0h0A1,1,0,0,1,111.82,152.89Zm-31.1-1.11a1,1,0,0,1-.61-1.34h0a1,1,0,0,1,1.33-.62h0a1,1,0,0,1,.62,1.35h0a1.07,1.07,0,0,1-1,.68h0A.94.94,0,0,1,80.72,151.78Zm37.26-.66a1,1,0,0,1,.61-1.35h0a1.05,1.05,0,0,1,1.35.61h0a1.06,1.06,0,0,1-.61,1.35h0a1.24,1.24,0,0,1-.37.06h0A1,1,0,0,1,118,151.12Zm-43.25-2a1,1,0,0,1-.45-1.4h0a1.07,1.07,0,0,1,1.41-.46h0a1.06,1.06,0,0,1,.45,1.41h0a1,1,0,0,1-.93.56h0A1,1,0,0,1,74.73,149.14Zm49.16-.52a1.06,1.06,0,0,1,.45-1.41h0a1.05,1.05,0,0,1,1.41.45h0a1.05,1.05,0,0,1-.45,1.41h0a1,1,0,0,1-.47.12h0A1.07,1.07,0,0,1,123.89,148.62ZM69.1,145.81a1,1,0,0,1-.28-1.45h0a1,1,0,0,1,1.45-.28h0a1.05,1.05,0,0,1,.28,1.45h0a1.08,1.08,0,0,1-.87.46h0A1,1,0,0,1,69.1,145.81Zm60.37-.36a1,1,0,0,1,.27-1.45h0a1.06,1.06,0,0,1,1.46.27h0a1,1,0,0,1-.28,1.45h0a1,1,0,0,1-.58.18h0A1.05,1.05,0,0,1,129.47,145.45Zm-65.56-3.61h0a1,1,0,0,1-.12-1.47h0a1,1,0,0,1,1.48-.11h0a1.05,1.05,0,0,1,.11,1.47h0a1.05,1.05,0,0,1-.8.36h0A1,1,0,0,1,63.91,141.84Zm70.72-.21a1,1,0,0,1,.11-1.46h0a1,1,0,0,1,1.47.1h0a1,1,0,0,1-.11,1.47h0a1,1,0,0,1-.68.25h0A1,1,0,0,1,134.63,141.63Zm-75.42-4.34h0a1.05,1.05,0,0,1,.07-1.48h0a1,1,0,0,1,1.47.07h0a1,1,0,0,1-.06,1.47h0a1.05,1.05,0,0,1-.71.27h0A1.06,1.06,0,0,1,59.21,137.29Zm80.1,0a1,1,0,0,1-.07-1.47h0a1,1,0,0,1,1.48-.07h0a1.05,1.05,0,0,1,.07,1.47h0a1.09,1.09,0,0,1-.78.34h0A1,1,0,0,1,139.31,137.24Zm-84.22-5h0a1.05,1.05,0,0,1,.23-1.46h0a1.06,1.06,0,0,1,1.46.24h0a1.05,1.05,0,0,1-.24,1.46h0a1,1,0,0,1-.6.2h0A1,1,0,0,1,55.09,132.21Zm88.35.12a1,1,0,0,1-.24-1.46h0a1,1,0,0,1,1.45-.24h0a1,1,0,0,1,.25,1.46h0a1,1,0,0,1-.85.43h0A1.09,1.09,0,0,1,143.44,132.33Zm-91.85-5.64a1,1,0,0,1,.41-1.42h0a1,1,0,0,1,1.42.41h0A1.06,1.06,0,0,1,53,127.1h0a1.15,1.15,0,0,1-.5.12h0A1,1,0,0,1,51.59,126.69ZM147,127a1,1,0,0,1-.41-1.42h0a1,1,0,0,1,1.41-.41h0a1,1,0,0,1,.42,1.41h0a1,1,0,0,1-.92.55h0A1,1,0,0,1,147,127Zm-98.19-6.17h0a1,1,0,0,1,.57-1.36h0a1.05,1.05,0,0,1,1.37.57h0a1.05,1.05,0,0,1-.58,1.36h0a1.09,1.09,0,0,1-.39.08h0A1.06,1.06,0,0,1,48.77,120.79Zm101.06.42a1,1,0,0,1-.58-1.36h0a1,1,0,0,1,1.36-.57h0a1.05,1.05,0,0,1,.58,1.36h0a1.06,1.06,0,0,1-1,.65h0A1,1,0,0,1,149.83,121.21ZM46.67,114.59h0a1,1,0,0,1,.74-1.28h0a1,1,0,0,1,1.27.73h0a1,1,0,0,1-.73,1.28h0a1.26,1.26,0,0,1-.28,0h0A1.05,1.05,0,0,1,46.67,114.59Zm105.32.57a1,1,0,0,1-.74-1.28h0a1,1,0,0,1,1.28-.73h0a1,1,0,0,1,.73,1.28h0a1,1,0,0,1-1,.77h0A.82.82,0,0,1,152,115.16Zm-106.66-7h0a1,1,0,0,1,.88-1.18h0a1,1,0,0,1,1.18.87h0a1,1,0,0,1-.88,1.19h-.15A1,1,0,0,1,45.33,108.19Zm108.08.72a1.06,1.06,0,0,1-.89-1.19h0a1.06,1.06,0,0,1,1.19-.88h0a1.05,1.05,0,0,1,.88,1.18h0a1,1,0,0,1-1,.9h-.15ZM44.75,101.68a1.06,1.06,0,0,1,1-1.08h0a1,1,0,0,1,1.07,1h0a1,1,0,0,1-1,1.08h0A1,1,0,0,1,44.75,101.68Zm109.32.84a1,1,0,0,1-1-1.06h0a1,1,0,0,1,1.07-1h0a1,1,0,0,1,1,1.07h0a1,1,0,0,1-1,1h0ZM45.88,96.27a1,1,0,0,1-.94-1.12h0a1,1,0,0,1,1.12-1h0a1.05,1.05,0,0,1,1,1.13h0a1.05,1.05,0,0,1-1.05,1h-.09Zm107-1.11a1,1,0,0,1,.95-1.13h0a1,1,0,0,1,1.13.94h0a1,1,0,0,1-.94,1.14h-.09A1,1,0,0,1,152.86,95.16ZM46.7,89.9a1,1,0,0,1-.81-1.23h0a1,1,0,0,1,1.23-.81h0a1,1,0,0,1,.81,1.23h0a1,1,0,0,1-1,.84h0A.78.78,0,0,1,46.7,89.9Zm105.23-1h0a1,1,0,0,1,.8-1.24h0a1,1,0,0,1,1.24.81h0a1.05,1.05,0,0,1-.81,1.24H153A1,1,0,0,1,151.93,88.94ZM48.26,83.68a1.06,1.06,0,0,1-.66-1.33h0a1.05,1.05,0,0,1,1.33-.65h0A1,1,0,0,1,49.58,83h0a1,1,0,0,1-1,.71h0A1.26,1.26,0,0,1,48.26,83.68Zm102-.81h0a1,1,0,0,1,.65-1.32h0a1,1,0,0,1,1.33.65h0a1,1,0,0,1-.65,1.32h0a1,1,0,0,1-.34.06h0A1.06,1.06,0,0,1,150.26,82.87ZM50.55,77.68a1,1,0,0,1-.49-1.39h0a1,1,0,0,1,1.39-.49h0a1,1,0,0,1,.49,1.39h0a1,1,0,0,1-.93.59h0A1.09,1.09,0,0,1,50.55,77.68ZM147.88,77a1,1,0,0,1,.49-1.38h0a1,1,0,0,1,1.4.48h0a1.07,1.07,0,0,1-.5,1.4h0a1.22,1.22,0,0,1-.45.1h0A1,1,0,0,1,147.88,77ZM53.54,72a1,1,0,0,1-.32-1.44h0a1,1,0,0,1,1.44-.33h0A1.06,1.06,0,0,1,55,71.68h0a1.09,1.09,0,0,1-.89.48h0A1.06,1.06,0,0,1,53.54,72Zm91.29-.46h0a1,1,0,0,1,.32-1.43h0a1,1,0,0,1,1.44.31h0a1.07,1.07,0,0,1-.33,1.45h0a1.06,1.06,0,0,1-.56.16h0A1,1,0,0,1,144.83,71.54ZM57.18,66.71A1,1,0,0,1,57,65.24h0a1,1,0,0,1,1.47-.15h0a1,1,0,0,1,.15,1.47h0a1.06,1.06,0,0,1-.81.38h0A1,1,0,0,1,57.18,66.71Zm84-.27A1.06,1.06,0,0,1,141.3,65h0a1,1,0,0,1,1.46.15h0a1,1,0,0,1-.15,1.47h0a1,1,0,0,1-.66.24h0A1.07,1.07,0,0,1,141.14,66.44ZM61.42,61.89a1,1,0,0,1,0-1.47h0a1,1,0,0,1,1.47,0h0a1.05,1.05,0,0,1,0,1.48h0a1,1,0,0,1-.73.29h0A1,1,0,0,1,61.42,61.89Zm75.47-.08h0a1,1,0,0,1,0-1.48h0a1.05,1.05,0,0,1,1.48,0h0a1.05,1.05,0,0,1,0,1.48h0a1.1,1.1,0,0,1-.76.31h0A1.07,1.07,0,0,1,136.89,61.81ZM66.2,57.6a1,1,0,0,1,.19-1.46h0a1,1,0,0,1,1.47.2h0a1,1,0,0,1-.2,1.46h0A1.07,1.07,0,0,1,67,58h0A1,1,0,0,1,66.2,57.6Zm65.91.1a1,1,0,0,1-.19-1.46h0a1,1,0,0,1,1.46-.2h0a1,1,0,0,1,.2,1.46h0a1,1,0,0,1-.83.42h0A1,1,0,0,1,132.11,57.7ZM71.44,53.91a1,1,0,0,1,.36-1.43h0a1,1,0,0,1,1.43.36h0a1,1,0,0,1-.36,1.43h0a1,1,0,0,1-.53.15h0A1.07,1.07,0,0,1,71.44,53.91Zm55.45.28h0a1.05,1.05,0,0,1-.37-1.43h0A1,1,0,0,1,128,52.4h0a1,1,0,0,1,.37,1.42h0a1,1,0,0,1-.9.52h0A1,1,0,0,1,126.89,54.19Zm-49.8-3.34a1,1,0,0,1,.52-1.37h0A1,1,0,0,1,79,50h0a1.05,1.05,0,0,1-.53,1.38h0a1.27,1.27,0,0,1-.42.09h0A1,1,0,0,1,77.09,50.85Zm44.2.47h0a1,1,0,0,1-.53-1.37h0a1,1,0,0,1,1.36-.53h0a1,1,0,0,1,.55,1.37h0a1.06,1.06,0,0,1-1,.62h0A1,1,0,0,1,121.29,51.32ZM83.06,48.5a1,1,0,0,1,.69-1.3h0a1,1,0,0,1,1.3.68h0a1.05,1.05,0,0,1-.69,1.31h0a1.1,1.1,0,0,1-.31,0h0A1,1,0,0,1,83.06,48.5Zm32.32.64a1,1,0,0,1-.69-1.3h0a1,1,0,0,1,1.3-.69h0a1,1,0,0,1,.69,1.29h0a1,1,0,0,1-1,.74h0A1.15,1.15,0,0,1,115.38,49.14ZM89.26,46.86a1,1,0,0,1,.84-1.21h0a1,1,0,0,1,1.21.85h0a1,1,0,0,1-.84,1.21h-.19A1,1,0,0,1,89.26,46.86Zm20,.82a1,1,0,0,1-.84-1.21h0a1,1,0,0,1,1.21-.85h0a1,1,0,0,1,.84,1.21h0a1,1,0,0,1-1,.86h-.19ZM95.62,46a1,1,0,0,1,1-1.1h0a1,1,0,0,1,1.11,1h0a1.06,1.06,0,0,1-1,1.11h-.06A1,1,0,0,1,95.62,46ZM103,47a1,1,0,0,1-1-1.1h0a1,1,0,0,1,1.11-1h0a1,1,0,0,1,1,1.1h0a1,1,0,0,1-1,1H103Zm-3,100.8H100a1.15,1.15,0,0,1-1.15-1.15h0a1.14,1.14,0,0,1,1.15-1.14h.17a1.14,1.14,0,0,1,1.16,1.13h0a1.16,1.16,0,0,1-1.15,1.16H100Zm-6.59-.43h0a1.16,1.16,0,0,1-1-1.3h0a1.15,1.15,0,0,1,1.29-1h0a1.14,1.14,0,0,1,1,1.28h0a1.16,1.16,0,0,1-1.14,1h-.15Zm11.88-1a1.16,1.16,0,0,1,1-1.3h0a1.16,1.16,0,0,1,1.3,1h0a1.15,1.15,0,0,1-1,1.29h-.16A1.15,1.15,0,0,1,105.33,146.32ZM87.07,146a1.15,1.15,0,0,1-.8-1.41h0a1.16,1.16,0,0,1,1.42-.8h0a1.14,1.14,0,0,1,.79,1.42h0a1.14,1.14,0,0,1-1.1.83h0A1.1,1.1,0,0,1,87.07,146Zm24.51-.84a1.15,1.15,0,0,1,.8-1.41h0a1.13,1.13,0,0,1,1.41.78h0A1.15,1.15,0,0,1,113,146h0a1.1,1.1,0,0,1-.31,0h0A1.15,1.15,0,0,1,111.58,145.16Zm-30.65-1.34a1.14,1.14,0,0,1-.6-1.51h0a1.15,1.15,0,0,1,1.51-.6h0a1.15,1.15,0,0,1,.6,1.51h0a1.17,1.17,0,0,1-1.06.68h0A1.17,1.17,0,0,1,80.93,143.82Zm36.7-.67a1.14,1.14,0,0,1,.58-1.51h0a1.15,1.15,0,0,1,1.52.6h0a1.15,1.15,0,0,1-.59,1.51h0a1.25,1.25,0,0,1-.46.09h0A1.12,1.12,0,0,1,117.63,143.15Zm-42.5-2.33a1.16,1.16,0,0,1-.37-1.58h0a1.13,1.13,0,0,1,1.57-.38h0a1.13,1.13,0,0,1,.38,1.57h0a1.12,1.12,0,0,1-1,.55h0A1.24,1.24,0,0,1,75.13,140.82Zm48.2-.47a1.15,1.15,0,0,1,.37-1.58h0a1.15,1.15,0,0,1,1.58.38h0a1.14,1.14,0,0,1-.38,1.58h0a1.15,1.15,0,0,1-.6.16h0A1.13,1.13,0,0,1,123.33,140.35Zm-53.51-3.3h0a1.14,1.14,0,0,1-.17-1.61h0a1.14,1.14,0,0,1,1.61-.17h0a1.17,1.17,0,0,1,.16,1.62h0a1.13,1.13,0,0,1-.89.42h0A1.1,1.1,0,0,1,69.82,137.05Zm58.77-.26a1.17,1.17,0,0,1,.16-1.62h0a1.16,1.16,0,0,1,1.62.16h0a1.16,1.16,0,0,1-.16,1.62h0a1.12,1.12,0,0,1-.72.26h0A1.18,1.18,0,0,1,128.59,136.79Zm-63.54-4.18a1.14,1.14,0,0,1,.06-1.62h0a1.15,1.15,0,0,1,1.62,0h0a1.15,1.15,0,0,1,0,1.62h0a1.16,1.16,0,0,1-.79.31h0A1.17,1.17,0,0,1,65.05,132.61Zm68.28-.06a1.15,1.15,0,0,1-.06-1.62h0a1.13,1.13,0,0,1,1.62-.06h0a1.13,1.13,0,0,1,.06,1.62h0a1.14,1.14,0,0,1-.84.36h0A1.16,1.16,0,0,1,133.33,132.55Zm-72.39-5a1.15,1.15,0,0,1,.27-1.6h0a1.16,1.16,0,0,1,1.61.28h0a1.16,1.16,0,0,1-.28,1.6h0a1.16,1.16,0,0,1-.67.21h0A1.12,1.12,0,0,1,60.94,127.56Zm76.52.14a1.15,1.15,0,0,1-.29-1.6h0a1.14,1.14,0,0,1,1.6-.27h0a1.13,1.13,0,0,1,.28,1.59h0a1.13,1.13,0,0,1-.93.48h0A1.12,1.12,0,0,1,137.46,127.7ZM57.55,122h0a1.15,1.15,0,0,1,.48-1.55h0a1.18,1.18,0,0,1,1.56.49h0a1.15,1.15,0,0,1-.5,1.55h0a1.08,1.08,0,0,1-.52.13h0A1.13,1.13,0,0,1,57.55,122Zm83.33.34a1.15,1.15,0,0,1-.49-1.55h0a1.14,1.14,0,0,1,1.54-.49h0a1.16,1.16,0,0,1,.5,1.55h0a1.16,1.16,0,0,1-1,.61h0A1.2,1.2,0,0,1,140.88,122.34ZM54.94,116h0a1.14,1.14,0,0,1,.7-1.46h0a1.14,1.14,0,0,1,1.47.69h0a1.14,1.14,0,0,1-.7,1.46h0a1.07,1.07,0,0,1-.39.07h0A1.15,1.15,0,0,1,54.94,116Zm88.61.53a1.14,1.14,0,0,1-.7-1.47h0a1.15,1.15,0,0,1,1.46-.7h0a1.15,1.15,0,0,1,.7,1.47h0a1.16,1.16,0,0,1-1.09.77h0A1.21,1.21,0,0,1,143.55,116.56Zm-90.37-6.81a1.15,1.15,0,0,1,.9-1.35h0a1.15,1.15,0,0,1,1.35.89h0a1.15,1.15,0,0,1-.89,1.36h0l-.24,0h0A1.17,1.17,0,0,1,53.18,109.75Zm92.21.72a1.16,1.16,0,0,1-.9-1.35h0a1.15,1.15,0,0,1,1.36-.9h0a1.16,1.16,0,0,1,.9,1.36h0a1.15,1.15,0,0,1-1.13.91h0A.9.9,0,0,1,145.39,110.47ZM52.3,103.3a1.14,1.14,0,0,1,1.07-1.22h0a1.15,1.15,0,0,1,1.22,1.06h0a1.15,1.15,0,0,1-1.06,1.23h-.09A1.14,1.14,0,0,1,52.3,103.3Zm94.09.88a1.13,1.13,0,0,1-1.07-1.21h0a1.14,1.14,0,0,1,1.22-1.07h0a1.15,1.15,0,0,1,1.07,1.22h0a1.16,1.16,0,0,1-1.15,1.07h-.07ZM53.37,98a1.15,1.15,0,0,1-1.08-1.22h0a1.15,1.15,0,0,1,1.23-1.07h0a1.16,1.16,0,0,1,1.07,1.22h0A1.17,1.17,0,0,1,53.44,98h-.07Zm91.92-1.24a1.15,1.15,0,0,1,1.07-1.23h0a1.15,1.15,0,0,1,1.23,1.07h0a1.15,1.15,0,0,1-1.07,1.21h-.08A1.15,1.15,0,0,1,145.29,96.77ZM54.06,91.69a1.13,1.13,0,0,1-.89-1.35h0a1.14,1.14,0,0,1,1.35-.89h0a1.14,1.14,0,0,1,.89,1.36h0a1.15,1.15,0,0,1-1.12.92h0A.85.85,0,0,1,54.06,91.69Zm90.38-1.07a1.16,1.16,0,0,1,.89-1.36h0a1.16,1.16,0,0,1,1.36.89h0a1.15,1.15,0,0,1-.89,1.36h0l-.23,0h0A1.14,1.14,0,0,1,144.44,90.62ZM55.61,85.51a1.14,1.14,0,0,1-.7-1.46h0a1.16,1.16,0,0,1,1.47-.7h0a1.16,1.16,0,0,1,.7,1.47h0a1.15,1.15,0,0,1-1.08.76h0A1.07,1.07,0,0,1,55.61,85.51Zm87.15-.86h0a1.14,1.14,0,0,1,.69-1.46h0a1.16,1.16,0,0,1,1.47.69h0a1.16,1.16,0,0,1-.69,1.47h0a1.06,1.06,0,0,1-.39.06h0A1.14,1.14,0,0,1,142.76,84.65ZM58,79.61a1.13,1.13,0,0,1-.49-1.54h0a1.13,1.13,0,0,1,1.54-.49h0a1.13,1.13,0,0,1,.49,1.54h0a1.15,1.15,0,0,1-1,.62h0A1,1,0,0,1,58,79.61ZM140.27,79h0a1.14,1.14,0,0,1,.48-1.54h0a1.16,1.16,0,0,1,1.56.48h0a1.16,1.16,0,0,1-.49,1.55h0a1.15,1.15,0,0,1-.53.13h0A1.17,1.17,0,0,1,140.27,79ZM61.17,74.1a1.14,1.14,0,0,1-.27-1.6h0a1.13,1.13,0,0,1,1.59-.27h0a1.13,1.13,0,0,1,.27,1.59h0a1.11,1.11,0,0,1-.93.49h0A1.17,1.17,0,0,1,61.17,74.1ZM137,73.69a1.14,1.14,0,0,1,.27-1.6h0a1.14,1.14,0,0,1,1.6.27h0a1.15,1.15,0,0,1-.27,1.6h0a1.17,1.17,0,0,1-.66.21h0A1.17,1.17,0,0,1,137,73.69Zm-72-4.63A1.13,1.13,0,0,1,65,67.45h0a1.14,1.14,0,0,1,1.62-.06h0A1.14,1.14,0,0,1,66.68,69h0a1.15,1.15,0,0,1-.84.36h0A1.12,1.12,0,0,1,65.06,69.06Zm68-.17a1.14,1.14,0,0,1,.05-1.62h0a1.15,1.15,0,0,1,1.63,0h0a1.15,1.15,0,0,1-.05,1.62h0a1.17,1.17,0,0,1-.79.32h0A1.15,1.15,0,0,1,133.1,68.89ZM69.59,64.61A1.16,1.16,0,0,1,69.76,63h0a1.14,1.14,0,0,1,1.61.16h0a1.16,1.16,0,0,1-.16,1.62h0a1.17,1.17,0,0,1-.72.25h0A1.17,1.17,0,0,1,69.59,64.61Zm59,.06h0a1.16,1.16,0,0,1-.17-1.62h0a1.15,1.15,0,0,1,1.61-.17h0a1.15,1.15,0,0,1,.17,1.62h0a1.18,1.18,0,0,1-.89.42h0A1.15,1.15,0,0,1,128.56,64.67ZM74.68,60.8a1.17,1.17,0,0,1,.39-1.58h0a1.14,1.14,0,0,1,1.57.39h0a1.15,1.15,0,0,1-.38,1.58h0a1.24,1.24,0,0,1-.59.16h0A1.17,1.17,0,0,1,74.68,60.8Zm48.8.29a1.14,1.14,0,0,1-.38-1.57h0a1.16,1.16,0,0,1,1.58-.39h0a1.15,1.15,0,0,1,.38,1.58h0a1.13,1.13,0,0,1-1,.55h0A1.12,1.12,0,0,1,123.48,61.09ZM80.25,57.73a1.16,1.16,0,0,1,.59-1.52h0a1.15,1.15,0,0,1,1.51.6h0a1.14,1.14,0,0,1-.59,1.51h0a1.22,1.22,0,0,1-.46.09h0A1.15,1.15,0,0,1,80.25,57.73Zm37.73.52h0a1.14,1.14,0,0,1-.6-1.51h0a1.15,1.15,0,0,1,1.51-.6h0a1.14,1.14,0,0,1,.59,1.51h0a1.15,1.15,0,0,1-1,.69h0A1.17,1.17,0,0,1,118,58.25ZM86.19,55.43A1.14,1.14,0,0,1,87,54h0a1.16,1.16,0,0,1,1.42.8h0a1.17,1.17,0,0,1-.8,1.42h0a1.12,1.12,0,0,1-.31.05h0A1.15,1.15,0,0,1,86.19,55.43Zm25.94.76a1.16,1.16,0,0,1-.81-1.42h0a1.15,1.15,0,0,1,1.41-.8h0a1.16,1.16,0,0,1,.81,1.41h0a1.17,1.17,0,0,1-1.11.85h0A1.54,1.54,0,0,1,112.13,56.19ZM92.38,54a1.15,1.15,0,0,1,1-1.29h0a1.15,1.15,0,0,1,1.3,1h0a1.15,1.15,0,0,1-1,1.3h-.16A1.14,1.14,0,0,1,92.38,54Zm13.67,1a1.15,1.15,0,0,1-1-1.29h0a1.16,1.16,0,0,1,1.29-1h0a1.15,1.15,0,0,1,1,1.3h0a1.13,1.13,0,0,1-1.13,1h-.15Zm-6.19-.41a1.16,1.16,0,0,1-1.16-1.14h0a1.16,1.16,0,0,1,1.16-1.15h0A1.15,1.15,0,0,1,101,53.39h0a1.14,1.14,0,0,1-1.14,1.14Zm0-2.29ZM98.7,139.05a1.25,1.25,0,0,1,1.25-1.26h.16a1.27,1.27,0,0,1,1.26,1.25h0a1.25,1.25,0,0,1-1.26,1.25H100A1.26,1.26,0,0,1,98.7,139.05Zm-5.38.7h0a1.25,1.25,0,0,1-1-1.44h0a1.26,1.26,0,0,1,1.44-1h0a1.26,1.26,0,0,1,1,1.44h0a1.25,1.25,0,0,1-1.23,1.05h0Zm12-1.05a1.26,1.26,0,0,1,1-1.45h0a1.27,1.27,0,0,1,1.45,1h0a1.24,1.24,0,0,1-1,1.44h0a.71.71,0,0,1-.21,0h0A1.24,1.24,0,0,1,105.3,138.7Zm-18.43-.57a1.27,1.27,0,0,1-.78-1.6h0a1.25,1.25,0,0,1,1.59-.77h0a1.25,1.25,0,0,1,.78,1.59h0a1.27,1.27,0,0,1-1.18.85h0A1.41,1.41,0,0,1,86.87,138.13Zm24.72-.84a1.26,1.26,0,0,1,.78-1.59h0a1.26,1.26,0,0,1,1.59.78h0a1.24,1.24,0,0,1-.78,1.59h0a1.4,1.4,0,0,1-.4.07h0A1.26,1.26,0,0,1,111.59,137.29Zm-30.81-1.84h0a1.25,1.25,0,0,1-.51-1.69h0a1.25,1.25,0,0,1,1.7-.51h0a1.25,1.25,0,0,1,.5,1.7h0a1.24,1.24,0,0,1-1.1.65h0A1.23,1.23,0,0,1,80.78,135.45Zm36.79-.58a1.25,1.25,0,0,1,.49-1.7h0a1.25,1.25,0,0,1,1.7.5h0a1.26,1.26,0,0,1-.5,1.71h0a1.23,1.23,0,0,1-.59.15h0A1.25,1.25,0,0,1,117.57,134.87Zm-42.36-3.06a1.25,1.25,0,0,1-.22-1.76h0a1.25,1.25,0,0,1,1.75-.22h0a1.25,1.25,0,0,1,.22,1.76h0a1.26,1.26,0,0,1-1,.48h0A1.22,1.22,0,0,1,75.21,131.81Zm47.85-.32a1.24,1.24,0,0,1,.21-1.75h0A1.26,1.26,0,0,1,125,130h0a1.26,1.26,0,0,1-.22,1.76h0a1.23,1.23,0,0,1-.77.27h0A1.24,1.24,0,0,1,123.06,131.49ZM70.31,127.3a1.25,1.25,0,0,1,.08-1.77h0a1.25,1.25,0,0,1,1.76.08h0a1.25,1.25,0,0,1-.07,1.77h0a1.23,1.23,0,0,1-.84.32h0A1.24,1.24,0,0,1,70.31,127.3Zm57.61,0a1.25,1.25,0,0,1-.08-1.77h0a1.25,1.25,0,0,1,1.77-.07h0a1.25,1.25,0,0,1,.08,1.77h0a1.3,1.3,0,0,1-.92.41h0A1.23,1.23,0,0,1,127.92,127.26Zm-61.7-5.2a1.25,1.25,0,0,1,.36-1.73h0a1.26,1.26,0,0,1,1.74.36h0a1.25,1.25,0,0,1-.36,1.73h0a1.27,1.27,0,0,1-.69.21h0A1.25,1.25,0,0,1,66.22,122.06Zm65.81.23a1.25,1.25,0,0,1-.37-1.73h0a1.26,1.26,0,0,1,1.73-.37h0a1.26,1.26,0,0,1,.37,1.74h0a1.25,1.25,0,0,1-1,.57h0A1.21,1.21,0,0,1,132,122.29Zm-69-6.07a1.25,1.25,0,0,1,.64-1.65h0a1.25,1.25,0,0,1,1.65.64h0a1.25,1.25,0,0,1-.64,1.65h0a1.32,1.32,0,0,1-.51.1h0A1.25,1.25,0,0,1,63.05,116.22Zm72.22.49a1.24,1.24,0,0,1-.65-1.65h0a1.24,1.24,0,0,1,1.64-.64h0a1.24,1.24,0,0,1,.65,1.64h0a1.24,1.24,0,0,1-1.15.76h0A1.24,1.24,0,0,1,135.27,116.71Zm-74.38-6.78a1.23,1.23,0,0,1,.9-1.52h0a1.24,1.24,0,0,1,1.52.9h0a1.27,1.27,0,0,1-.9,1.53h0l-.31,0h0A1.25,1.25,0,0,1,60.89,109.93Zm76.65.74a1.24,1.24,0,0,1-.92-1.51h0a1.25,1.25,0,0,1,1.52-.91h0a1.25,1.25,0,0,1,.91,1.52h0a1.25,1.25,0,0,1-1.21.95h0A1.54,1.54,0,0,1,137.54,110.67Zm-77.75-7.3A1.24,1.24,0,0,1,60.94,102h0a1.24,1.24,0,0,1,1.34,1.14h0a1.25,1.25,0,0,1-1.14,1.35H61A1.25,1.25,0,0,1,59.79,103.37Zm79,1a1.24,1.24,0,0,1-1.15-1.34h0a1.25,1.25,0,0,1,1.35-1.15h0a1.26,1.26,0,0,1,1.15,1.34h0a1.25,1.25,0,0,1-1.25,1.16h-.1ZM60.93,98.07a1.25,1.25,0,0,1-1.14-1.36h0a1.24,1.24,0,0,1,1.34-1.14h0a1.25,1.25,0,0,1,1.15,1.35h0A1.26,1.26,0,0,1,61,98.07h-.1Zm76.67-1.31a1.25,1.25,0,0,1,1.14-1.35h0a1.24,1.24,0,0,1,1.35,1.14h0A1.25,1.25,0,0,1,139,97.9h-.11A1.26,1.26,0,0,1,137.6,96.76ZM61.77,91.67a1.25,1.25,0,0,1-.91-1.51h0a1.27,1.27,0,0,1,1.52-.92h0a1.26,1.26,0,0,1,.91,1.52h0a1.26,1.26,0,0,1-1.22,1h0A1,1,0,0,1,61.77,91.67Zm74.79-1.06h0a1.26,1.26,0,0,1,.9-1.52h0A1.25,1.25,0,0,1,139,90h0a1.25,1.25,0,0,1-.9,1.52h0a1.17,1.17,0,0,1-.32,0h0A1.26,1.26,0,0,1,136.56,90.61Zm-72.9-5.1A1.25,1.25,0,0,1,63,83.85h0a1.25,1.25,0,0,1,1.64-.64h0a1.26,1.26,0,0,1,.65,1.65h0a1.26,1.26,0,0,1-1.15.75h0A1.48,1.48,0,0,1,63.66,85.51Zm70.86-.8h0a1.26,1.26,0,0,1,.64-1.65h0a1.26,1.26,0,0,1,1.65.64h0a1.27,1.27,0,0,1-.64,1.66h0a1.48,1.48,0,0,1-.5.1h0A1.26,1.26,0,0,1,134.52,84.71Zm-68-5A1.24,1.24,0,0,1,66.18,78h0a1.25,1.25,0,0,1,1.73-.36h0a1.24,1.24,0,0,1,.36,1.73h0a1.24,1.24,0,0,1-1,.57h0A1.19,1.19,0,0,1,66.55,79.73Zm65-.49a1.25,1.25,0,0,1,.36-1.73h0a1.26,1.26,0,0,1,1.74.35h0a1.26,1.26,0,0,1-.36,1.74h0a1.24,1.24,0,0,1-.69.21h0A1.25,1.25,0,0,1,131.53,79.24ZM70.34,74.52a1.25,1.25,0,0,1-.08-1.77h0A1.24,1.24,0,0,1,72,72.68h0a1.24,1.24,0,0,1,.07,1.76h0a1.23,1.23,0,0,1-.91.41h0A1.25,1.25,0,0,1,70.34,74.52Zm57.34-.19h0a1.27,1.27,0,0,1,.07-1.77h0a1.27,1.27,0,0,1,1.78.07h0a1.26,1.26,0,0,1-.08,1.77h0a1.25,1.25,0,0,1-.85.33h0A1.25,1.25,0,0,1,127.68,74.33ZM74.93,70a1.25,1.25,0,0,1,.21-1.75h0a1.24,1.24,0,0,1,1.76.21h0a1.25,1.25,0,0,1-.21,1.76h0a1.23,1.23,0,0,1-.77.26h0A1.24,1.24,0,0,1,74.93,70Zm48.15.13a1.28,1.28,0,0,1-.22-1.77h0a1.25,1.25,0,0,1,1.76-.21h0a1.25,1.25,0,0,1,.22,1.75h0a1.21,1.21,0,0,1-1,.48h0A1.29,1.29,0,0,1,123.08,70.12ZM80.2,66.28a1.25,1.25,0,0,1,.51-1.7h0a1.25,1.25,0,0,1,1.69.51h0a1.26,1.26,0,0,1-.5,1.7h0a1.3,1.3,0,0,1-.6.15h0A1.26,1.26,0,0,1,80.2,66.28Zm37.66.43a1.25,1.25,0,0,1-.51-1.69h0a1.23,1.23,0,0,1,1.69-.51h0a1.24,1.24,0,0,1,.51,1.69h0a1.25,1.25,0,0,1-1.11.66h0A1.19,1.19,0,0,1,117.86,66.71ZM86,63.5a1.25,1.25,0,0,1,.78-1.6h0a1.25,1.25,0,0,1,1.59.78h0a1.25,1.25,0,0,1-.78,1.58h0a1,1,0,0,1-.41.08h0A1.27,1.27,0,0,1,86,63.5Zm26.12.71h0a1.24,1.24,0,0,1-.77-1.58h0a1.24,1.24,0,0,1,1.58-.79h0a1.28,1.28,0,0,1,.79,1.6h0a1.26,1.26,0,0,1-1.19.84h0A1.22,1.22,0,0,1,112.13,64.21ZM92.21,61.7a1.25,1.25,0,0,1,1-1.44h0a1.24,1.24,0,0,1,1.43,1h0a1.25,1.25,0,0,1-1,1.45h0l-.21,0h0A1.25,1.25,0,0,1,92.21,61.7Zm13.87,1h0a1.24,1.24,0,0,1-1-1.43h0a1.24,1.24,0,0,1,1.43-1h0a1.25,1.25,0,0,1,1,1.44h0a1.26,1.26,0,0,1-1.24,1h0Zm-6.22-.49A1.25,1.25,0,0,1,98.61,61h0a1.25,1.25,0,0,1,1.25-1.25h0A1.24,1.24,0,0,1,101.12,61h0a1.27,1.27,0,0,1-1.26,1.26Zm-1.27,69.27a1.36,1.36,0,0,1,1.36-1.36h.12a1.35,1.35,0,0,1,1.36,1.35h0a1.35,1.35,0,0,1-1.35,1.36H100A1.35,1.35,0,0,1,98.59,131.48Zm-5,.73a1.36,1.36,0,0,1-1.07-1.59h0a1.35,1.35,0,0,1,1.59-1.07h0a1.35,1.35,0,0,1,1.07,1.59h0a1.35,1.35,0,0,1-1.33,1.1h0A1.15,1.15,0,0,1,93.55,132.21Zm11.34-1.09a1.35,1.35,0,0,1,1.06-1.6h0a1.35,1.35,0,0,1,1.59,1.06h0a1.35,1.35,0,0,1-1.06,1.6h0l-.26,0h0A1.35,1.35,0,0,1,104.89,131.12Zm-17.5-.78a1.35,1.35,0,0,1-.74-1.77h0a1.36,1.36,0,0,1,1.78-.73h0a1.35,1.35,0,0,1,.73,1.77h0a1.36,1.36,0,0,1-1.26.84h0A1.14,1.14,0,0,1,87.39,130.34Zm23.47-.77a1.36,1.36,0,0,1,.72-1.78h0a1.36,1.36,0,0,1,1.78.72h0a1.35,1.35,0,0,1-.73,1.78h0a1.39,1.39,0,0,1-.52.11h0A1.36,1.36,0,0,1,110.86,129.57Zm-29.15-2.26h0a1.36,1.36,0,0,1-.37-1.88h0a1.34,1.34,0,0,1,1.88-.37h0a1.35,1.35,0,0,1,.38,1.88h0a1.38,1.38,0,0,1-1.13.6h0A1.41,1.41,0,0,1,81.71,127.31Zm34.7-.44a1.37,1.37,0,0,1,.36-1.89h0a1.37,1.37,0,0,1,1.89.37h0a1.35,1.35,0,0,1-.37,1.88h0a1.31,1.31,0,0,1-.76.23h0A1.36,1.36,0,0,1,116.41,126.87Zm-39.67-3.64h0a1.36,1.36,0,0,1,0-1.92h0a1.36,1.36,0,0,1,1.92,0h0a1.36,1.36,0,0,1,0,1.92h0a1.35,1.35,0,0,1-1,.39h0A1.36,1.36,0,0,1,76.74,123.23Zm44.59-.09a1.37,1.37,0,0,1,0-1.92h0a1.37,1.37,0,0,1,1.92,0h0a1.35,1.35,0,0,1,0,1.92h0a1.36,1.36,0,0,1-1,.4h0A1.37,1.37,0,0,1,121.33,123.14Zm-48.67-4.88h0a1.36,1.36,0,0,1,.36-1.88h0a1.36,1.36,0,0,1,1.89.37h0a1.35,1.35,0,0,1-.37,1.88h0a1.41,1.41,0,0,1-.76.23h0A1.34,1.34,0,0,1,72.66,118.26Zm52.78.26a1.35,1.35,0,0,1-.39-1.87h0a1.36,1.36,0,0,1,1.88-.39h0a1.37,1.37,0,0,1,.39,1.88h0a1.37,1.37,0,0,1-1.14.61h0A1.32,1.32,0,0,1,125.44,118.52Zm-55.82-5.93a1.34,1.34,0,0,1,.72-1.77h0a1.35,1.35,0,0,1,1.78.73h0a1.35,1.35,0,0,1-.73,1.77h0a1.37,1.37,0,0,1-.52.1h0A1.34,1.34,0,0,1,69.62,112.59Zm58.94.61a1.35,1.35,0,0,1-.74-1.77h0a1.36,1.36,0,0,1,1.77-.74h0a1.36,1.36,0,0,1,.74,1.77h0a1.37,1.37,0,0,1-1.26.85h0A1.39,1.39,0,0,1,128.56,113.2Zm-60.82-6.76h0a1.36,1.36,0,0,1,1.07-1.59h0a1.35,1.35,0,0,1,1.59,1.06h0a1.35,1.35,0,0,1-1.06,1.6h0a1.18,1.18,0,0,1-.26,0h0A1.36,1.36,0,0,1,67.74,106.44Zm62.85.92a1.35,1.35,0,0,1-1.08-1.58h0a1.35,1.35,0,0,1,1.59-1.07h0a1.35,1.35,0,0,1,1.07,1.59h0a1.35,1.35,0,0,1-1.32,1.1h0A.75.75,0,0,1,130.59,107.36ZM67.11,100a1.36,1.36,0,0,1,1.36-1.36h0A1.36,1.36,0,0,1,69.83,100h0a1.36,1.36,0,0,1-1.36,1.36h0A1.36,1.36,0,0,1,67.11,100Zm63-.14a1.35,1.35,0,0,1,1.35-1.36h0a1.37,1.37,0,0,1,1.36,1.36h0a1.36,1.36,0,0,1-1.35,1.36h0A1.36,1.36,0,0,1,130.07,99.9ZM68.8,95.22a1.35,1.35,0,0,1-1.07-1.58h0a1.35,1.35,0,0,1,1.6-1.07h0a1.34,1.34,0,0,1,1.06,1.58h0a1.35,1.35,0,0,1-1.32,1.1h0A.8.8,0,0,1,68.8,95.22ZM129.48,94a1.36,1.36,0,0,1,1.06-1.6h0a1.35,1.35,0,0,1,1.59,1.06h0a1.37,1.37,0,0,1-1.07,1.61h0l-.27,0h0A1.34,1.34,0,0,1,129.48,94ZM70.33,89.24a1.35,1.35,0,0,1-.75-1.76h0a1.38,1.38,0,0,1,1.78-.75h0a1.38,1.38,0,0,1,.74,1.78h0a1.38,1.38,0,0,1-1.26.84h0A1.3,1.3,0,0,1,70.33,89.24Zm57.42-.85a1.34,1.34,0,0,1,.73-1.77h0a1.34,1.34,0,0,1,1.77.72h0a1.36,1.36,0,0,1-.73,1.78h0a1.34,1.34,0,0,1-.52.1h0A1.35,1.35,0,0,1,127.75,88.39ZM73,83.68a1.38,1.38,0,0,1-.38-1.89h0a1.36,1.36,0,0,1,1.89-.37h0a1.36,1.36,0,0,1,.38,1.88h0a1.38,1.38,0,0,1-1.14.6h0A1.36,1.36,0,0,1,73,83.68Zm52-.49h0a1.34,1.34,0,0,1,.36-1.87h0a1.36,1.36,0,0,1,1.89.36h0a1.35,1.35,0,0,1-.37,1.88h0a1.32,1.32,0,0,1-.76.24h0A1.36,1.36,0,0,1,124.94,83.19ZM76.7,78.74a1.35,1.35,0,0,1,0-1.92h0a1.33,1.33,0,0,1,1.91,0h0a1.36,1.36,0,0,1,0,1.92h0a1.35,1.35,0,0,1-1,.39h0A1.34,1.34,0,0,1,76.7,78.74Zm44.49-.09a1.35,1.35,0,0,1,0-1.92h0a1.35,1.35,0,0,1,1.92,0h0a1.37,1.37,0,0,1,0,1.92h0a1.4,1.4,0,0,1-1,.4h0A1.42,1.42,0,0,1,121.19,78.65Zm-39.9-4a1.36,1.36,0,0,1,.36-1.88h0a1.35,1.35,0,0,1,1.88.37h0A1.35,1.35,0,0,1,83.17,75h0a1.41,1.41,0,0,1-.76.23h0A1.35,1.35,0,0,1,81.29,74.61Zm35.33.3a1.35,1.35,0,0,1-.38-1.88h0a1.36,1.36,0,0,1,1.88-.38h0a1.36,1.36,0,0,1,.38,1.88h0a1.38,1.38,0,0,1-1.13.61h0A1.38,1.38,0,0,1,116.62,74.91Zm-30-3.46a1.36,1.36,0,0,1,.73-1.77h0a1.36,1.36,0,0,1,1.78.73h0a1.37,1.37,0,0,1-.74,1.78h0a1.49,1.49,0,0,1-.51.1h0A1.35,1.35,0,0,1,86.59,71.45Zm24.82.68a1.33,1.33,0,0,1-.74-1.76h0a1.35,1.35,0,0,1,1.77-.74h0a1.36,1.36,0,0,1,.74,1.77h0a1.37,1.37,0,0,1-1.26.84h0A1.3,1.3,0,0,1,111.41,72.13Zm-19-2.73a1.36,1.36,0,0,1,1.07-1.6h0a1.35,1.35,0,0,1,1.59,1.06h0A1.36,1.36,0,0,1,94,70.47h0l-.27,0h0A1.37,1.37,0,0,1,92.41,69.4Zm13.35,1a1.36,1.36,0,0,1-1.07-1.59h0a1.34,1.34,0,0,1,1.58-1.07h0a1.34,1.34,0,0,1,1.07,1.58h0A1.36,1.36,0,0,1,106,70.47h0A1.15,1.15,0,0,1,105.76,70.44Zm-5.88-.56Zm-1.36-1.36a1.36,1.36,0,0,1,1.35-1.35h0a1.35,1.35,0,0,1,1.36,1.35h0a1.36,1.36,0,0,1-1.35,1.36h0A1.36,1.36,0,0,1,98.52,68.52Zm0,55.39a1.46,1.46,0,0,1,1.46-1.46H100a1.46,1.46,0,0,1,1.46,1.45h0a1.45,1.45,0,0,1-1.45,1.47H100A1.46,1.46,0,0,1,98.49,123.91Zm-5.1.6a1.45,1.45,0,0,1-1-1.79h0a1.47,1.47,0,0,1,1.79-1h0a1.45,1.45,0,0,1,1,1.78h0a1.45,1.45,0,0,1-1.41,1.09h0A1.57,1.57,0,0,1,93.39,124.51Zm11.42-1.05a1.47,1.47,0,0,1,1-1.8h0a1.47,1.47,0,0,1,1.8,1h0a1.47,1.47,0,0,1-1,1.78h0a1.35,1.35,0,0,1-.39,0h0A1.46,1.46,0,0,1,104.81,123.46ZM87.27,122h0a1.46,1.46,0,0,1-.53-2h0a1.45,1.45,0,0,1,2-.53h0a1.45,1.45,0,0,1,.53,2h0a1.45,1.45,0,0,1-1.26.73h0A1.45,1.45,0,0,1,87.27,122Zm23.44-.58a1.48,1.48,0,0,1,.53-2h0a1.47,1.47,0,0,1,2,.53h0a1.47,1.47,0,0,1-.52,2h0a1.54,1.54,0,0,1-.74.19h0A1.48,1.48,0,0,1,110.71,121.4ZM82,118a1.45,1.45,0,0,1,0-2.07h0a1.45,1.45,0,0,1,2.06,0h0a1.47,1.47,0,0,1,0,2.07h0a1.46,1.46,0,0,1-1,.42h0A1.44,1.44,0,0,1,82,118Zm33.86-.07a1.45,1.45,0,0,1,0-2.06h0a1.46,1.46,0,0,1,2.07,0h0a1.45,1.45,0,0,1,0,2.06h0a1.48,1.48,0,0,1-1,.44h0A1.47,1.47,0,0,1,115.88,117.88ZM78,112.7h0a1.46,1.46,0,0,1,.53-2h0a1.47,1.47,0,0,1,2,.54h0a1.46,1.46,0,0,1-.53,2h0a1.45,1.45,0,0,1-.74.2h0A1.45,1.45,0,0,1,78,112.7Zm42,.46a1.47,1.47,0,0,1-.54-2h0a1.46,1.46,0,0,1,2-.54h0a1.46,1.46,0,0,1,.55,2h0a1.49,1.49,0,0,1-1.27.74h0A1.59,1.59,0,0,1,120,113.16Zm-44.53-6.57a1.46,1.46,0,0,1,1-1.8h0a1.47,1.47,0,0,1,1.79,1h0a1.46,1.46,0,0,1-1,1.79h0a1.65,1.65,0,0,1-.38,0h0A1.46,1.46,0,0,1,75.44,106.59Zm47.25.93a1.45,1.45,0,0,1-1-1.77h0a1.45,1.45,0,0,1,1.78-1h0a1.46,1.46,0,0,1,1,1.79h0a1.45,1.45,0,0,1-1.41,1.08h0A1.24,1.24,0,0,1,122.69,107.52ZM74.58,100A1.46,1.46,0,0,1,76,98.56h0A1.46,1.46,0,0,1,77.5,100h0A1.46,1.46,0,0,1,76,101.48h0A1.46,1.46,0,0,1,74.58,100Zm47.82-.09h0a1.45,1.45,0,0,1,1.45-1.46h0a1.46,1.46,0,0,1,1.47,1.45h0a1.48,1.48,0,0,1-1.46,1.47h0A1.46,1.46,0,0,1,122.4,99.93Zm2.92,0ZM76.46,95.25a1.47,1.47,0,0,1-1-1.79h0a1.45,1.45,0,0,1,1.78-1h0a1.45,1.45,0,0,1,1,1.78h0a1.46,1.46,0,0,1-1.4,1.09h0A1.74,1.74,0,0,1,76.46,95.25Zm45.16-1.12h0a1.46,1.46,0,0,1,1-1.8h0a1.46,1.46,0,0,1,1.79,1h0a1.45,1.45,0,0,1-1,1.79h0a1.24,1.24,0,0,1-.38,0h0A1.45,1.45,0,0,1,121.62,94.13ZM78.49,89.34a1.47,1.47,0,0,1-.53-2h0a1.45,1.45,0,0,1,2-.53h0a1.45,1.45,0,0,1,.53,2h0a1.44,1.44,0,0,1-1.26.73h0A1.47,1.47,0,0,1,78.49,89.34Zm40.87-.62h0a1.47,1.47,0,0,1,.53-2h0a1.48,1.48,0,0,1,2,.53h0a1.47,1.47,0,0,1-.53,2h0a1.41,1.41,0,0,1-.73.2h0A1.47,1.47,0,0,1,119.36,88.72ZM82,84.15a1.46,1.46,0,0,1,0-2.07h0a1.49,1.49,0,0,1,2.07,0h0a1.47,1.47,0,0,1,0,2.07h0a1.45,1.45,0,0,1-1,.43h0A1.42,1.42,0,0,1,82,84.15Zm33.79-.06a1.46,1.46,0,0,1,0-2.07h0a1.47,1.47,0,0,1,2.07,0h0a1.45,1.45,0,0,1,0,2.06h0a1.45,1.45,0,0,1-1,.43h0A1.47,1.47,0,0,1,115.78,84.09ZM86.69,80a1.48,1.48,0,0,1,.53-2h0a1.47,1.47,0,0,1,2,.54h0a1.46,1.46,0,0,1-.53,2h0a1.42,1.42,0,0,1-.74.2h0A1.46,1.46,0,0,1,86.69,80Zm24.43.49a1.48,1.48,0,0,1-.53-2h0a1.47,1.47,0,0,1,2-.54h0a1.46,1.46,0,0,1,.54,2h0a1.46,1.46,0,0,1-1.27.73h0A1.53,1.53,0,0,1,111.12,80.53ZM92.3,77.29a1.46,1.46,0,0,1,1-1.79h0a1.45,1.45,0,0,1,1.78,1h0a1.46,1.46,0,0,1-1,1.79h0a1.81,1.81,0,0,1-.39.05h0A1.47,1.47,0,0,1,92.3,77.29Zm13.41,1h0a1.46,1.46,0,0,1-1-1.79h0a1.46,1.46,0,0,1,1.79-1h0a1.47,1.47,0,0,1,1,1.79h0a1.46,1.46,0,0,1-1.42,1.08h0A1.55,1.55,0,0,1,105.71,78.3Zm-7.27-2.21a1.46,1.46,0,0,1,1.46-1.46h0a1.46,1.46,0,0,1,1.46,1.46h0a1.46,1.46,0,0,1-1.45,1.46h0A1.46,1.46,0,0,1,98.44,76.09ZM100,117.91h0a1.57,1.57,0,0,1-1.57-1.56h0a1.57,1.57,0,0,1,1.57-1.57H100a1.56,1.56,0,0,1,1.57,1.56h0a1.58,1.58,0,0,1-1.56,1.57h0Zm-6.88-1.36a1.56,1.56,0,0,1-.85-2h0a1.57,1.57,0,0,1,2-.84h0a1.56,1.56,0,0,1,.84,2h0a1.57,1.57,0,0,1-1.44,1h0A1.57,1.57,0,0,1,93.1,116.55Zm11.71-.86a1.59,1.59,0,0,1,.85-2.06h0a1.55,1.55,0,0,1,2,.85h0a1.55,1.55,0,0,1-.83,2h0a1.67,1.67,0,0,1-.61.13h0A1.59,1.59,0,0,1,104.81,115.69Zm-17.52-3a1.56,1.56,0,0,1,0-2.21h0a1.58,1.58,0,0,1,2.22,0h0a1.56,1.56,0,0,1,0,2.21h0a1.56,1.56,0,0,1-1.11.46h0A1.56,1.56,0,0,1,87.29,112.66Zm23.15,0a1.56,1.56,0,0,1,0-2.21h0a1.55,1.55,0,0,1,2.21,0h0a1.55,1.55,0,0,1,0,2.21h0a1.54,1.54,0,0,1-1.11.46h0A1.57,1.57,0,0,1,110.44,112.62Zm-27-5.76a1.55,1.55,0,0,1,.84-2h0a1.56,1.56,0,0,1,2,.84h0a1.56,1.56,0,0,1-.84,2h0a1.61,1.61,0,0,1-.6.12h0A1.57,1.57,0,0,1,83.41,106.86Zm31.07.79a1.56,1.56,0,0,1-.86-2h0a1.57,1.57,0,0,1,2-.86h0a1.57,1.57,0,0,1,.86,2h0a1.58,1.58,0,0,1-1.45,1h0A1.52,1.52,0,0,1,114.48,107.65ZM82,100a1.57,1.57,0,0,1,1.57-1.57h0A1.56,1.56,0,0,1,85.17,100h0a1.56,1.56,0,0,1-1.56,1.57h0A1.56,1.56,0,0,1,82,100Zm32.68-.07a1.57,1.57,0,0,1,1.56-1.57h0a1.56,1.56,0,0,1,1.57,1.56h0a1.56,1.56,0,0,1-1.55,1.57h0A1.57,1.57,0,0,1,114.72,100ZM84.24,95.21a1.56,1.56,0,0,1-.85-2h0a1.56,1.56,0,0,1,2-.85h0a1.57,1.57,0,0,1,.86,2h0a1.59,1.59,0,0,1-1.45,1h0A1.57,1.57,0,0,1,84.24,95.21Zm29.35-.91h0a1.55,1.55,0,0,1,.84-2h0a1.55,1.55,0,0,1,2,.84h0a1.57,1.57,0,0,1-.83,2.05h0a1.62,1.62,0,0,1-.61.12h0A1.57,1.57,0,0,1,113.59,94.3ZM87.27,89.57a1.55,1.55,0,0,1,0-2.21h0a1.55,1.55,0,0,1,2.21,0h0a1.56,1.56,0,0,1,0,2.21h0a1.57,1.57,0,0,1-1.11.47h0A1.58,1.58,0,0,1,87.27,89.57Zm23.1,0a1.57,1.57,0,0,1,0-2.21h0a1.58,1.58,0,0,1,2.22,0h0a1.58,1.58,0,0,1,0,2.22h0a1.57,1.57,0,0,1-1.11.46h0A1.52,1.52,0,0,1,110.37,89.52Zm-18.15-4a1.57,1.57,0,0,1,.84-2.05h0a1.58,1.58,0,0,1,2,.84h0a1.57,1.57,0,0,1-.85,2.06h0a1.77,1.77,0,0,1-.6.11h0A1.56,1.56,0,0,1,92.22,85.51Zm13.35.82a1.56,1.56,0,0,1-.85-2h0a1.56,1.56,0,0,1,2-.85h0a1.56,1.56,0,0,1,.85,2h0a1.56,1.56,0,0,1-1.44,1h0A1.61,1.61,0,0,1,105.57,86.33Zm-7.23-2.67a1.57,1.57,0,0,1,1.57-1.57h0a1.56,1.56,0,0,1,1.56,1.56h0a1.56,1.56,0,0,1-1.56,1.57h0A1.57,1.57,0,0,1,98.34,83.66ZM100,110.44h0a1.66,1.66,0,0,1-1.67-1.66h0a1.66,1.66,0,0,1,1.6-1.67H100a1.65,1.65,0,0,1,1.68,1.66h0a1.65,1.65,0,0,1-1.66,1.67h0ZM93.24,108h0a1.67,1.67,0,0,1-.21-2.35h0a1.66,1.66,0,0,1,2.35-.2h0a1.68,1.68,0,0,1,.21,2.35h0a1.68,1.68,0,0,1-1.28.59h0A1.61,1.61,0,0,1,93.24,108Zm11.1-.22a1.67,1.67,0,0,1,.19-2.35h0a1.66,1.66,0,0,1,2.35.19h0a1.66,1.66,0,0,1-.19,2.35h0a1.66,1.66,0,0,1-1.07.4h0A1.67,1.67,0,0,1,104.34,107.78Zm-14.67-6A1.65,1.65,0,0,1,91,99.89h0A1.67,1.67,0,0,1,93,101.24h0a1.68,1.68,0,0,1-1.36,1.94h0l-.29,0h0A1.66,1.66,0,0,1,89.67,101.82Zm18.64,1.32a1.67,1.67,0,0,1-1.36-1.93h0a1.66,1.66,0,0,1,1.93-1.36h0a1.66,1.66,0,0,1,1.36,1.93h0a1.67,1.67,0,0,1-1.65,1.4h0Zm-16.8-6.07a1.67,1.67,0,0,1-.62-2.28h0a1.67,1.67,0,0,1,2.28-.61h0a1.67,1.67,0,0,1,.62,2.28h0a1.69,1.69,0,0,1-1.45.83h0A1.64,1.64,0,0,1,91.51,97.07Zm14.58-.64h0a1.68,1.68,0,0,1,.6-2.29h0a1.69,1.69,0,0,1,2.29.61h0a1.67,1.67,0,0,1-.6,2.28h0a1.65,1.65,0,0,1-.85.23h0A1.65,1.65,0,0,1,106.09,96.43Zm-10.72-4.1a1.66,1.66,0,0,1,1-2.14h0a1.66,1.66,0,0,1,2.14,1h0a1.68,1.68,0,0,1-1,2.15h0a1.85,1.85,0,0,1-.57.1h0A1.65,1.65,0,0,1,95.37,92.33Zm7,1a1.67,1.67,0,0,1-1-2.14h0a1.67,1.67,0,0,1,2.14-1h0a1.68,1.68,0,0,1,1,2.14h0a1.69,1.69,0,0,1-1.57,1.1h0A1.65,1.65,0,0,1,102.36,93.31Z"></path>
          </g>
        </svg>